{
.appVersion = "1029";
copyright = "Copyright 2011 The Paytone Project Authors (https://github.com/googlefonts/paytoneFont)";
customParameters = (
{
name = trademark;
value = "Paytone One is a trademark of vernon adams.";
},
{
name = "Use Typo Metrics";
value = 1;
},
{
name = license;
value = "This Font Software is licensed under the SIL Open Font License, Version 1.1. This license is available with a FAQ at: http://scripts.sil.org/OFL";
},
{
name = licenseURL;
value = "http://scripts.sil.org/OFL";
},
{
name = fsType;
value = (
);
},
{
name = "Disable Last Change";
value = 1;
},
{
name = "Use Line Breaks";
value = 1;
}
);
date = "2011-05-03 18:31:34 +0000";
designer = "Vernon Adams";
designerURL = "http://www.sansoxygen.com";
disablesAutomaticAlignment = 1;
familyName = "Paytone One";
featurePrefixes = (
{
automatic = 1;
code = "languagesystem DFLT dflt;
languagesystem latn dflt;
languagesystem latn ROM;
languagesystem latn MOL;
";
name = Languagesystems;
}
);
features = (
{
automatic = 1;
code = "feature locl;
feature sups;
feature frac;
feature ordn;
";
name = aalt;
},
{
automatic = 1;
code = "script latn;
language ROM;
sub Scedilla by Scommaaccent;
sub scedilla by scommaaccent;
language MOL;
sub Scedilla by Scommaaccent;
sub scedilla by scommaaccent;
";
name = locl;
},
{
automatic = 1;
code = "sub one by onesuperior;
sub two by twosuperior;
sub three by threesuperior;
sub four by foursuperior;
";
name = sups;
},
{
automatic = 1;
code = "sub one slash four by onequarter;
sub one slash two by onehalf;
sub three slash four by threequarters;
";
name = frac;
},
{
automatic = 1;
code = "sub [zero one two three four five six seven eight nine] [A a]' by ordfeminine;
sub [zero one two three four five six seven eight nine] [O o]' by ordmasculine;
";
name = ordn;
},
{
automatic = 1;
code = "sub f i by fi;
sub f l by fl;
";
name = liga;
}
);
fontMaster = (
{
alignmentZones = (
"{688, 16}",
"{501, 7}",
"{0, 16}",
"{-170, 0}"
);
ascender = 1113;
capHeight = 688;

glyphs = (
{
glyphname = A;
layers = (
{
hints = (
{
horizontal = 1;
place = "{132, 123}";
},
{
horizontal = 1;
place = "{0, 21}";
target = up;
type = BottomGhost;
},
{
horizontal = 1;
place = "{688, -20}";
target = down;
type = TopGhost;
}
);
layerId = UUID0;
paths = (
{
closed = 1;
nodes = (
"195 688 LINE",
"499 688 LINE",
"698 0 LINE",
"463 0 LINE",
"437 132 LINE",
"259 132 LINE",
"230 0 LINE",
"5 0 LINE"
);
},
{
closed = 1;
nodes = (
"413 255 LINE",
"348 556 LINE",
"280 255 LINE"
);
}
);
width = 699;
}
);
leftKerningGroup = A;
unicode = 0041;
},
{
glyphname = AE;
layers = (
{
hints = (
{
horizontal = 1;
place = "{0, 150}";
},
{
horizontal = 1;
place = "{132, 123}";
},
{
horizontal = 1;
place = "{285, 126}";
},
{
horizontal = 1;
place = "{536, 151}";
}
);
layerId = UUID0;
paths = (
{
closed = 1;
nodes = (
"232 688 LINE",
"807 688 LINE",
"834 536 LINE",
"558 536 LINE",
"582 411 LINE",
"831 411 LINE",
"855 285 LINE",
"612 285 LINE",
"642 150 LINE",
"899 150 LINE",
"927 0 LINE",
"448 0 LINE",
"426 132 LINE",
"257 132 LINE",
"216 0 LINE",
"-3 0 LINE"
);
},
{
closed = 1;
nodes = (
"402 255 LINE",
"361 506 LINE",
"294 255 LINE"
);
}
);
width = 935;
}
);
rightKerningGroup = E;
unicode = 00C6;
},
{
glyphname = B;
layers = (
{
hints = (
{
horizontal = 1;
place = "{-16, 160}";
},
{
horizontal = 1;
place = "{306, 110}";
},
{
horizontal = 1;
place = "{555, 133}";
}
);
layerId = UUID0;
paths = (
{
closed = 1;
nodes = (
"405 -16 LINE",
"293 -16 LINE",
"65 -1 LINE",
"65 688 LINE",
"409 688 LINE",
"464 688 LINE",
"558 664 LINE",
"626 621 LINE",
"665 559 LINE",
"665 521 LINE",
"665 458 LINE",
"610 382 LINE",
"556 374 LINE",
"624 368 LINE",
"696 283 LINE",
"696 209 LINE",
"696 163 LINE",
"652 81 LINE",
"574 20 LINE",
"468 -16 LINE"
);
},
{
closed = 1;
nodes = (
"477 223 LINE",
"477 243 LINE",
"461 274 LINE",
"434 295 LINE",
"396 306 LINE",
"373 306 LINE",
"287 306 LINE",
"287 145 LINE",
"298 145 LINE",
"320 145 LINE",
"330 145 LINE",
"386 145 LINE",
"405 145 LINE",
"438 155 LINE",
"462 176 LINE",
"477 205 LINE"
);
},
{
closed = 1;
nodes = (
"457 484 LINE",
"457 555 LINE",
"369 555 LINE",
"288 555 LINE",
"288 416 LINE",
"367 416 LINE",
"386 416 LINE",
"419 426 LINE",
"443 443 LINE",
"457 469 LINE"
);
}
);
width = 721;
}
);
leftKerningGroup = B;
unicode = 0042;
},
{
glyphname = C;
layers = (
{
hints = (
{
horizontal = 1;
place = "{-16, 181}";
},
{
horizontal = 1;
place = "{525, 178}";
}
);
layerId = UUID0;
paths = (
{
closed = 1;
nodes = (
"427 165 LINE",
"444 165 LINE",
"474 168 LINE",
"502 175 LINE",
"533 186 LINE",
"551 193 LINE",
"579 35 LINE",
"492 -16 LINE",
"389 -16 LINE",
"244 -16 LINE",
"141 82 LINE",
"32 184 LINE",
"31 344 LINE",
"31 422 LINE",
"84 554 LINE",
"179 649 LINE",
"308 703 LINE",
"383 703 LINE",
"490 703 LINE",
"578 653 LINE",
"551 498 LINE",
"479 525 LINE",
"421 525 LINE",
"340 525 LINE",
"255 431 LINE",
"255 345 LINE",
"255 303 LINE",
"278 236 LINE",
"322 189 LINE",
"386 165 LINE"
);
}
);
width = 604;
}
);
leftKerningGroup = C;
rightKerningGroup = C;
unicode = 0043;
},
{
glyphname = D;
layers = (
{
hints = (
{
horizontal = 1;
place = "{0, 180}";
},
{
horizontal = 1;
place = "{508, 180}";
}
);
layerId = UUID0;
paths = (
{
closed = 1;
nodes = (
"65 688 LINE",
"364 688 LINE",
"448 688 LINE",
"583 637 LINE",
"680 547 LINE",
"732 423 LINE",
"732 349 LINE",
"732 271 LINE",
"680 142 LINE",
"583 50 LINE",
"448 0 LINE",
"364 0 LINE",
"65 0 LINE"
);
},
{
closed = 1;
nodes = (
"364 180 LINE",
"402 180 LINE",
"456 212 LINE",
"491 262 LINE",
"508 322 LINE",
"508 351 LINE",
"508 385 LINE",
"487 442 LINE",
"449 484 LINE",
"396 508 LINE",
"364 508 LINE",
"286 508 LINE",
"286 180 LINE"
);
}
);
width = 764;
}
);
leftKerningGroup = B;
rightKerningGroup = D;
unicode = 0044;
},
{
glyphname = Eth;
layers = (
{
hints = (
{
horizontal = 1;
place = "{0, 180}";
},
{
horizontal = 1;
place = "{302, 85}";
},
{
horizontal = 1;
place = "{492, 180}";
}
);
layerId = UUID0;
paths = (
{
closed = 1;
nodes = (
"1 302 LINE",
"1 387 LINE",
"91 387 LINE",
"91 672 LINE",
"390 672 LINE",
"472 672 LINE",
"607 622 LINE",
"705 534 LINE",
"758 413 LINE",
"758 341 LINE",
"758 292 LINE",
"734 203 LINE",
"689 127 LINE",
"624 66 LINE",
"542 23 LINE",
"445 0 LINE",
"390 0 LINE",
"91 0 LINE",
"91 302 LINE"
);
},
{
closed = 1;
nodes = (
"390 180 LINE",
"423 180 LINE",
"477 205 LINE",
"514 250 LINE",
"534 309 LINE",
"534 343 LINE",
"534 375 LINE",
"512 431 LINE",
"474 470 LINE",
"421 492 LINE",
"390 492 LINE",
"312 492 LINE",
"312 387 LINE",
"391 387 LINE",
"391 302 LINE",
"312 302 LINE",
"312 180 LINE"
);
}
);
width = 790;
}
);
leftKerningGroup = B;
rightKerningGroup = D;
unicode = 00D0;
},
{
glyphname = Dcroat;
layers = (
{
hints = (
{
horizontal = 1;
place = "{0, 180}";
},
{
horizontal = 1;
place = "{289, 85}";
},
{
horizontal = 1;
place = "{492, 180}";
}
);
layerId = UUID0;
paths = (
{
closed = 1;
nodes = (
"38 374 LINE",
"65 374 LINE",
"65 672 LINE",
"364 672 LINE",
"446 672 LINE",
"581 623 LINE",
"679 535 LINE",
"732 413 LINE",
"732 341 LINE",
"732 201 LINE",
"640 105 LINE",
"538 0 LINE",
"364 0 LINE",
"65 0 LINE",
"65 289 LINE",
"38 289 LINE"
);
},
{
closed = 1;
nodes = (
"364 180 LINE",
"397 180 LINE",
"451 205 LINE",
"488 250 LINE",
"508 309 LINE",
"508 343 LINE",
"508 375 LINE",
"486 430 LINE",
"448 470 LINE",
"395 492 LINE",
"364 492 LINE",
"286 492 LINE",
"286 374 LINE",
"351 374 LINE",
"351 289 LINE",
"286 289 LINE",
"286 180 LINE"
);
}
);
width = 764;
}
);
leftKerningGroup = B;
rightKerningGroup = D;
unicode = 0110;
},
{
glyphname = E;
layers = (
{
hints = (
{
horizontal = 1;
place = "{0, 150}";
},
{
horizontal = 1;
place = "{285, 126}";
},
{
horizontal = 1;
place = "{536, 151}";
}
);
layerId = UUID0;
paths = (
{
closed = 1;
nodes = (
"65 688 LINE",
"548 688 LINE",
"548 536 LINE",
"308 536 LINE",
"308 411 LINE",
"527 411 LINE",
"527 285 LINE",
"308 285 LINE",
"308 150 LINE",
"548 150 LINE",
"548 0 LINE",
"65 0 LINE"
);
}
);
width = 595;
}
);
leftKerningGroup = B;
rightKerningGroup = E;
unicode = 0045;
},
{
glyphname = F;
layers = (
{
hints = (
{
horizontal = 1;
place = "{271, 127}";
},
{
horizontal = 1;
place = "{536, 151}";
},
{
horizontal = 1;
place = "{0, 21}";
target = up;
type = BottomGhost;
}
);
layerId = UUID0;
paths = (
{
closed = 1;
nodes = (
"65 688 LINE",
"539 688 LINE",
"539 536 LINE",
"280 536 LINE",
"280 397 LINE",
"520 397 LINE",
"520 271 LINE",
"280 271 LINE",
"280 0 LINE",
"65 0 LINE"
);
}
);
width = 570;
}
);
leftKerningGroup = B;
unicode = 0046;
},
{
glyphname = G;
layers = (
{
hints = (
{
horizontal = 1;
place = "{-16, 180}";
},
{
horizontal = 1;
place = "{526, 177}";
}
);
layerId = UUID0;
paths = (
{
closed = 1;
nodes = (
"540 498 LINE",
"453 526 LINE",
"403 526 LINE",
"366 526 LINE",
"310 496 LINE",
"272 446 LINE",
"252 381 LINE",
"252 347 LINE",
"252 309 LINE",
"274 242 LINE",
"314 193 LINE",
"370 164 LINE",
"403 164 LINE",
"421 164 LINE",
"443 167 LINE",
"443 329 LINE",
"616 349 LINE",
"616 36 LINE",
"499 -16 LINE",
"375 -16 LINE",
"232 -16 LINE",
"131 91 LINE",
"30 198 LINE",
"30 350 LINE",
"30 498 LINE",
"133 601 LINE",
"234 703 LINE",
"375 703 LINE",
"502 703 LINE",
"606 653 LINE"
);
}
);
width = 659;
}
);
leftKerningGroup = C;
rightKerningGroup = G;
unicode = 0047;
},
{
glyphname = H;
layers = (
{
hints = (
{
horizontal = 1;
place = "{270, 145}";
},
{
horizontal = 1;
place = "{0, 21}";
target = up;
type = BottomGhost;
},
{
horizontal = 1;
place = "{688, -20}";
target = down;
type = TopGhost;
}
);
layerId = UUID0;
paths = (
{
closed = 1;
nodes = (
"65 688 LINE",
"290 688 LINE",
"290 414 LINE",
"503 414 LINE",
"503 688 LINE",
"729 688 LINE",
"729 0 LINE",
"503 0 LINE",
"503 270 LINE",
"290 270 LINE",
"290 0 LINE",
"65 0 LINE"
);
}
);
width = 794;
}
);
leftKerningGroup = B;
rightKerningGroup = H;
unicode = 0048;
},
{
glyphname = Hbar;
layers = (
{
hints = (
{
horizontal = 1;
place = "{270, 145}";
},
{
horizontal = 1;
place = "{478, 85}";
},
{
horizontal = 1;
place = "{0, 21}";
target = up;
type = BottomGhost;
},
{
horizontal = 1;
place = "{672, -20}";
target = down;
type = TopGhost;
}
);
layerId = UUID0;
paths = (
{
closed = 1;
nodes = (
"42 563 LINE",
"70 563 LINE",
"70 672 LINE",
"295 672 LINE",
"295 563 LINE",
"508 563 LINE",
"508 672 LINE",
"733 672 LINE",
"733 563 LINE",
"763 563 LINE",
"763 478 LINE",
"733 478 LINE",
"733 0 LINE",
"508 0 LINE",
"508 270 LINE",
"295 270 LINE",
"295 0 LINE",
"70 0 LINE",
"70 478 LINE",
"42 478 LINE"
);
},
{
closed = 1;
nodes = (
"508 414 LINE",
"508 478 LINE",
"295 478 LINE",
"295 414 LINE"
);
}
);
width = 804;
}
);
leftKerningGroup = B;
rightKerningGroup = H;
unicode = 0126;
},
{
glyphname = I;
layers = (
{
hints = (
{
horizontal = 1;
place = "{0, 21}";
target = up;
type = BottomGhost;
},
{
horizontal = 1;
place = "{688, -20}";
target = down;
type = TopGhost;
}
);
layerId = UUID0;
paths = (
{
closed = 1;
nodes = (
"65 688 LINE",
"296 688 LINE",
"296 0 LINE",
"65 0 LINE"
);
}
);
width = 361;
}
);
leftKerningGroup = B;
rightKerningGroup = H;
unicode = 0049;
},
{
glyphname = J;
layers = (
{
hints = (
{
horizontal = 1;
place = "{-45, 163}";
},
{
horizontal = 1;
place = "{688, -20}";
target = down;
type = TopGhost;
}
);
layerId = UUID0;
paths = (
{
closed = 1;
nodes = (
"114 118 LINE",
"181 118 LINE",
"181 201 LINE",
"181 688 LINE",
"396 688 LINE",
"396 201 LINE",
"396 144 LINE",
"364 52 LINE",
"306 -11 LINE",
"223 -45 LINE",
"171 -45 LINE",
"78 -45 LINE",
"-1 8 LINE",
"46 132 LINE",
"85 118 LINE"
);
}
);
width = 456;
}
);
leftKerningGroup = J;
rightKerningGroup = J;
unicode = 004A;
},
{
glyphname = K;
layers = (
{
hints = (
{
horizontal = 1;
place = "{273, 134}";
},
{
horizontal = 1;
place = "{0, 21}";
target = up;
type = BottomGhost;
},
{
horizontal = 1;
place = "{688, -20}";
target = down;
type = TopGhost;
}
);
layerId = UUID0;
paths = (
{
closed = 1;
nodes = (
"65 688 LINE",
"297 688 LINE",
"297 407 LINE",
"369 407 LINE",
"502 688 LINE",
"733 688 LINE",
"733 643 LINE",
"575 347 LINE",
"756 45 LINE",
"756 0 LINE",
"513 0 LINE",
"365 273 LINE",
"297 273 LINE",
"297 0 LINE",
"65 0 LINE"
);
}
);
width = 767;
}
);
leftKerningGroup = B;
rightKerningGroup = K;
unicode = 004B;
},
{
glyphname = L;
layers = (
{
hints = (
{
horizontal = 1;
place = "{0, 147}";
},
{
horizontal = 1;
place = "{688, -20}";
target = down;
type = TopGhost;
}
);
layerId = UUID0;
paths = (
{
closed = 1;
nodes = (
"65 688 LINE",
"281 688 LINE",
"281 147 LINE",
"520 147 LINE",
"520 0 LINE",
"65 0 LINE"
);
}
);
width = 538;
}
);
leftKerningGroup = B;
rightKerningGroup = L;
unicode = 004C;
},
{
glyphname = Lslash;
layers = (
{
hints = (
{
horizontal = 1;
place = "{0, 147}";
},
{
horizontal = 1;
place = "{688, -20}";
target = down;
type = TopGhost;
}
);
layerId = UUID0;
paths = (
{
closed = 1;
nodes = (
"3 385 LINE",
"93 408 LINE",
"93 688 LINE",
"308 688 LINE",
"308 462 LINE",
"457 501 LINE",
"457 416 LINE",
"308 377 LINE",
"308 147 LINE",
"547 147 LINE",
"547 0 LINE",
"93 0 LINE",
"93 323 LINE",
"3 300 LINE"
);
}
);
width = 564;
}
);
leftKerningGroup = B;
rightKerningGroup = L;
unicode = 0141;
},
{
glyphname = M;
layers = (
{
hints = (
{
horizontal = 1;
place = "{0, 21}";
target = up;
type = BottomGhost;
},
{
horizontal = 1;
place = "{688, -20}";
target = down;
type = TopGhost;
}
);
layerId = UUID0;
paths = (
{
closed = 1;
nodes = (
"65 688 LINE",
"273 688 LINE",
"445 354 LINE",
"613 688 LINE",
"821 688 LINE",
"821 0 LINE",
"613 0 LINE",
"613 367 LINE",
"486 127 LINE",
"401 127 LINE",
"273 367 LINE",
"273 0 LINE",
"65 0 LINE"
);
}
);
width = 887;
}
);
leftKerningGroup = B;
rightKerningGroup = H;
unicode = 004D;
},
{
glyphname = N;
layers = (
{
hints = (
{
horizontal = 1;
place = "{0, 21}";
target = up;
type = BottomGhost;
},
{
horizontal = 1;
place = "{688, -20}";
target = down;
type = TopGhost;
}
);
layerId = UUID0;
paths = (
{
closed = 1;
nodes = (
"65 688 LINE",
"266 688 LINE",
"540 317 LINE",
"540 688 LINE",
"719 688 LINE",
"719 0 LINE",
"519 0 LINE",
"243 358 LINE",
"243 0 LINE",
"65 0 LINE"
);
}
);
width = 784;
}
);
leftKerningGroup = B;
rightKerningGroup = H;
unicode = 004E;
},
{
glyphname = Eng;
layers = (
{
hints = (
{
horizontal = 1;
place = "{-248, 149}";
},
{
horizontal = 1;
place = "{672, -20}";
target = down;
type = TopGhost;
},
{
horizontal = 1;
place = "{0, 21}";
target = up;
type = BottomGhost;
}
);
layerId = UUID0;
paths = (
{
closed = 1;
nodes = (
"406 -84 LINE",
"452 -99 LINE",
"476 -99 LINE",
"541 -99 LINE",
"541 -16 LINE",
"243 358 LINE",
"243 0 LINE",
"65 0 LINE",
"65 672 LINE",
"266 672 LINE",
"540 317 LINE",
"540 672 LINE",
"719 672 LINE",
"719 -16 LINE",
"719 -67 LINE",
"693 -152 LINE",
"645 -214 LINE",
"575 -248 LINE",
"531 -248 LINE",
"457 -248 LINE",
"360 -208 LINE"
);
}
);
width = 784;
}
);
leftKerningGroup = B;
rightKerningGroup = H;
unicode = 014A;
},
{
glyphname = O;
layers = (
{
hints = (
{
horizontal = 1;
place = "{-16, 182}";
},
{
horizontal = 1;
place = "{527, 175}";
}
);
layerId = UUID0;
paths = (
{
closed = 1;
nodes = (
"31 343 LINE",
"31 492 LINE",
"126 594 LINE",
"227 703 LINE",
"399 703 LINE",
"483 703 LINE",
"619 648 LINE",
"715 553 LINE",
"767 420 LINE",
"767 343 LINE",
"767 296 LINE",
"745 206 LINE",
"703 126 LINE",
"640 60 LINE",
"559 11 LINE",
"458 -16 LINE",
"399 -16 LINE",
"339 -16 LINE",
"238 12 LINE",
"156 61 LINE",
"94 128 LINE",
"52 208 LINE",
"31 296 LINE"
);
},
{
closed = 1;
nodes = (
"399 166 LINE",
"438 166 LINE",
"492 199 LINE",
"527 250 LINE",
"543 313 LINE",
"543 344 LINE",
"543 383 LINE",
"523 449 LINE",
"485 498 LINE",
"432 526 LINE",
"399 527 LINE",
"360 526 LINE",
"306 493 LINE",
"271 441 LINE",
"255 376 LINE",
"255 344 LINE",
"255 306 LINE",
"275 241 LINE",
"313 193 LINE",
"366 166 LINE"
);
}
);
width = 798;
}
);
leftKerningGroup = C;
rightKerningGroup = O;
unicode = 004F;
},
{
glyphname = Oslash;
layers = (
{
hints = (
{
horizontal = 1;
place = "{-16, 182}";
},
{
horizontal = 1;
place = "{527, 175}";
},
{
horizontal = 1;
place = "{-166, 21}";
target = up;
type = BottomGhost;
},
{
horizontal = 1;
place = "{819, -20}";
target = down;
type = TopGhost;
}
);
layerId = UUID0;
paths = (
{
closed = 1;
nodes = (
"400 703 LINE",
"416 703 LINE",
"446 701 LINE",
"461 699 LINE",
"492 819 LINE",
"560 819 LINE",
"525 685 LINE",
"580 667 LINE",
"668 604 LINE",
"732 517 LINE",
"767 407 LINE",
"767 343 LINE",
"767 295 LINE",
"746 206 LINE",
"703 126 LINE",
"641 60 LINE",
"559 11 LINE",
"459 -16 LINE",
"400 -16 LINE",
"372 -16 LINE",
"346 -13 LINE",
"307 -166 LINE",
"240 -166 LINE",
"283 0 LINE",
"226 16 LINE",
"134 79 LINE",
"68 168 LINE",
"32 279 LINE",
"32 343 LINE",
"32 492 LINE",
"126 594 LINE",
"228 703 LINE"
);
},
{
closed = 1;
nodes = (
"417 525 LINE",
"416 525 LINE",
"408 526 LINE",
"400 527 LINE",
"364 527 LINE",
"310 496 LINE",
"273 445 LINE",
"255 379 LINE",
"255 344 LINE",
"255 289 LINE",
"294 207 LINE",
"330 185 LINE"
);
},
{
closed = 1;
nodes = (
"400 166 LINE",
"438 166 LINE",
"493 199 LINE",
"527 250 LINE",
"543 313 LINE",
"543 344 LINE",
"543 397 LINE",
"509 477 LINE",
"478 500 LINE",
"392 166 LINE"
);
}
);
width = 799;
}
);
leftKerningGroup = C;
rightKerningGroup = O;
unicode = 00D8;
},
{
glyphname = OE;
layers = (
{
hints = (
{
horizontal = 1;
place = "{-16, 181}";
},
{
horizontal = 1;
place = "{0, 150}";
},
{
horizontal = 1;
place = "{285, 126}";
},
{
horizontal = 1;
place = "{513, 159}";
},
{
horizontal = 1;
place = "{513, 178}";
}
);
layerId = UUID0;
paths = (
{
closed = 1;
nodes = (
"348 690 LINE",
"369 690 LINE",
"407 684 LINE",
"443 672 LINE",
"479 653 LINE",
"498 642 LINE",
"498 672 LINE",
"977 672 LINE",
"977 521 LINE",
"736 521 LINE",
"736 411 LINE",
"956 411 LINE",
"956 285 LINE",
"736 285 LINE",
"736 150 LINE",
"977 150 LINE",
"977 0 LINE",
"495 0 LINE",
"495 29 LINE",
"409 -16 LINE",
"340 -16 LINE",
"198 -16 LINE",
"110 98 LINE",
"31 201 LINE",
"31 338 LINE",
"31 379 LINE",
"51 463 LINE",
"89 542 LINE",
"145 610 LINE",
"215 661 LINE",
"299 690 LINE"
);
},
{
closed = 1;
nodes = (
"365 165 LINE",
"438 165 LINE",
"495 180 LINE",
"495 497 LINE",
"424 513 LINE",
"365 513 LINE",
"341 513 LINE",
"300 487 LINE",
"271 442 LINE",
"255 377 LINE",
"255 339 LINE",
"255 304 LINE",
"268 241 LINE",
"295 193 LINE",
"337 165 LINE"
);
}
);
width = 1024;
}
);
leftKerningGroup = C;
rightKerningGroup = E;
unicode = 0152;
},
{
glyphname = P;
layers = (
{
hints = (
{
horizontal = 1;
place = "{235, 139}";
},
{
horizontal = 1;
place = "{544, 144}";
},
{
horizontal = 1;
place = "{0, 21}";
target = up;
type = BottomGhost;
}
);
layerId = UUID0;
paths = (
{
closed = 1;
nodes = (
"65 688 LINE",
"313 688 LINE",
"391 688 LINE",
"511 657 LINE",
"593 599 LINE",
"636 514 LINE",
"636 460 LINE",
"636 407 LINE",
"587 324 LINE",
"502 266 LINE",
"388 235 LINE",
"323 235 LINE",
"281 235 LINE",
"281 0 LINE",
"65 0 LINE"
);
},
{
closed = 1;
nodes = (
"324 374 LINE",
"376 374 LINE",
"435 417 LINE",
"435 460 LINE",
"435 481 LINE",
"417 512 LINE",
"388 533 LINE",
"348 544 LINE",
"324 544 LINE",
"281 544 LINE",
"281 376 LINE",
"288 375 LINE",
"310 374 LINE"
);
}
);
width = 649;
}
);
leftKerningGroup = B;
unicode = 0050;
},
{
glyphname = Thorn;
layers = (
{
hints = (
{
horizontal = 1;
place = "{166, 139}";
},
{
horizontal = 1;
place = "{475, 144}";
},
{
horizontal = 1;
place = "{0, 21}";
target = up;
type = BottomGhost;
},
{
horizontal = 1;
place = "{688, -20}";
target = down;
type = TopGhost;
}
);
layerId = UUID0;
paths = (
{
closed = 1;
nodes = (
"65 688 LINE",
"280 688 LINE",
"280 618 LINE",
"313 618 LINE",
"391 618 LINE",
"511 588 LINE",
"593 529 LINE",
"636 445 LINE",
"636 391 LINE",
"636 339 LINE",
"588 256 LINE",
"504 197 LINE",
"389 166 LINE",
"322 166 LINE",
"280 166 LINE",
"280 0 LINE",
"65 0 LINE"
);
},
{
closed = 1;
nodes = (
"323 305 LINE",
"374 305 LINE",
"435 348 LINE",
"435 391 LINE",
"435 411 LINE",
"417 442 LINE",
"387 463 LINE",
"347 475 LINE",
"323 475 LINE",
"280 475 LINE",
"280 307 LINE",
"288 306 LINE",
"309 305 LINE"
);
}
);
width = 651;
}
);
leftKerningGroup = B;
unicode = 00DE;
},
{
glyphname = Q;
layers = (
{
hints = (
{
horizontal = 1;
place = "{-16, 181}";
},
{
horizontal = 1;
place = "{525, 178}";
},
{
horizontal = 1;
place = "{-159, 21}";
target = up;
type = BottomGhost;
}
);
layerId = UUID0;
paths = (
{
closed = 1;
nodes = (
"767 -61 LINE",
"641 -159 LINE",
"420 -14 LINE",
"415 -15 LINE",
"404 -16 LINE",
"398 -16 LINE",
"279 -16 LINE",
"198 35 LINE",
"159 59 LINE",
"97 125 LINE",
"53 205 LINE",
"30 296 LINE",
"30 345 LINE",
"30 488 LINE",
"123 590 LINE",
"226 703 LINE",
"398 703 LINE",
"458 703 LINE",
"560 675 LINE",
"641 627 LINE",
"704 560 LINE",
"745 480 LINE",
"767 391 LINE",
"767 345 LINE",
"767 304 LINE",
"750 225 LINE",
"718 151 LINE",
"670 87 LINE",
"639 61 LINE",
"767 -23 LINE"
);
},
{
closed = 1;
nodes = (
"398 165 LINE",
"437 165 LINE",
"491 198 LINE",
"526 250 LINE",
"542 314 LINE",
"542 345 LINE",
"542 383 LINE",
"522 449 LINE",
"485 498 LINE",
"432 525 LINE",
"398 525 LINE",
"359 525 LINE",
"305 491 LINE",
"271 439 LINE",
"255 375 LINE",
"255 345 LINE",
"255 307 LINE",
"275 242 LINE",
"313 193 LINE",
"366 165 LINE"
);
}
);
width = 798;
}
);
leftKerningGroup = C;
rightKerningGroup = O;
unicode = 0051;
},
{
glyphname = R;
layers = (
{
hints = (
{
horizontal = 1;
place = "{-16, 177}";
},
{
horizontal = 1;
place = "{539, 148}";
},
{
horizontal = 1;
place = "{0, 21}";
target = up;
type = BottomGhost;
}
);
layerId = UUID0;
paths = (
{
closed = 1;
nodes = (
"678 2 LINE",
"614 -16 LINE",
"586 -16 LINE",
"405 -16 LINE",
"358 149 LINE",
"331 261 LINE",
"284 261 LINE",
"284 0 LINE",
"65 0 LINE",
"65 688 LINE",
"371 688 LINE",
"431 688 LINE",
"535 661 LINE",
"613 609 LINE",
"657 534 LINE",
"657 485 LINE",
"657 449 LINE",
"639 392 LINE",
"605 347 LINE",
"556 312 LINE",
"524 298 LINE",
"529 274 LINE",
"530 266 LINE",
"533 254 LINE",
"534 250 LINE",
"540 229 LINE",
"545 210 LINE",
"561 185 LINE",
"584 168 LINE",
"619 161 LINE",
"644 161 LINE",
"647 161 LINE",
"665 163 LINE",
"678 165 LINE"
);
},
{
closed = 1;
nodes = (
"457 476 LINE",
"457 495 LINE",
"441 520 LINE",
"413 534 LINE",
"375 539 LINE",
"353 539 LINE",
"284 539 LINE",
"284 401 LINE",
"322 401 LINE",
"354 403 LINE",
"374 404 LINE",
"410 412 LINE",
"439 428 LINE",
"457 455 LINE"
);
}
);
width = 698;
}
);
leftKerningGroup = B;
rightKerningGroup = R;
unicode = 0052;
},
{
glyphname = S;
layers = (
{
hints = (
{
horizontal = 1;
place = "{-16, 168}";
},
{
horizontal = 1;
place = "{537, 167}";
}
);
layerId = UUID0;
paths = (
{
closed = 1;
nodes = (
"563 225 LINE",
"563 163 LINE",
"525 73 LINE",
"455 14 LINE",
"353 -16 LINE",
"288 -16 LINE",
"145 -16 LINE",
"37 36 LINE",
"67 110 LINE",
"84 172 LINE",
"87 182 LINE",
"90 189 LINE",
"163 171 LINE",
"176 168 LINE",
"207 162 LINE",
"237 156 LINE",
"264 152 LINE",
"274 152 LINE",
"291 152 LINE",
"322 155 LINE",
"345 164 LINE",
"359 180 LINE",
"359 194 LINE",
"359 211 LINE",
"327 235 LINE",
"279 253 LINE",
"221 269 LINE",
"196 277 LINE",
"162 288 LINE",
"102 325 LINE",
"59 376 LINE",
"34 441 LINE",
"34 480 LINE",
"34 703 LINE",
"302 703 LINE",
"429 703 LINE",
"538 650 LINE",
"484 501 LINE",
"437 513 LINE",
"382 527 LINE",
"349 534 LINE",
"329 536 LINE",
"318 536 LINE",
"302 536 LINE",
"296 536 LINE",
"289 537 LINE",
"286 537 LINE",
"264 537 LINE",
"240 523 LINE",
"240 503 LINE",
"240 472 LINE",
"294 456 LINE",
"426 425 LINE",
"563 308 LINE"
);
}
);
width = 592;
}
);
leftKerningGroup = S;
rightKerningGroup = S;
unicode = 0053;
},
{
glyphname = T;
layers = (
{
hints = (
{
horizontal = 1;
place = "{542, 146}";
},
{
horizontal = 1;
place = "{0, 21}";
target = up;
type = BottomGhost;
}
);
layerId = UUID0;
paths = (
{
closed = 1;
nodes = (
"172 542 LINE",
"29 542 LINE",
"29 688 LINE",
"548 688 LINE",
"548 542 LINE",
"405 542 LINE",
"405 0 LINE",
"172 0 LINE"
);
}
);
width = 577;
}
);
leftKerningGroup = T;
rightKerningGroup = T;
unicode = 0054;
},
{
glyphname = Tbar;
layers = (
{
hints = (
{
horizontal = 1;
place = "{253, 85}";
},
{
horizontal = 1;
place = "{526, 146}";
},
{
horizontal = 1;
place = "{0, 21}";
target = up;
type = BottomGhost;
}
);
layerId = UUID0;
paths = (
{
closed = 1;
nodes = (
"177 253 LINE",
"105 253 LINE",
"105 338 LINE",
"177 338 LINE",
"177 526 LINE",
"34 526 LINE",
"34 672 LINE",
"553 672 LINE",
"553 526 LINE",
"410 526 LINE",
"410 338 LINE",
"481 338 LINE",
"481 253 LINE",
"410 253 LINE",
"410 0 LINE",
"177 0 LINE"
);
}
);
width = 587;
}
);
leftKerningGroup = T;
rightKerningGroup = T;
unicode = 0166;
},
{
glyphname = U;
layers = (
{
hints = (
{
horizontal = 1;
place = "{-16, 181}";
},
{
horizontal = 1;
place = "{688, -20}";
target = down;
type = TopGhost;
}
);
layerId = UUID0;
paths = (
{
closed = 1;
nodes = (
"399 165 LINE",
"455 165 LINE",
"513 226 LINE",
"513 285 LINE",
"513 688 LINE",
"739 688 LINE",
"739 285 LINE",
"739 232 LINE",
"711 147 LINE",
"663 80 LINE",
"597 31 LINE",
"521 0 LINE",
"439 -16 LINE",
"399 -16 LINE",
"260 -16 LINE",
"163 61 LINE",
"59 142 LINE",
"59 285 LINE",
"59 688 LINE",
"285 688 LINE",
"285 285 LINE",
"285 165 LINE"
);
}
);
width = 798;
}
);
leftKerningGroup = U;
rightKerningGroup = U;
unicode = 0055;
},
{
glyphname = V;
layers = (
{
hints = (
{
horizontal = 1;
place = "{0, 21}";
target = up;
type = BottomGhost;
},
{
horizontal = 1;
place = "{688, -20}";
target = down;
type = TopGhost;
}
);
layerId = UUID0;
paths = (
{
closed = 1;
nodes = (
"2 688 LINE",
"228 688 LINE",
"334 259 LINE",
"440 688 LINE",
"676 688 LINE",
"461 0 LINE",
"206 0 LINE"
);
}
);
width = 672;
}
);
unicode = 0056;
},
{
glyphname = W;
layers = (
{
hints = (
{
horizontal = 1;
place = "{0, 21}";
target = up;
type = BottomGhost;
},
{
horizontal = 1;
place = "{688, -20}";
target = down;
type = TopGhost;
}
);
layerId = UUID0;
paths = (
{
closed = 1;
nodes = (
"21 688 LINE",
"246 688 LINE",
"311 249 LINE",
"378 571 LINE",
"611 571 LINE",
"679 249 LINE",
"744 688 LINE",
"969 688 LINE",
"813 0 LINE",
"580 0 LINE",
"495 370 LINE",
"410 0 LINE",
"177 0 LINE"
);
}
);
width = 990;
}
);
leftKerningGroup = W;
rightKerningGroup = W;
unicode = 0057;
},
{
glyphname = X;
layers = (
{
hints = (
{
horizontal = 1;
place = "{0, 21}";
target = up;
type = BottomGhost;
},
{
horizontal = 1;
place = "{688, -20}";
target = down;
type = TopGhost;
}
);
layerId = UUID0;
paths = (
{
closed = 1;
nodes = (
"191 342 LINE",
"6 688 LINE",
"233 688 LINE",
"314 514 LINE",
"395 688 LINE",
"626 688 LINE",
"440 342 LINE",
"632 0 LINE",
"401 0 LINE",
"314 171 LINE",
"227 0 LINE",
"0 0 LINE"
);
}
);
width = 633;
}
);
unicode = 0058;
},
{
glyphname = Y;
layers = (
{
hints = (
{
horizontal = 1;
place = "{0, 21}";
target = up;
type = BottomGhost;
},
{
horizontal = 1;
place = "{688, -20}";
target = down;
type = TopGhost;
}
);
layerId = UUID0;
paths = (
{
closed = 1;
nodes = (
"195 191 LINE",
"-3 688 LINE",
"206 688 LINE",
"303 379 LINE",
"398 688 LINE",
"618 688 LINE",
"410 191 LINE",
"410 0 LINE",
"195 0 LINE"
);
}
);
width = 612;
}
);
leftKerningGroup = Y;
rightKerningGroup = Y;
unicode = 0059;
},
{
glyphname = Z;
layers = (
{
hints = (
{
horizontal = 1;
place = "{0, 145}";
},
{
horizontal = 1;
place = "{542, 146}";
}
);
layerId = UUID0;
paths = (
{
closed = 1;
nodes = (
"36 145 LINE",
"271 542 LINE",
"45 542 LINE",
"45 688 LINE",
"495 688 LINE",
"495 542 LINE",
"265 145 LINE",
"505 145 LINE",
"505 0 LINE",
"36 0 LINE"
);
}
);
width = 541;
}
);
leftKerningGroup = Z;
rightKerningGroup = Z;
unicode = 005A;
},
{
glyphname = a;
layers = (
{
hints = (
{
horizontal = 1;
place = "{-8, 158}";
},
{
horizontal = 1;
place = "{350, 159}";
},
{
horizontal = 1;
place = "{0, 21}";
target = up;
type = BottomGhost;
}
);
layerId = UUID0;
paths = (
{
closed = 1;
nodes = (
"435 93 LINE",
"411 44 LINE",
"331 -8 LINE",
"271 -8 LINE",
"222 -8 LINE",
"133 32 LINE",
"65 102 LINE",
"25 197 LINE",
"25 253 LINE",
"25 309 LINE",
"66 403 LINE",
"134 471 LINE",
"222 508 LINE",
"271 508 LINE",
"295 508 LINE",
"344 495 LINE",
"387 466 LINE",
"423 422 LINE",
"435 392 LINE",
"435 508 LINE",
"645 508 LINE",
"645 0 LINE",
"435 0 LINE"
);
},
{
closed = 1;
nodes = (
"435 254 LINE",
"434 273 LINE",
"417 309 LINE",
"390 334 LINE",
"355 350 LINE",
"336 350 LINE",
"314 350 LINE",
"278 333 LINE",
"251 307 LINE",
"235 271 LINE",
"235 250 LINE",
"235 229 LINE",
"252 192 LINE",
"280 166 LINE",
"316 150 LINE",
"336 150 LINE",
"356 150 LINE",
"392 166 LINE",
"418 192 LINE",
"434 227 LINE",
"435 246 LINE"
);
}
);
width = 696;
}
);
leftKerningGroup = a;
rightKerningGroup = a;
unicode = 0061;
},
{
glyphname = ae;
layers = (
{
hints = (
{
horizontal = 1;
place = "{-16, 144}";
},
{
horizontal = 1;
place = "{350, 166}";
},
{
horizontal = 1;
place = "{387, 129}";
},
{
horizontal = 1;
place = "{-16, 166}";
}
);
layerId = UUID0;
paths = (
{
closed = 1;
nodes = (
"1013 25 LINE",
"908 -16 LINE",
"780 -16 LINE",
"761 -16 LINE",
"723 -8 LINE",
"684 7 LINE",
"646 29 LINE",
"630 44 LINE",
"630 0 LINE",
"435 -16 LINE",
"435 93 LINE",
"423 68 LINE",
"391 28 LINE",
"350 0 LINE",
"300 -16 LINE",
"270 -16 LINE",
"221 -16 LINE",
"132 26 LINE",
"65 99 LINE",
"25 197 LINE",
"25 253 LINE",
"25 309 LINE",
"66 405 LINE",
"134 476 LINE",
"222 516 LINE",
"271 516 LINE",
"295 516 LINE",
"344 500 LINE",
"387 469 LINE",
"423 422 LINE",
"435 392 LINE",
"435 516 LINE",
"630 501 LINE",
"630 457 LINE",
"693 516 LINE",
"788 516 LINE",
"844 516 LINE",
"935 479 LINE",
"999 412 LINE",
"1034 319 LINE",
"1034 263 LINE",
"1034 256 LINE",
"1033 243 LINE",
"1032 237 LINE",
"703 198 LINE",
"729 128 LINE",
"827 128 LINE",
"904 128 LINE",
"989 163 LINE"
);
},
{
closed = 1;
nodes = (
"435 254 LINE",
"434 273 LINE",
"417 309 LINE",
"390 334 LINE",
"355 350 LINE",
"336 350 LINE",
"314 350 LINE",
"278 333 LINE",
"251 307 LINE",
"235 271 LINE",
"235 250 LINE",
"235 229 LINE",
"252 192 LINE",
"280 166 LINE",
"316 150 LINE",
"336 150 LINE",
"356 150 LINE",
"392 166 LINE",
"418 192 LINE",
"434 227 LINE",
"435 246 LINE"
);
},
{
closed = 1;
nodes = (
"878 324 LINE",
"869 354 LINE",
"822 387 LINE",
"788 387 LINE",
"745 387 LINE",
"695 334 LINE",
"694 290 LINE"
);
}
);
width = 1056;
}
);
leftKerningGroup = a;
rightKerningGroup = e;
unicode = 00E6;
},
{
glyphname = b;
layers = (
{
hints = (
{
horizontal = 1;
place = "{0, 150}";
},
{
horizontal = 1;
place = "{350, 159}";
},
{
horizontal = 1;
place = "{-8, 21}";
target = up;
type = BottomGhost;
},
{
horizontal = 1;
place = "{690, -20}";
target = down;
type = TopGhost;
}
);
layerId = UUID0;
paths = (
{
closed = 1;
nodes = (
"427 -8 LINE",
"312 -8 LINE",
"264 93 LINE",
"264 0 LINE",
"52 0 LINE",
"52 659 LINE",
"264 690 LINE",
"264 407 LINE",
"290 461 LINE",
"370 508 LINE",
"426 508 LINE",
"477 508 LINE",
"566 469 LINE",
"633 400 LINE",
"671 306 LINE",
"671 250 LINE",
"671 194 LINE",
"631 100 LINE",
"564 31 LINE",
"476 -8 LINE"
);
},
{
closed = 1;
nodes = (
"264 250 LINE",
"264 229 LINE",
"280 192 LINE",
"307 166 LINE",
"343 150 LINE",
"363 150 LINE",
"384 150 LINE",
"420 167 LINE",
"447 194 LINE",
"462 230 LINE",
"462 250 LINE",
"462 271 LINE",
"446 308 LINE",
"419 334 LINE",
"383 350 LINE",
"363 350 LINE",
"342 350 LINE",
"307 334 LINE",
"280 308 LINE",
"265 273 LINE",
"264 254 LINE"
);
}
);
width = 697;
}
);
rightKerningGroup = b;
unicode = 0062;
},
{
glyphname = c;
layers = (
{
hints = (
{
horizontal = 1;
place = "{-8, 155}";
},
{
horizontal = 1;
place = "{352, 157}";
}
);
layerId = UUID0;
paths = (
{
closed = 1;
nodes = (
"431 335 LINE",
"378 352 LINE",
"333 352 LINE",
"310 352 LINE",
"273 337 LINE",
"248 311 LINE",
"233 273 LINE",
"233 250 LINE",
"233 227 LINE",
"248 189 LINE",
"274 162 LINE",
"312 147 LINE",
"335 147 LINE",
"379 147 LINE",
"429 164 LINE",
"448 24 LINE",
"411 5 LINE",
"339 -8 LINE",
"297 -8 LINE",
"238 -8 LINE",
"138 29 LINE",
"66 97 LINE",
"25 192 LINE",
"25 250 LINE",
"25 308 LINE",
"69 403 LINE",
"144 471 LINE",
"243 508 LINE",
"297 508 LINE",
"321 508 LINE",
"359 505 LINE",
"395 496 LINE",
"430 480 LINE",
"450 468 LINE"
);
}
);
width = 472;
}
);
leftKerningGroup = c;
rightKerningGroup = c;
unicode = 0063;
},
{
glyphname = d;
layers = (
{
hints = (
{
horizontal = 1;
place = "{-8, 158}";
},
{
horizontal = 1;
place = "{350, 159}";
},
{
horizontal = 1;
place = "{0, 21}";
target = up;
type = BottomGhost;
},
{
horizontal = 1;
place = "{690, -20}";
target = down;
type = TopGhost;
}
);
layerId = UUID0;
paths = (
{
closed = 1;
nodes = (
"270 508 LINE",
"327 508 LINE",
"409 461 LINE",
"434 407 LINE",
"434 659 LINE",
"645 690 LINE",
"645 0 LINE",
"434 0 LINE",
"434 93 LINE",
"411 42 LINE",
"330 -8 LINE",
"269 -8 LINE",
"217 -8 LINE",
"128 35 LINE",
"63 106 LINE",
"26 199 LINE",
"26 250 LINE",
"26 305 LINE",
"65 399 LINE",
"133 469 LINE",
"221 508 LINE"
);
},
{
closed = 1;
nodes = (
"434 254 LINE",
"433 273 LINE",
"417 309 LINE",
"390 334 LINE",
"354 350 LINE",
"335 350 LINE",
"314 350 LINE",
"277 333 LINE",
"251 306 LINE",
"236 270 LINE",
"236 250 LINE",
"236 229 LINE",
"252 192 LINE",
"279 166 LINE",
"315 150 LINE",
"335 150 LINE",
"356 150 LINE",
"393 167 LINE",
"419 194 LINE",
"434 230 LINE",
"434 250 LINE"
);
}
);
width = 697;
}
);
leftKerningGroup = a;
unicode = 0064;
},
{
glyphname = eth;
layers = (
{
hints = (
{
horizontal = 1;
place = "{-16, 163}";
},
{
horizontal = 1;
place = "{290, 140}";
},
{
horizontal = 1;
place = "{527, 176}";
}
);
layerId = UUID0;
paths = (
{
closed = 1;
nodes = (
"571 539 LINE",
"616 451 LINE",
"616 337 LINE",
"616 257 LINE",
"572 127 LINE",
"491 35 LINE",
"378 -16 LINE",
"309 -16 LINE",
"243 -16 LINE",
"135 19 LINE",
"58 80 LINE",
"16 166 LINE",
"16 217 LINE",
"16 268 LINE",
"51 347 LINE",
"116 401 LINE",
"207 430 LINE",
"264 430 LINE",
"339 430 LINE",
"395 385 LINE",
"387 438 LINE",
"372 468 LINE",
"300 442 LINE",
"278 499 LINE",
"329 517 LINE",
"308 527 LINE",
"283 527 LINE",
"220 527 LINE",
"117 501 LINE",
"64 649 LINE",
"190 703 LINE",
"309 703 LINE",
"452 703 LINE",
"538 591 LINE",
"609 616 LINE",
"631 560 LINE"
);
},
{
closed = 1;
nodes = (
"309 147 LINE",
"330 147 LINE",
"360 168 LINE",
"379 203 LINE",
"391 250 LINE",
"394 275 LINE",
"354 290 LINE",
"304 290 LINE",
"287 290 LINE",
"258 280 LINE",
"237 261 LINE",
"225 233 LINE",
"225 217 LINE",
"225 201 LINE",
"237 175 LINE",
"259 157 LINE",
"290 147 LINE"
);
}
);
width = 646;
}
);
unicode = 00F0;
},
{
glyphname = dslash;
layers = (
{
hints = (
{
horizontal = 1;
place = "{-16, 166}";
},
{
horizontal = 1;
place = "{0, 150}";
},
{
horizontal = 1;
place = "{350, 166}";
},
{
horizontal = 1;
place = "{540, 85}";
},
{
horizontal = 1;
place = "{690, -20}";
target = down;
type = TopGhost;
}
);
layerId = UUID0;
paths = (
{
closed = 1;
nodes = (
"270 516 LINE",
"383 516 LINE",
"434 407 LINE",
"434 540 LINE",
"365 540 LINE",
"365 625 LINE",
"434 625 LINE",
"434 659 LINE",
"645 690 LINE",
"645 625 LINE",
"677 625 LINE",
"677 540 LINE",
"645 540 LINE",
"645 0 LINE",
"434 0 LINE",
"434 93 LINE",
"411 43 LINE",
"329 -16 LINE",
"269 -16 LINE",
"176 -16 LINE",
"104 57 LINE",
"26 135 LINE",
"26 250 LINE",
"26 305 LINE",
"65 402 LINE",
"133 474 LINE",
"221 516 LINE"
);
},
{
closed = 1;
nodes = (
"434 254 LINE",
"433 273 LINE",
"417 309 LINE",
"390 334 LINE",
"354 350 LINE",
"335 350 LINE",
"314 350 LINE",
"277 333 LINE",
"251 306 LINE",
"236 270 LINE",
"236 250 LINE",
"236 229 LINE",
"252 192 LINE",
"279 166 LINE",
"315 150 LINE",
"335 150 LINE",
"356 150 LINE",
"393 167 LINE",
"419 194 LINE",
"434 230 LINE",
"434 250 LINE"
);
}
);
width = 697;
}
);
leftKerningGroup = a;
unicode = 0111;
},
{
glyphname = e;
layers = (
{
hints = (
{
horizontal = 1;
place = "{-8, 140}";
},
{
horizontal = 1;
place = "{387, 122}";
}
);
layerId = UUID0;
paths = (
{
closed = 1;
nodes = (
"341 132 LINE",
"409 132 LINE",
"488 167 LINE",
"513 33 LINE",
"422 -8 LINE",
"309 -8 LINE",
"246 -8 LINE",
"142 31 LINE",
"67 100 LINE",
"25 194 LINE",
"25 250 LINE",
"25 309 LINE",
"69 404 LINE",
"144 472 LINE",
"245 508 LINE",
"302 508 LINE",
"359 508 LINE",
"446 470 LINE",
"504 403 LINE",
"533 313 LINE",
"533 263 LINE",
"533 256 LINE",
"532 243 LINE",
"531 237 LINE",
"231 198 LINE",
"243 163 LINE",
"298 132 LINE"
);
},
{
closed = 1;
nodes = (
"378 324 LINE",
"361 387 LINE",
"302 387 LINE",
"283 387 LINE",
"254 372 LINE",
"234 346 LINE",
"223 311 LINE",
"223 290 LINE"
);
}
);
width = 556;
}
);
leftKerningGroup = c;
rightKerningGroup = e;
unicode = 0065;
},
{
glyphname = f;
layers = (
{
hints = (
{
horizontal = 1;
place = "{377, 124}";
},
{
horizontal = 1;
place = "{617, 150}";
},
{
horizontal = 1;
place = "{0, 21}";
target = up;
type = BottomGhost;
}
);
layerId = UUID0;
paths = (
{
closed = 1;
nodes = (
"330 617 LINE",
"301 617 LINE",
"268 588 LINE",
"268 561 LINE",
"268 534 LINE",
"285 501 LINE",
"425 501 LINE",
"425 377 LINE",
"299 377 LINE",
"299 0 LINE",
"88 0 LINE",
"88 377 LINE",
"25 377 LINE",
"25 501 LINE",
"88 501 LINE",
"88 571 LINE",
"108 671 LINE",
"152 737 LINE",
"221 768 LINE",
"271 768 LINE",
"348 768 LINE",
"434 729 LINE",
"427 594 LINE",
"370 617 LINE"
);
}
);
width = 435;
}
);
leftKerningGroup = f;
unicode = 0066;
},
{
glyphname = g;
layers = (
{
hints = (
{
horizontal = 1;
place = "{-229, 153}";
},
{
horizontal = 1;
place = "{0, 150}";
},
{
horizontal = 1;
place = "{350, 159}";
}
);
layerId = UUID0;
paths = (
{
closed = 1;
nodes = (
"448 83 LINE",
"390 0 LINE",
"268 0 LINE",
"220 0 LINE",
"132 38 LINE",
"65 106 LINE",
"26 199 LINE",
"26 253 LINE",
"26 311 LINE",
"67 404 LINE",
"134 472 LINE",
"221 508 LINE",
"267 508 LINE",
"298 508 LINE",
"352 492 LINE",
"395 461 LINE",
"426 418 LINE",
"433 392 LINE",
"433 508 LINE",
"644 508 LINE",
"644 127 LINE",
"644 45 LINE",
"607 -87 LINE",
"531 -180 LINE",
"414 -229 LINE",
"333 -229 LINE",
"310 -229 LINE",
"257 -225 LINE",
"228 -220 LINE",
"244 -70 LINE",
"292 -76 LINE",
"312 -76 LINE",
"350 -76 LINE",
"397 -52 LINE",
"427 -9 LINE",
"442 49 LINE"
);
},
{
closed = 1;
nodes = (
"433 254 LINE",
"432 273 LINE",
"415 308 LINE",
"388 334 LINE",
"353 350 LINE",
"333 350 LINE",
"312 350 LINE",
"275 333 LINE",
"249 306 LINE",
"234 270 LINE",
"234 250 LINE",
"234 226 LINE",
"252 189 LINE",
"281 164 LINE",
"316 150 LINE",
"333 150 LINE",
"354 150 LINE",
"389 166 LINE",
"416 192 LINE",
"432 227 LINE",
"433 246 LINE"
);
}
);
width = 695;
}
);
leftKerningGroup = a;
rightKerningGroup = g;
unicode = 0067;
},
{
glyphname = h;
layers = (
{
hints = (
{
horizontal = 1;
place = "{350, 159}";
},
{
horizontal = 1;
place = "{0, 21}";
target = up;
type = BottomGhost;
},
{
horizontal = 1;
place = "{690, -20}";
target = down;
type = TopGhost;
}
);
layerId = UUID0;
paths = (
{
closed = 1;
nodes = (
"52 659 LINE",
"263 690 LINE",
"263 390 LINE",
"289 452 LINE",
"372 508 LINE",
"428 508 LINE",
"474 508 LINE",
"552 472 LINE",
"610 405 LINE",
"643 311 LINE",
"643 254 LINE",
"643 0 LINE",
"433 0 LINE",
"433 250 LINE",
"433 269 LINE",
"422 305 LINE",
"404 333 LINE",
"378 350 LINE",
"363 350 LINE",
"341 350 LINE",
"305 333 LINE",
"278 303 LINE",
"263 265 LINE",
"263 243 LINE",
"263 0 LINE",
"52 0 LINE"
);
}
);
width = 690;
}
);
rightKerningGroup = h;
unicode = 0068;
},
{
glyphname = hbar;
layers = (
{
hints = (
{
horizontal = 1;
place = "{350, 166}";
},
{
horizontal = 1;
place = "{540, 85}";
},
{
horizontal = 1;
place = "{0, 21}";
target = up;
type = BottomGhost;
},
{
horizontal = 1;
place = "{690, -20}";
target = down;
type = TopGhost;
}
);
layerId = UUID0;
paths = (
{
closed = 1;
nodes = (
"-7 625 LINE",
"52 625 LINE",
"52 659 LINE",
"263 690 LINE",
"263 625 LINE",
"368 625 LINE",
"368 540 LINE",
"263 540 LINE",
"263 390 LINE",
"289 451 LINE",
"372 516 LINE",
"428 516 LINE",
"474 516 LINE",
"552 477 LINE",
"610 407 LINE",
"643 311 LINE",
"643 254 LINE",
"643 0 LINE",
"433 0 LINE",
"433 250 LINE",
"433 269 LINE",
"422 305 LINE",
"404 333 LINE",
"378 350 LINE",
"363 350 LINE",
"341 350 LINE",
"305 333 LINE",
"278 303 LINE",
"263 265 LINE",
"263 243 LINE",
"263 0 LINE",
"52 0 LINE",
"52 540 LINE",
"-7 540 LINE"
);
}
);
width = 690;
}
);
rightKerningGroup = h;
unicode = 0127;
},
{
glyphname = i;
layers = (
{
hints = (
{
horizontal = 1;
place = "{-8, 162}";
},
{
horizontal = 1;
place = "{565, 202}";
},
{
horizontal = 1;
place = "{501, -20}";
target = down;
type = TopGhost;
}
);
layerId = UUID0;
paths = (
{
closed = 1;
nodes = (
"44 667 LINE",
"44 689 LINE",
"63 726 LINE",
"95 753 LINE",
"136 768 LINE",
"158 768 LINE",
"183 768 LINE",
"225 750 LINE",
"254 721 LINE",
"270 685 LINE",
"270 667 LINE",
"270 645 LINE",
"251 607 LINE",
"220 581 LINE",
"180 565 LINE",
"158 565 LINE",
"134 565 LINE",
"92 581 LINE",
"62 609 LINE",
"44 646 LINE"
);
},
{
closed = 1;
nodes = (
"357 26 LINE",
"298 -8 LINE",
"226 -8 LINE",
"184 -8 LINE",
"117 21 LINE",
"72 73 LINE",
"48 147 LINE",
"48 192 LINE",
"48 501 LINE",
"260 501 LINE",
"260 202 LINE",
"260 178 LINE",
"286 154 LINE",
"305 154 LINE",
"325 154 LINE",
"346 166 LINE"
);
}
);
width = 365;
}
);
rightKerningGroup = i;
unicode = 0069;
},
{
glyphname = dotlessi;
layers = (
{
hints = (
{
horizontal = 1;
place = "{-16, 162}";
},
{
horizontal = 1;
place = "{501, -20}";
target = down;
type = TopGhost;
}
);
layerId = UUID0;
paths = (
{
closed = 1;
nodes = (
"357 19 LINE",
"298 -16 LINE",
"226 -16 LINE",
"184 -16 LINE",
"117 13 LINE",
"72 65 LINE",
"48 139 LINE",
"48 185 LINE",
"48 501 LINE",
"260 501 LINE",
"260 194 LINE",
"260 170 LINE",
"286 146 LINE",
"305 146 LINE",
"325 146 LINE",
"346 158 LINE"
);
}
);
width = 365;
}
);
rightKerningGroup = i;
unicode = 0131;
},
{
glyphname = j;
layers = (
{
hints = (
{
horizontal = 1;
place = "{-216, 162}";
},
{
horizontal = 1;
place = "{565, 202}";
},
{
horizontal = 1;
place = "{501, -20}";
target = down;
type = TopGhost;
}
);
layerId = UUID0;
paths = (
{
closed = 1;
nodes = (
"-14 -54 LINE",
"52 -54 LINE",
"52 29 LINE",
"52 501 LINE",
"263 501 LINE",
"263 29 LINE",
"263 -28 LINE",
"232 -119 LINE",
"175 -182 LINE",
"93 -216 LINE",
"42 -216 LINE",
"-50 -216 LINE",
"-129 -163 LINE",
"-83 -39 LINE",
"-38 -54 LINE"
);
},
{
closed = 1;
nodes = (
"42 667 LINE",
"42 688 LINE",
"61 726 LINE",
"92 752 LINE",
"132 768 LINE",
"154 768 LINE",
"179 768 LINE",
"221 750 LINE",
"251 721 LINE",
"267 685 LINE",
"267 667 LINE",
"267 645 LINE",
"249 607 LINE",
"218 581 LINE",
"176 565 LINE",
"154 565 LINE",
"130 565 LINE",
"89 582 LINE",
"59 609 LINE",
"42 646 LINE"
);
}
);
width = 315;
}
);
leftKerningGroup = j;
rightKerningGroup = j;
unicode = 006A;
},
{
glyphname = dotlessj;
layers = (
{
hints = (
{
horizontal = 1;
place = "{-216, 162}";
},
{
horizontal = 1;
place = "{501, -20}";
target = down;
type = TopGhost;
}
);
layerId = UUID0;
paths = (
{
closed = 1;
nodes = (
"-14 -54 LINE",
"52 -54 LINE",
"52 29 LINE",
"52 501 LINE",
"263 501 LINE",
"263 29 LINE",
"263 -28 LINE",
"232 -119 LINE",
"175 -182 LINE",
"93 -216 LINE",
"42 -216 LINE",
"-50 -216 LINE",
"-129 -163 LINE",
"-83 -39 LINE",
"-38 -54 LINE"
);
}
);
width = 315;
}
);
leftKerningGroup = j;
rightKerningGroup = j;
unicode = 0237;
},
{
glyphname = k;
layers = (
{
hints = (
{
horizontal = 1;
place = "{-8, 161}";
},
{
horizontal = 1;
place = "{690, -20}";
target = down;
type = TopGhost;
},
{
horizontal = 1;
place = "{0, 21}";
target = up;
type = BottomGhost;
}
);
layerId = UUID0;
paths = (
{
closed = 1;
nodes = (
"475 289 LINE",
"486 226 LINE",
"497 204 LINE",
"519 153 LINE",
"576 153 LINE",
"590 153 LINE",
"619 159 LINE",
"599 -5 LINE",
"568 -8 LINE",
"543 -8 LINE",
"490 -8 LINE",
"418 14 LINE",
"369 61 LINE",
"336 134 LINE",
"323 185 LINE",
"264 138 LINE",
"264 0 LINE",
"52 0 LINE",
"52 659 LINE",
"264 690 LINE",
"264 348 LINE",
"521 558 LINE",
"636 401 LINE"
);
}
);
width = 642;
}
);
rightKerningGroup = k;
unicode = 006B;
},
{
glyphname = kgreenlandic;
layers = (
{
hints = (
{
horizontal = 1;
place = "{-15, 168}";
},
{
horizontal = 1;
place = "{500, -20}";
target = down;
type = TopGhost;
},
{
horizontal = 1;
place = "{0, 21}";
target = up;
type = BottomGhost;
}
);
layerId = UUID0;
paths = (
{
closed = 1;
nodes = (
"571 153 LINE",
"583 153 LINE",
"614 159 LINE",
"598 -12 LINE",
"569 -15 LINE",
"543 -15 LINE",
"491 -15 LINE",
"418 8 LINE",
"369 55 LINE",
"335 126 LINE",
"322 175 LINE",
"263 128 LINE",
"263 0 LINE",
"52 0 LINE",
"52 500 LINE",
"263 500 LINE",
"263 338 LINE",
"452 500 LINE",
"559 500 LINE",
"631 414 LINE",
"464 279 LINE",
"470 250 LINE",
"478 225 LINE",
"482 210 LINE",
"496 184 LINE",
"518 165 LINE",
"549 153 LINE"
);
}
);
width = 639;
}
);
unicode = 0138;
},
{
glyphname = l;
layers = (
{
hints = (
{
horizontal = 1;
place = "{-8, 162}";
},
{
horizontal = 1;
place = "{690, -20}";
target = down;
type = TopGhost;
}
);
layerId = UUID0;
paths = (
{
closed = 1;
nodes = (
"376 26 LINE",
"309 -8 LINE",
"226 -8 LINE",
"184 -8 LINE",
"117 20 LINE",
"72 72 LINE",
"48 146 LINE",
"48 192 LINE",
"48 659 LINE",
"259 690 LINE",
"259 207 LINE",
"259 180 LINE",
"293 154 LINE",
"323 154 LINE",
"345 154 LINE",
"369 166 LINE"
);
}
);
width = 378;
}
);
rightKerningGroup = l;
unicode = 006C;
},
{
glyphname = lslash;
layers = (
{
hints = (
{
horizontal = 1;
place = "{-16, 162}";
},
{
horizontal = 1;
place = "{690, -20}";
target = down;
type = TopGhost;
}
);
layerId = UUID0;
paths = (
{
closed = 1;
nodes = (
"404 19 LINE",
"339 -16 LINE",
"269 -16 LINE",
"226 -16 LINE",
"161 13 LINE",
"115 65 LINE",
"92 139 LINE",
"92 185 LINE",
"92 325 LINE",
"8 300 LINE",
"8 385 LINE",
"92 410 LINE",
"92 659 LINE",
"303 690 LINE",
"303 475 LINE",
"389 501 LINE",
"389 416 LINE",
"303 390 LINE",
"303 199 LINE",
"303 146 LINE",
"351 146 LINE",
"372 146 LINE",
"394 158 LINE"
);
}
);
width = 421;
}
);
rightKerningGroup = l;
unicode = 0142;
},
{
glyphname = m;
layers = (
{
hints = (
{
horizontal = 1;
place = "{348, 146}";
},
{
horizontal = 1;
place = "{348, 161}";
},
{
horizontal = 1;
place = "{0, 21}";
target = up;
type = BottomGhost;
}
);
layerId = UUID0;
paths = (
{
closed = 1;
nodes = (
"605 384 LINE",
"626 446 LINE",
"717 508 LINE",
"789 508 LINE",
"830 508 LINE",
"899 470 LINE",
"950 402 LINE",
"979 307 LINE",
"979 250 LINE",
"979 0 LINE",
"768 0 LINE",
"768 250 LINE",
"768 271 LINE",
"758 307 LINE",
"741 333 LINE",
"715 348 LINE",
"699 348 LINE",
"678 348 LINE",
"648 329 LINE",
"628 300 LINE",
"619 265 LINE",
"619 250 LINE",
"619 0 LINE",
"410 0 LINE",
"410 250 LINE",
"410 271 LINE",
"401 306 LINE",
"383 333 LINE",
"356 348 LINE",
"340 348 LINE",
"322 348 LINE",
"293 333 LINE",
"272 307 LINE",
"261 273 LINE",
"261 254 LINE",
"261 0 LINE",
"50 0 LINE",
"50 494 LINE",
"261 494 LINE",
"261 392 LINE",
"289 454 LINE",
"374 508 LINE",
"432 508 LINE",
"459 508 LINE",
"511 494 LINE",
"557 464 LINE",
"593 417 LINE"
);
}
);
width = 1025;
}
);
leftKerningGroup = m;
rightKerningGroup = h;
unicode = 006D;
},
{
glyphname = n;
layers = (
{
hints = (
{
horizontal = 1;
place = "{360, 133}";
},
{
horizontal = 1;
place = "{360, 148}";
},
{
horizontal = 1;
place = "{0, 21}";
target = up;
type = BottomGhost;
}
);
layerId = UUID0;
paths = (
{
closed = 1;
nodes = (
"50 494 LINE",
"251 494 LINE",
"251 392 LINE",
"280 451 LINE",
"373 508 LINE",
"435 508 LINE",
"484 508 LINE",
"561 471 LINE",
"613 403 LINE",
"640 308 LINE",
"640 250 LINE",
"640 0 LINE",
"430 0 LINE",
"430 271 LINE",
"430 290 LINE",
"422 323 LINE",
"406 347 LINE",
"382 360 LINE",
"364 360 LINE",
"343 360 LINE",
"307 339 LINE",
"280 309 LINE",
"263 276 LINE",
"261 265 LINE",
"261 0 LINE",
"50 0 LINE"
);
}
);
width = 687;
}
);
leftKerningGroup = m;
rightKerningGroup = h;
unicode = 006E;
},
{
glyphname = eng;
layers = (
{
hints = (
{
horizontal = 1;
place = "{-246, 163}";
},
{
horizontal = 1;
place = "{350, 166}";
},
{
horizontal = 1;
place = "{0, 21}";
target = up;
type = BottomGhost;
}
);
layerId = UUID0;
paths = (
{
closed = 1;
nodes = (
"362 -83 LINE",
"430 -83 LINE",
"430 0 LINE",
"430 250 LINE",
"430 269 LINE",
"419 305 LINE",
"400 333 LINE",
"375 350 LINE",
"359 350 LINE",
"339 350 LINE",
"303 334 LINE",
"277 308 LINE",
"261 273 LINE",
"261 254 LINE",
"261 0 LINE",
"50 0 LINE",
"50 483 LINE",
"261 516 LINE",
"261 392 LINE",
"287 450 LINE",
"375 516 LINE",
"435 516 LINE",
"479 516 LINE",
"554 475 LINE",
"609 403 LINE",
"640 306 LINE",
"640 250 LINE",
"640 0 LINE",
"640 -57 LINE",
"610 -148 LINE",
"553 -212 LINE",
"471 -246 LINE",
"419 -246 LINE",
"327 -246 LINE",
"248 -193 LINE",
"294 -69 LINE",
"333 -83 LINE"
);
}
);
width = 687;
}
);
leftKerningGroup = m;
rightKerningGroup = h;
unicode = 014B;
},
{
glyphname = o;
layers = (
{
hints = (
{
horizontal = 1;
place = "{-8, 149}";
},
{
horizontal = 1;
place = "{360, 148}";
}
);
layerId = UUID0;
paths = (
{
closed = 1;
nodes = (
"221 251 LINE",
"221 224 LINE",
"237 183 LINE",
"263 155 LINE",
"297 142 LINE",
"315 142 LINE",
"333 142 LINE",
"366 155 LINE",
"393 183 LINE",
"409 224 LINE",
"409 251 LINE",
"409 278 LINE",
"393 319 LINE",
"366 346 LINE",
"333 360 LINE",
"315 360 LINE",
"297 360 LINE",
"263 346 LINE",
"237 319 LINE",
"221 278 LINE"
);
},
{
closed = 1;
nodes = (
"25 251 LINE",
"28 314 LINE",
"75 410 LINE",
"153 475 LINE",
"256 508 LINE",
"314 508 LINE",
"378 508 LINE",
"483 470 LINE",
"560 402 LINE",
"602 308 LINE",
"602 251 LINE",
"602 205 LINE",
"578 131 LINE",
"537 74 LINE",
"481 32 LINE",
"417 5 LINE",
"348 -8 LINE",
"313 -8 LINE",
"249 -8 LINE",
"143 30 LINE",
"67 98 LINE",
"25 193 LINE"
);
}
);
width = 627;
}
);
leftKerningGroup = c;
rightKerningGroup = o;
unicode = 006F;
},
{
glyphname = oslash;
layers = (
{
hints = (
{
horizontal = 1;
place = "{360, 155}";
},
{
horizontal = 1;
place = "{-85, 21}";
target = up;
type = BottomGhost;
},
{
horizontal = 1;
place = "{-16, 21}";
target = up;
type = BottomGhost;
},
{
horizontal = 1;
place = "{587, -20}";
target = down;
type = TopGhost;
}
);
layerId = UUID0;
paths = (
{
closed = 1;
nodes = (
"211 -1 LINE",
"170 12 LINE",
"102 59 LINE",
"53 123 LINE",
"26 203 LINE",
"26 251 LINE",
"26 297 LINE",
"49 372 LINE",
"90 431 LINE",
"145 474 LINE",
"210 502 LINE",
"283 516 LINE",
"320 516 LINE",
"325 516 LINE",
"327 516 LINE",
"333 515 LINE",
"336 515 LINE",
"337 515 LINE",
"354 587 LINE",
"412 587 LINE",
"392 504 LINE",
"433 491 LINE",
"503 445 LINE",
"553 380 LINE",
"581 299 LINE",
"581 251 LINE",
"581 205 LINE",
"557 129 LINE",
"515 70 LINE",
"457 26 LINE",
"390 -2 LINE",
"317 -16 LINE",
"281 -16 LINE",
"273 -16 LINE",
"271 -16 LINE",
"266 -15 LINE",
"264 -15 LINE",
"247 -85 LINE",
"190 -85 LINE"
);
},
{
closed = 1;
nodes = (
"303 141 LINE",
"322 144 LINE",
"356 164 LINE",
"381 193 LINE",
"396 230 LINE",
"396 251 LINE",
"396 280 LINE",
"371 328 LINE",
"352 342 LINE"
);
},
{
closed = 1;
nodes = (
"300 360 LINE",
"280 359 LINE",
"247 341 LINE",
"223 312 LINE",
"210 273 LINE",
"210 251 LINE",
"210 222 LINE",
"233 174 LINE",
"251 160 LINE"
);
}
);
width = 607;
}
);
leftKerningGroup = c;
rightKerningGroup = o;
unicode = 00F8;
},
{
glyphname = oe;
layers = (
{
hints = (
{
horizontal = 1;
place = "{-16, 144}";
},
{
horizontal = 1;
place = "{351, 165}";
},
{
horizontal = 1;
place = "{387, 129}";
},
{
horizontal = 1;
place = "{-16, 167}";
}
);
layerId = UUID0;
paths = (
{
closed = 1;
nodes = (
"710 128 LINE",
"724 128 LINE",
"752 131 LINE",
"767 134 LINE",
"783 138 LINE",
"803 143 LINE",
"820 148 LINE",
"840 156 LINE",
"857 163 LINE",
"882 25 LINE",
"791 -16 LINE",
"677 -16 LINE",
"569 -16 LINE",
"492 65 LINE",
"418 -16 LINE",
"313 -16 LINE",
"249 -16 LINE",
"143 24 LINE",
"67 96 LINE",
"25 193 LINE",
"25 251 LINE",
"25 316 LINE",
"74 414 LINE",
"116 448 LINE",
"151 478 LINE",
"253 516 LINE",
"314 516 LINE",
"415 516 LINE",
"492 444 LINE",
"569 516 LINE",
"671 516 LINE",
"723 516 LINE",
"808 479 LINE",
"869 414 LINE",
"902 320 LINE",
"902 263 LINE",
"902 256 LINE",
"901 243 LINE",
"900 237 LINE",
"600 198 LINE",
"612 163 LINE",
"665 128 LINE"
);
},
{
closed = 1;
nodes = (
"314 151 LINE",
"337 151 LINE",
"371 171 LINE",
"393 202 LINE",
"404 236 LINE",
"404 251 LINE",
"404 271 LINE",
"390 308 LINE",
"365 335 LINE",
"333 351 LINE",
"314 351 LINE",
"294 351 LINE",
"261 334 LINE",
"238 307 LINE",
"225 271 LINE",
"225 251 LINE",
"225 230 LINE",
"239 194 LINE",
"264 167 LINE",
"296 151 LINE"
);
},
{
closed = 1;
nodes = (
"747 324 LINE",
"730 387 LINE",
"671 387 LINE",
"652 387 LINE",
"623 372 LINE",
"604 346 LINE",
"593 311 LINE",
"592 290 LINE"
);
}
);
width = 925;
}
);
leftKerningGroup = c;
rightKerningGroup = e;
unicode = 0153;
},
{
glyphname = p;
layers = (
{
hints = (
{
horizontal = 1;
place = "{-8, 158}";
},
{
horizontal = 1;
place = "{350, 144}";
},
{
horizontal = 1;
place = "{350, 159}";
},
{
horizontal = 1;
place = "{-170, 21}";
target = up;
type = BottomGhost;
}
);
layerId = UUID0;
paths = (
{
closed = 1;
nodes = (
"425 -8 LINE",
"370 -8 LINE",
"288 39 LINE",
"261 93 LINE",
"261 -130 LINE",
"50 -170 LINE",
"50 494 LINE",
"261 494 LINE",
"261 407 LINE",
"287 461 LINE",
"368 508 LINE",
"424 508 LINE",
"470 508 LINE",
"554 479 LINE",
"591 443 LINE",
"669 367 LINE",
"669 250 LINE",
"669 135 LINE",
"591 57 LINE",
"555 21 LINE",
"472 -8 LINE"
);
},
{
closed = 1;
nodes = (
"261 250 LINE",
"261 229 LINE",
"277 192 LINE",
"304 166 LINE",
"340 150 LINE",
"359 150 LINE",
"381 150 LINE",
"418 167 LINE",
"445 194 LINE",
"460 230 LINE",
"460 250 LINE",
"460 273 LINE",
"442 311 LINE",
"414 336 LINE",
"377 350 LINE",
"359 350 LINE",
"336 350 LINE",
"300 332 LINE",
"276 304 LINE",
"262 270 LINE",
"261 254 LINE"
);
}
);
width = 695;
}
);
rightKerningGroup = b;
unicode = 0070;
},
{
glyphname = thorn;
layers = (
{
hints = (
{
horizontal = 1;
place = "{-16, 166}";
},
{
horizontal = 1;
place = "{350, 166}";
},
{
horizontal = 1;
place = "{690, -20}";
target = down;
type = TopGhost;
},
{
horizontal = 1;
place = "{-249, 21}";
target = up;
type = BottomGhost;
}
);
layerId = UUID0;
paths = (
{
closed = 1;
nodes = (
"427 -16 LINE",
"369 -16 LINE",
"287 43 LINE",
"263 93 LINE",
"263 -249 LINE",
"52 -249 LINE",
"52 659 LINE",
"263 690 LINE",
"263 407 LINE",
"313 516 LINE",
"426 516 LINE",
"477 516 LINE",
"566 474 LINE",
"633 402 LINE",
"671 305 LINE",
"671 250 LINE",
"671 213 LINE",
"653 146 LINE",
"621 86 LINE",
"575 38 LINE",
"521 3 LINE",
"459 -16 LINE"
);
},
{
closed = 1;
nodes = (
"263 250 LINE",
"263 229 LINE",
"279 193 LINE",
"306 166 LINE",
"342 150 LINE",
"362 150 LINE",
"383 150 LINE",
"420 167 LINE",
"447 194 LINE",
"462 230 LINE",
"462 250 LINE",
"462 274 LINE",
"444 311 LINE",
"415 336 LINE",
"379 350 LINE",
"362 350 LINE",
"341 350 LINE",
"306 334 LINE",
"279 308 LINE",
"264 273 LINE",
"263 254 LINE"
);
}
);
width = 697;
}
);
rightKerningGroup = b;
unicode = 00FE;
},
{
glyphname = q;
layers = (
{
hints = (
{
horizontal = 1;
place = "{-8, 158}";
},
{
horizontal = 1;
place = "{350, 144}";
},
{
horizontal = 1;
place = "{350, 159}";
},
{
horizontal = 1;
place = "{-170, 21}";
target = up;
type = BottomGhost;
}
);
layerId = UUID0;
paths = (
{
closed = 1;
nodes = (
"271 508 LINE",
"327 508 LINE",
"409 461 LINE",
"435 407 LINE",
"435 494 LINE",
"646 494 LINE",
"646 -130 LINE",
"435 -170 LINE",
"435 93 LINE",
"408 39 LINE",
"326 -8 LINE",
"270 -8 LINE",
"214 -8 LINE",
"124 35 LINE",
"60 106 LINE",
"26 199 LINE",
"26 250 LINE",
"26 306 LINE",
"65 400 LINE",
"132 469 LINE",
"221 508 LINE"
);
},
{
closed = 1;
nodes = (
"435 254 LINE",
"434 273 LINE",
"417 309 LINE",
"390 334 LINE",
"355 350 LINE",
"336 350 LINE",
"315 350 LINE",
"278 333 LINE",
"251 306 LINE",
"236 270 LINE",
"236 250 LINE",
"236 229 LINE",
"252 192 LINE",
"280 166 LINE",
"316 150 LINE",
"336 150 LINE",
"356 150 LINE",
"392 166 LINE",
"418 192 LINE",
"434 227 LINE",
"435 246 LINE"
);
}
);
width = 696;
}
);
leftKerningGroup = a;
unicode = 0071;
},
{
glyphname = r;
layers = (
{
hints = (
{
horizontal = 1;
place = "{345, 164}";
},
{
horizontal = 1;
place = "{0, 21}";
target = up;
type = BottomGhost;
}
);
layerId = UUID0;
paths = (
{
closed = 1;
nodes = (
"50 494 LINE",
"261 494 LINE",
"261 392 LINE",
"285 452 LINE",
"364 508 LINE",
"416 508 LINE",
"445 345 LINE",
"350 345 LINE",
"261 304 LINE",
"261 260 LINE",
"261 0 LINE",
"50 0 LINE"
);
}
);
width = 446;
}
);
leftKerningGroup = m;
rightKerningGroup = r;
unicode = 0072;
},
{
glyphname = s;
layers = (
{
hints = (
{
horizontal = 1;
place = "{-8, 121}";
},
{
horizontal = 1;
place = "{384, 125}";
}
);
layerId = UUID0;
paths = (
{
closed = 1;
nodes = (
"267 384 LINE",
"207 384 LINE",
"207 363 LINE",
"207 355 LINE",
"216 343 LINE",
"230 334 LINE",
"248 328 LINE",
"257 327 LINE",
"295 321 LINE",
"361 297 LINE",
"410 257 LINE",
"438 199 LINE",
"438 159 LINE",
"438 120 LINE",
"410 58 LINE",
"360 15 LINE",
"292 -8 LINE",
"253 -8 LINE",
"189 -8 LINE",
"83 4 LINE",
"39 23 LINE",
"62 139 LINE",
"78 134 LINE",
"102 127 LINE",
"109 126 LINE",
"117 125 LINE",
"139 120 LINE",
"165 116 LINE",
"191 113 LINE",
"202 113 LINE",
"252 113 LINE",
"252 137 LINE",
"250 146 LINE",
"238 160 LINE",
"220 170 LINE",
"196 177 LINE",
"183 180 LINE",
"145 187 LINE",
"86 211 LINE",
"47 250 LINE",
"27 306 LINE",
"27 345 LINE",
"29 389 LINE",
"63 451 LINE",
"119 490 LINE",
"196 508 LINE",
"241 508 LINE",
"289 508 LINE",
"373 498 LINE",
"409 480 LINE",
"388 361 LINE",
"314 384 LINE"
);
}
);
width = 462;
}
);
leftKerningGroup = s;
rightKerningGroup = s;
unicode = 0073;
},
{
glyphname = germandbls;
layers = (
{
hints = (
{
horizontal = 1;
place = "{-45, 160}";
},
{
horizontal = 1;
place = "{570, 133}";
}
);
layerId = UUID0;
paths = (
{
closed = 1;
nodes = (
"339 570 LINE",
"306 570 LINE",
"267 534 LINE",
"267 503 LINE",
"267 0 LINE",
"52 -16 LINE",
"52 539 LINE",
"52 574 LINE",
"96 634 LINE",
"173 678 LINE",
"279 703 LINE",
"341 703 LINE",
"391 703 LINE",
"482 680 LINE",
"552 637 LINE",
"593 574 LINE",
"593 534 LINE",
"593 487 LINE",
"552 418 LINE",
"518 397 LINE",
"553 387 LINE",
"615 348 LINE",
"662 295 LINE",
"688 231 LINE",
"688 195 LINE",
"688 132 LINE",
"639 41 LINE",
"556 -18 LINE",
"448 -45 LINE",
"391 -45 LINE",
"385 -45 LINE",
"367 -44 LINE",
"347 -44 LINE",
"329 -44 LINE",
"324 -44 LINE",
"324 117 LINE",
"337 116 LINE",
"361 115 LINE",
"373 115 LINE",
"397 115 LINE",
"435 132 LINE",
"460 163 LINE",
"474 204 LINE",
"474 229 LINE",
"474 249 LINE",
"457 287 LINE",
"425 319 LINE",
"376 343 LINE",
"344 351 LINE",
"344 443 LINE",
"361 446 LINE",
"392 459 LINE",
"414 477 LINE",
"427 500 LINE",
"427 513 LINE",
"427 527 LINE",
"413 549 LINE",
"388 563 LINE",
"356 570 LINE"
);
}
);
width = 707;
}
);
leftKerningGroup = f;
unicode = 00DF;
},
{
glyphname = t;
layers = (
{
hints = (
{
horizontal = 1;
place = "{-8, 162}";
},
{
horizontal = 1;
place = "{377, 124}";
},
{
horizontal = 1;
place = "{690, -20}";
target = down;
type = TopGhost;
}
);
layerId = UUID0;
paths = (
{
closed = 1;
nodes = (
"410 26 LINE",
"342 -8 LINE",
"259 -8 LINE",
"217 -8 LINE",
"150 20 LINE",
"105 72 LINE",
"82 146 LINE",
"82 192 LINE",
"83 377 LINE",
"19 377 LINE",
"19 501 LINE",
"98 501 LINE",
"191 690 LINE",
"292 690 LINE",
"292 501 LINE",
"408 501 LINE",
"408 377 LINE",
"292 377 LINE",
"292 207 LINE",
"292 181 LINE",
"327 154 LINE",
"356 154 LINE",
"379 154 LINE",
"402 166 LINE"
);
}
);
width = 435;
}
);
leftKerningGroup = t;
rightKerningGroup = t;
unicode = 0074;
},
{
glyphname = tbar;
layers = (
{
hints = (
{
horizontal = 1;
place = "{-16, 162}";
},
{
horizontal = 1;
place = "{253, 85}";
},
{
horizontal = 1;
place = "{377, 124}";
},
{
horizontal = 1;
place = "{690, -20}";
target = down;
type = TopGhost;
}
);
layerId = UUID0;
paths = (
{
closed = 1;
nodes = (
"418 19 LINE",
"350 -16 LINE",
"268 -16 LINE",
"225 -16 LINE",
"159 13 LINE",
"113 64 LINE",
"90 139 LINE",
"90 185 LINE",
"90 253 LINE",
"34 253 LINE",
"34 338 LINE",
"91 338 LINE",
"91 377 LINE",
"27 377 LINE",
"27 501 LINE",
"91 501 LINE",
"91 622 LINE",
"301 690 LINE",
"301 501 LINE",
"416 501 LINE",
"416 377 LINE",
"301 377 LINE",
"301 338 LINE",
"410 338 LINE",
"410 253 LINE",
"301 253 LINE",
"301 199 LINE",
"301 173 LINE",
"335 146 LINE",
"364 146 LINE",
"387 146 LINE",
"410 158 LINE"
);
}
);
width = 450;
}
);
leftKerningGroup = t;
rightKerningGroup = t;
unicode = 0167;
},
{
glyphname = u;
layers = (
{
hints = (
{
horizontal = 1;
place = "{-8, 156}";
},
{
horizontal = 1;
place = "{501, -20}";
target = down;
type = TopGhost;
}
);
layerId = UUID0;
paths = (
{
closed = 1;
nodes = (
"252 208 LINE",
"252 195 LINE",
"262 173 LINE",
"280 157 LINE",
"304 148 LINE",
"317 148 LINE",
"330 148 LINE",
"353 158 LINE",
"369 174 LINE",
"379 195 LINE",
"379 208 LINE",
"379 501 LINE",
"581 501 LINE",
"581 215 LINE",
"581 163 LINE",
"541 81 LINE",
"470 23 LINE",
"374 -8 LINE",
"316 -8 LINE",
"260 -8 LINE",
"162 22 LINE",
"88 79 LINE",
"46 162 LINE",
"46 215 LINE",
"46 501 LINE",
"252 501 LINE"
);
}
);
width = 628;
}
);
leftKerningGroup = u;
rightKerningGroup = u;
unicode = 0075;
},
{
glyphname = v;
layers = (
{
hints = (
{
horizontal = 1;
place = "{0, 21}";
target = up;
type = BottomGhost;
},
{
horizontal = 1;
place = "{501, -20}";
target = down;
type = TopGhost;
}
);
layerId = UUID0;
paths = (
{
closed = 1;
nodes = (
"1 501 LINE",
"233 501 LINE",
"313 193 LINE",
"325 262 LINE",
"385 501 LINE",
"568 501 LINE",
"409 0 LINE",
"166 0 LINE"
);
}
);
width = 570;
}
);
unicode = 0076;
},
{
glyphname = w;
layers = (
{
hints = (
{
horizontal = 1;
place = "{0, 21}";
target = up;
type = BottomGhost;
},
{
horizontal = 1;
place = "{501, -20}";
target = down;
type = TopGhost;
}
);
layerId = UUID0;
paths = (
{
closed = 1;
nodes = (
"20 501 LINE",
"224 501 LINE",
"281 176 LINE",
"287 200 LINE",
"297 250 LINE",
"309 303 LINE",
"321 364 LINE",
"329 399 LINE",
"350 501 LINE",
"522 501 LINE",
"572 266 LINE",
"590 168 LINE",
"610 266 LINE",
"649 501 LINE",
"813 501 LINE",
"709 0 LINE",
"467 0 LINE",
"414 265 LINE",
"361 0 LINE",
"130 0 LINE"
);
}
);
width = 833;
}
);
leftKerningGroup = w;
rightKerningGroup = w;
unicode = 0077;
},
{
glyphname = x;
layers = (
{
hints = (
{
horizontal = 1;
place = "{0, 21}";
target = up;
type = BottomGhost;
},
{
horizontal = 1;
place = "{501, -20}";
target = down;
type = TopGhost;
}
);
layerId = UUID0;
paths = (
{
closed = 1;
nodes = (
"154 260 LINE",
"12 501 LINE",
"223 501 LINE",
"279 383 LINE",
"337 501 LINE",
"542 501 LINE",
"402 260 LINE",
"552 0 LINE",
"347 0 LINE",
"279 128 LINE",
"213 0 LINE",
"2 0 LINE"
);
}
);
width = 555;
}
);
unicode = 0078;
},
{
glyphname = y;
layers = (
{
hints = (
{
horizontal = 1;
place = "{-234, 168}";
},
{
horizontal = 1;
place = "{0, 150}";
},
{
horizontal = 1;
place = "{501, -20}";
target = down;
type = TopGhost;
}
);
layerId = UUID0;
paths = (
{
closed = 1;
nodes = (
"416 83 LINE",
"370 0 LINE",
"271 0 LINE",
"227 0 LINE",
"146 32 LINE",
"84 88 LINE",
"48 166 LINE",
"48 212 LINE",
"48 501 LINE",
"258 501 LINE",
"258 222 LINE",
"258 207 LINE",
"270 181 LINE",
"289 162 LINE",
"313 150 LINE",
"326 150 LINE",
"344 150 LINE",
"374 164 LINE",
"395 187 LINE",
"406 217 LINE",
"406 235 LINE",
"406 501 LINE",
"617 501 LINE",
"617 127 LINE",
"617 39 LINE",
"581 -96 LINE",
"509 -187 LINE",
"405 -234 LINE",
"337 -234 LINE",
"321 -234 LINE",
"278 -229 LINE",
"250 -225 LINE",
"271 -61 LINE",
"285 -64 LINE",
"309 -66 LINE",
"321 -66 LINE",
"349 -66 LINE",
"384 -40 LINE",
"404 3 LINE",
"414 56 LINE"
);
}
);
width = 668;
}
);
leftKerningGroup = y;
rightKerningGroup = y;
unicode = 0079;
},
{
glyphname = z;
layers = (
{
hints = (
{
horizontal = 1;
place = "{0, 128}";
},
{
horizontal = 1;
place = "{373, 128}";
}
);
layerId = UUID0;
paths = (
{
closed = 1;
nodes = (
"31 107 LINE",
"207 373 LINE",
"38 373 LINE",
"38 501 LINE",
"454 501 LINE",
"454 393 LINE",
"298 128 LINE",
"458 128 LINE",
"458 0 LINE",
"31 0 LINE"
);
}
);
width = 490;
}
);
leftKerningGroup = z;
rightKerningGroup = z;
unicode = 007A;
},
{
glyphname = fi;
layers = (
{
hints = (
{
horizontal = 1;
place = "{-16, 162}";
},
{
horizontal = 1;
place = "{377, 124}";
},
{
horizontal = 1;
place = "{565, 202}";
},
{
horizontal = 1;
place = "{608, 159}";
},
{
horizontal = 1;
place = "{0, 21}";
target = up;
type = BottomGhost;
}
);
layerId = UUID0;
paths = (
{
closed = 1;
nodes = (
"838 19 LINE",
"779 -16 LINE",
"707 -16 LINE",
"665 -16 LINE",
"599 13 LINE",
"554 65 LINE",
"530 139 LINE",
"530 185 LINE",
"530 377 LINE",
"299 377 LINE",
"299 0 LINE",
"88 0 LINE",
"88 377 LINE",
"25 377 LINE",
"25 501 LINE",
"88 501 LINE",
"88 555 LINE",
"88 656 LINE",
"178 768 LINE",
"271 768 LINE",
"348 768 LINE",
"434 729 LINE",
"427 594 LINE",
"383 608 LINE",
"355 608 LINE",
"299 608 LINE",
"299 548 LINE",
"299 501 LINE",
"741 501 LINE",
"741 194 LINE",
"741 170 LINE",
"767 146 LINE",
"786 146 LINE",
"806 146 LINE",
"827 158 LINE"
);
},
{
closed = 1;
nodes = (
"525 667 LINE",
"525 689 LINE",
"544 726 LINE",
"576 752 LINE",
"617 768 LINE",
"639 768 LINE",
"661 768 LINE",
"702 751 LINE",
"733 724 LINE",
"751 688 LINE",
"751 667 LINE",
"751 644 LINE",
"732 607 LINE",
"701 580 LINE",
"660 565 LINE",
"639 565 LINE",
"615 565 LINE",
"574 581 LINE",
"543 608 LINE",
"525 646 LINE"
);
}
);
width = 846;
}
);
leftKerningGroup = f;
rightKerningGroup = i;
unicode = FB01;
},
{
glyphname = fl;
layers = (
{
hints = (
{
horizontal = 1;
place = "{-16, 162}";
},
{
horizontal = 1;
place = "{377, 124}";
},
{
horizontal = 1;
place = "{608, 141}";
},
{
horizontal = 1;
place = "{0, 21}";
target = up;
type = BottomGhost;
}
);
layerId = UUID0;
paths = (
{
closed = 1;
nodes = (
"403 608 LINE",
"299 608 LINE",
"299 548 LINE",
"299 501 LINE",
"425 501 LINE",
"425 377 LINE",
"299 377 LINE",
"299 0 LINE",
"88 0 LINE",
"88 377 LINE",
"25 377 LINE",
"25 501 LINE",
"88 501 LINE",
"88 555 LINE",
"88 596 LINE",
"113 656 LINE",
"159 699 LINE",
"224 727 LINE",
"302 743 LINE",
"392 749 LINE",
"440 749 LINE",
"454 749 LINE",
"479 748 LINE",
"508 745 LINE",
"546 738 LINE",
"600 728 LINE",
"675 712 LINE",
"727 701 LINE",
"727 199 LINE",
"727 146 LINE",
"774 146 LINE",
"795 146 LINE",
"817 158 LINE",
"829 19 LINE",
"764 -16 LINE",
"692 -16 LINE",
"647 -16 LINE",
"581 15 LINE",
"537 69 LINE",
"516 142 LINE",
"516 185 LINE",
"516 600 LINE",
"450 608 LINE"
);
}
);
width = 834;
}
);
leftKerningGroup = f;
rightKerningGroup = l;
unicode = FB02;
},
{
glyphname = mu;
layers = (
{
hints = (
{
horizontal = 1;
place = "{-16, 164}";
},
{
horizontal = 1;
place = "{501, -20}";
target = down;
type = TopGhost;
},
{
horizontal = 1;
place = "{-146, 21}";
target = up;
type = BottomGhost;
}
);
layerId = UUID0;
paths = (
{
closed = 1;
nodes = (
"369 -16 LINE",
"314 -16 LINE",
"257 12 LINE",
"257 -132 LINE",
"57 -146 LINE",
"57 501 LINE",
"263 501 LINE",
"263 168 LINE",
"292 148 LINE",
"325 148 LINE",
"338 148 LINE",
"360 158 LINE",
"376 174 LINE",
"386 195 LINE",
"386 208 LINE",
"386 501 LINE",
"587 501 LINE",
"587 215 LINE",
"587 165 LINE",
"553 81 LINE",
"495 19 LINE",
"415 -16 LINE"
);
}
);
width = 621;
}
);
unicode = 03BC;
},
{
glyphname = pi;
layers = (
{
hints = (
{
horizontal = 1;
place = "{-16, 162}";
},
{
horizontal = 1;
place = "{416, 85}";
}
);
layerId = UUID0;
paths = (
{
closed = 1;
nodes = (
"117 501 LINE",
"644 501 LINE",
"644 1 LINE",
"433 1 LINE",
"433 416 LINE",
"329 416 LINE",
"329 185 LINE",
"329 138 LINE",
"305 63 LINE",
"259 12 LINE",
"193 -16 LINE",
"151 -16 LINE",
"80 -16 LINE",
"21 19 LINE",
"31 158 LINE",
"52 146 LINE",
"72 146 LINE",
"92 146 LINE",
"117 170 LINE",
"117 194 LINE",
"117 199 LINE"
);
}
);
width = 699;
}
);
unicode = 03C0;
},
{
glyphname = zero;
layers = (
{
hints = (
{
horizontal = 1;
place = "{-8, 166}";
},
{
horizontal = 1;
place = "{517, 166}";
}
);
layerId = UUID0;
paths = (
{
closed = 1;
nodes = (
"579 575 LINE",
"660 478 LINE",
"660 338 LINE",
"660 198 LINE",
"580 100 LINE",
"492 -8 LINE",
"347 -8 LINE",
"272 -8 LINE",
"156 47 LINE",
"76 143 LINE",
"33 268 LINE",
"33 338 LINE",
"33 393 LINE",
"57 486 LINE",
"99 563 LINE",
"157 622 LINE",
"227 662 LINE",
"305 683 LINE",
"347 683 LINE",
"490 683 LINE"
);
},
{
closed = 1;
nodes = (
"245 403 LINE",
"242 387 LINE",
"239 354 LINE",
"239 338 LINE",
"239 304 LINE",
"252 239 LINE",
"279 188 LINE",
"320 158 LINE",
"347 158 LINE",
"369 158 LINE",
"409 185 LINE",
"437 232 LINE",
"454 298 LINE",
"454 338 LINE",
"454 374 LINE",
"439 438 LINE",
"413 488 LINE",
"373 517 LINE",
"347 517 LINE",
"323 517 LINE",
"288 496 LINE",
"264 463 LINE",
"250 422 LINE"
);
}
);
width = 693;
}
);
unicode = 0030;
},
{
glyphname = one;
layers = (
{
hints = (
{
horizontal = 1;
place = "{0, 147}";
},
{
horizontal = 1;
place = "{477, 127}";
},
{
horizontal = 1;
place = "{669, -20}";
target = down;
type = TopGhost;
}
);
layerId = UUID0;
paths = (
{
closed = 1;
nodes = (
"43 147 LINE",
"127 147 LINE",
"127 480 LINE",
"43 474 LINE",
"43 604 LINE",
"85 604 LINE",
"188 636 LINE",
"237 669 LINE",
"342 669 LINE",
"342 147 LINE",
"426 147 LINE",
"426 0 LINE",
"43 0 LINE"
);
}
);
width = 452;
}
);
unicode = 0031;
},
{
glyphname = two;
layers = (
{
hints = (
{
horizontal = 1;
place = "{0, 146}";
},
{
horizontal = 1;
place = "{510, 166}";
}
);
layerId = UUID0;
paths = (
{
closed = 1;
nodes = (
"198 510 LINE",
"190 510 LINE",
"172 507 LINE",
"154 503 LINE",
"139 498 LINE",
"134 497 LINE",
"131 495 LINE",
"112 487 LINE",
"92 478 LINE",
"78 471 LINE",
"78 471 LINE",
"27 620 LINE",
"91 646 LINE",
"206 676 LINE",
"267 676 LINE",
"318 676 LINE",
"397 641 LINE",
"451 580 LINE",
"479 500 LINE",
"479 455 LINE",
"479 408 LINE",
"441 322 LINE",
"377 247 LINE",
"294 182 LINE",
"249 155 LINE",
"233 146 LINE",
"458 146 LINE",
"458 0 LINE",
"39 0 LINE",
"39 141 LINE",
"91 190 LINE",
"178 283 LINE",
"239 365 LINE",
"273 431 LINE",
"273 454 LINE",
"273 469 LINE",
"260 491 LINE",
"238 504 LINE",
"211 510 LINE"
);
}
);
width = 518;
}
);
unicode = 0032;
},
{
glyphname = three;
layers = (
{
hints = (
{
horizontal = 1;
place = "{-11, 153}";
},
{
horizontal = 1;
place = "{283, 124}";
},
{
horizontal = 1;
place = "{521, 155}";
}
);
layerId = UUID0;
paths = (
{
closed = 1;
nodes = (
"223 521 LINE",
"161 521 LINE",
"63 492 LINE",
"29 623 LINE",
"145 677 LINE",
"255 677 LINE",
"298 677 LINE",
"373 652 LINE",
"428 611 LINE",
"460 555 LINE",
"460 523 LINE",
"460 421 LINE",
"365 360 LINE",
"425 335 LINE",
"490 244 LINE",
"490 179 LINE",
"490 138 LINE",
"455 68 LINE",
"391 18 LINE",
"300 -11 LINE",
"244 -11 LINE",
"150 -11 LINE",
"29 28 LINE",
"63 175 LINE",
"143 143 LINE",
"212 143 LINE",
"251 143 LINE",
"292 168 LINE",
"292 200 LINE",
"292 228 LINE",
"259 261 LINE",
"207 278 LINE",
"142 283 LINE",
"110 283 LINE",
"110 407 LINE",
"197 407 LINE",
"287 443 LINE",
"287 476 LINE",
"287 502 LINE",
"255 521 LINE"
);
}
);
width = 523;
}
);
unicode = 0033;
},
{
glyphname = four;
layers = (
{
hints = (
{
horizontal = 1;
place = "{163, 139}";
},
{
horizontal = 1;
place = "{0, 21}";
target = up;
type = BottomGhost;
},
{
horizontal = 1;
place = "{669, -20}";
target = down;
type = TopGhost;
}
);
layerId = UUID0;
paths = (
{
closed = 1;
nodes = (
"18 163 LINE",
"18 303 LINE",
"284 669 LINE",
"508 669 LINE",
"508 301 LINE",
"604 301 LINE",
"604 162 LINE",
"508 162 LINE",
"508 0 LINE",
"295 0 LINE",
"295 163 LINE"
);
},
{
closed = 1;
nodes = (
"165 301 LINE",
"295 301 LINE",
"295 499 LINE"
);
}
);
width = 635;
}
);
unicode = 0034;
},
{
glyphname = five;
layers = (
{
hints = (
{
horizontal = 1;
place = "{-13, 153}";
},
{
horizontal = 1;
place = "{295, 150}";
},
{
horizontal = 1;
place = "{526, 144}";
}
);
layerId = UUID0;
paths = (
{
closed = 1;
nodes = (
"425 48 LINE",
"390 20 LINE",
"295 -13 LINE",
"237 -13 LINE",
"152 -13 LINE",
"47 30 LINE",
"60 171 LINE",
"149 140 LINE",
"234 140 LINE",
"251 140 LINE",
"279 152 LINE",
"299 173 LINE",
"311 203 LINE",
"311 221 LINE",
"311 236 LINE",
"302 264 LINE",
"285 284 LINE",
"261 295 LINE",
"246 295 LINE",
"207 295 LINE",
"147 255 LINE",
"43 300 LINE",
"69 669 LINE",
"455 669 LINE",
"440 526 LINE",
"204 526 LINE",
"191 422 LINE",
"218 431 LINE",
"229 433 LINE",
"247 438 LINE",
"265 443 LINE",
"287 446 LINE",
"300 446 LINE",
"435 446 LINE",
"487 322 LINE",
"508 274 LINE",
"508 221 LINE",
"508 113 LINE"
);
}
);
width = 535;
}
);
unicode = 0035;
},
{
glyphname = six;
layers = (
{
hints = (
{
horizontal = 1;
place = "{-7, 144}";
},
{
horizontal = 1;
place = "{289, 131}";
},
{
horizontal = 1;
place = "{524, 155}";
}
);
layerId = UUID0;
paths = (
{
closed = 1;
nodes = (
"442 511 LINE",
"401 524 LINE",
"364 524 LINE",
"332 524 LINE",
"287 500 LINE",
"257 458 LINE",
"240 405 LINE",
"236 376 LINE",
"232 349 LINE",
"251 367 LINE",
"279 394 LINE",
"344 419 LINE",
"379 419 LINE",
"429 419 LINE",
"509 392 LINE",
"565 339 LINE",
"596 264 LINE",
"596 216 LINE",
"596 116 LINE",
"512 53 LINE",
"434 -7 LINE",
"333 -7 LINE",
"265 -7 LINE",
"154 38 LINE",
"76 123 LINE",
"34 242 LINE",
"34 316 LINE",
"34 371 LINE",
"57 467 LINE",
"98 547 LINE",
"155 611 LINE",
"223 656 LINE",
"301 679 LINE",
"341 679 LINE",
"373 679 LINE",
"430 670 LINE",
"483 654 LINE",
"537 629 LINE",
"565 612 LINE",
"518 481 LINE",
"497 490 LINE",
"459 504 LINE"
);
},
{
closed = 1;
nodes = (
"236 271 LINE",
"237 263 LINE",
"240 242 LINE",
"250 196 LINE",
"268 160 LINE",
"298 136 LINE",
"322 136 LINE",
"340 136 LINE",
"373 147 LINE",
"396 168 LINE",
"411 198 LINE",
"411 216 LINE",
"411 233 LINE",
"398 260 LINE",
"376 279 LINE",
"347 289 LINE",
"331 289 LINE",
"278 289 LINE",
"243 273 LINE"
);
}
);
width = 626;
}
);
unicode = 0036;
},
{
glyphname = seven;
layers = (
{
hints = (
{
horizontal = 1;
place = "{524, 146}";
},
{
horizontal = 1;
place = "{-17, 21}";
target = up;
type = BottomGhost;
}
);
layerId = UUID0;
paths = (
{
closed = 1;
nodes = (
"240 524 LINE",
"26 524 LINE",
"26 669 LINE",
"445 669 LINE",
"445 504 LINE",
"233 -17 LINE",
"48 60 LINE"
);
}
);
width = 466;
}
);
unicode = 0037;
},
{
glyphname = eight;
layers = (
{
hints = (
{
horizontal = 1;
place = "{-13, 139}";
},
{
horizontal = 1;
place = "{570, 108}";
}
);
layerId = UUID0;
paths = (
{
closed = 1;
nodes = (
"51 101 LINE",
"30 138 LINE",
"30 188 LINE",
"30 221 LINE",
"50 270 LINE",
"84 306 LINE",
"128 331 LINE",
"152 340 LINE",
"156 342 LINE",
"153 345 LINE",
"80 405 LINE",
"80 504 LINE",
"80 542 LINE",
"113 606 LINE",
"175 652 LINE",
"261 678 LINE",
"313 678 LINE",
"361 678 LINE",
"445 658 LINE",
"509 618 LINE",
"545 561 LINE",
"545 523 LINE",
"545 497 LINE",
"533 456 LINE",
"512 425 LINE",
"483 401 LINE",
"466 392 LINE",
"462 390 LINE",
"466 388 LINE",
"492 374 LINE",
"539 339 LINE",
"575 295 LINE",
"596 236 LINE",
"596 198 LINE",
"596 143 LINE",
"551 63 LINE",
"474 11 LINE",
"372 -13 LINE",
"314 -13 LINE",
"268 -13 LINE",
"186 1 LINE",
"119 30 LINE",
"67 73 LINE"
);
},
{
closed = 1;
nodes = (
"262 280 LINE",
"261 279 LINE",
"246 264 LINE",
"230 225 LINE",
"230 198 LINE",
"230 181 LINE",
"243 154 LINE",
"266 135 LINE",
"296 125 LINE",
"315 125 LINE",
"333 125 LINE",
"364 132 LINE",
"387 146 LINE",
"400 165 LINE",
"400 178 LINE",
"400 193 LINE",
"385 218 LINE",
"358 239 LINE",
"323 256 LINE",
"304 263 LINE",
"282 272 LINE",
"274 275 LINE",
"265 279 LINE",
"264 280 LINE"
);
},
{
closed = 1;
nodes = (
"388 498 LINE",
"388 533 LINE",
"349 570 LINE",
"314 570 LINE",
"299 570 LINE",
"271 565 LINE",
"250 553 LINE",
"237 533 LINE",
"237 518 LINE",
"237 503 LINE",
"249 481 LINE",
"277 459 LINE",
"322 438 LINE",
"355 426 LINE",
"357 426 LINE",
"358 427 LINE",
"388 455 LINE"
);
}
);
width = 627;
}
);
unicode = 0038;
},
{
glyphname = nine;
layers = (
{
hints = (
{
horizontal = 1;
place = "{-4, 151}";
},
{
horizontal = 1;
place = "{257, 115}";
},
{
horizontal = 1;
place = "{539, 139}";
}
);
layerId = UUID0;
paths = (
{
closed = 1;
nodes = (
"106 189 LINE",
"143 173 LINE",
"170 162 LINE",
"229 147 LINE",
"257 147 LINE",
"364 147 LINE",
"386 288 LINE",
"391 320 LINE",
"367 299 LINE",
"345 280 LINE",
"292 257 LINE",
"252 257 LINE",
"201 257 LINE",
"119 284 LINE",
"61 336 LINE",
"30 411 LINE",
"30 458 LINE",
"30 505 LINE",
"71 586 LINE",
"143 645 LINE",
"241 678 LINE",
"299 678 LINE",
"347 678 LINE",
"427 651 LINE",
"489 604 LINE",
"536 540 LINE",
"566 464 LINE",
"582 380 LINE",
"582 337 LINE",
"582 259 LINE",
"533 132 LINE",
"451 44 LINE",
"341 -4 LINE",
"281 -4 LINE",
"251 -4 LINE",
"196 5 LINE",
"143 21 LINE",
"90 46 LINE",
"62 63 LINE"
);
},
{
closed = 1;
nodes = (
"290 372 LINE",
"298 372 LINE",
"321 372 LINE",
"359 381 LINE",
"377 388 LINE",
"386 391 LINE",
"385 400 LINE",
"378 470 LINE",
"335 539 LINE",
"299 539 LINE",
"280 539 LINE",
"248 528 LINE",
"223 508 LINE",
"209 477 LINE",
"209 458 LINE",
"209 439 LINE",
"221 408 LINE",
"243 385 LINE",
"272 372 LINE"
);
}
);
width = 616;
}
);
unicode = 0039;
},
{
glyphname = onesuperior;
layers = (
{
hints = (
{
horizontal = 1;
place = "{333, 78}";
},
{
horizontal = 1;
place = "{688, -20}";
target = down;
type = TopGhost;
}
);
layerId = UUID0;
paths = (
{
closed = 1;
nodes = (
"42 653 LINE",
"98 653 LINE",
"144 688 LINE",
"199 688 LINE",
"199 411 LINE",
"243 411 LINE",
"243 333 LINE",
"42 333 LINE",
"42 411 LINE",
"86 411 LINE",
"86 588 LINE",
"42 584 LINE"
);
}
);
width = 273;
}
);
unicode = 00B9;
},
{
glyphname = twosuperior;
layers = (
{
hints = (
{
horizontal = 1;
place = "{335, 83}";
},
{
horizontal = 1;
place = "{608, 95}";
}
);
layerId = UUID0;
paths = (
{
closed = 1;
nodes = (
"34 672 LINE",
"105 703 LINE",
"170 703 LINE",
"197 703 LINE",
"241 686 LINE",
"271 654 LINE",
"288 609 LINE",
"288 582 LINE",
"288 537 LINE",
"223 454 LINE",
"160 418 LINE",
"277 418 LINE",
"277 335 LINE",
"41 335 LINE",
"41 414 LINE",
"107 476 LINE",
"171 559 LINE",
"171 581 LINE",
"171 608 LINE",
"131 608 LINE",
"108 608 LINE",
"63 587 LINE"
);
}
);
width = 325;
}
);
unicode = 00B2;
},
{
glyphname = threesuperior;
layers = (
{
hints = (
{
horizontal = 1;
place = "{320, 86}";
},
{
horizontal = 1;
place = "{483, 67}";
},
{
horizontal = 1;
place = "{613, 90}";
}
);
layerId = UUID0;
paths = (
{
closed = 1;
nodes = (
"217 525 LINE",
"285 495 LINE",
"285 426 LINE",
"285 400 LINE",
"265 360 LINE",
"228 334 LINE",
"179 320 LINE",
"150 320 LINE",
"104 320 LINE",
"33 344 LINE",
"52 424 LINE",
"104 406 LINE",
"136 406 LINE",
"153 406 LINE",
"177 418 LINE",
"177 432 LINE",
"177 483 LINE",
"78 483 LINE",
"78 551 LINE",
"99 551 LINE",
"134 554 LINE",
"160 563 LINE",
"174 579 LINE",
"174 591 LINE",
"174 602 LINE",
"157 613 LINE",
"145 613 LINE",
"107 613 LINE",
"52 597 LINE",
"33 674 LINE",
"98 703 LINE",
"156 703 LINE",
"179 703 LINE",
"220 690 LINE",
"250 667 LINE",
"269 634 LINE",
"269 614 LINE",
"269 560 LINE"
);
}
);
width = 314;
}
);
unicode = 00B3;
},
{
glyphname = foursuperior;
layers = (
{
hints = (
{
horizontal = 1;
place = "{401, 76}";
},
{
horizontal = 1;
place = "{317, 21}";
target = up;
type = BottomGhost;
},
{
horizontal = 1;
place = "{672, -20}";
target = down;
type = TopGhost;
}
);
layerId = UUID0;
paths = (
{
closed = 1;
nodes = (
"20 478 LINE",
"167 672 LINE",
"292 672 LINE",
"292 478 LINE",
"338 478 LINE",
"338 401 LINE",
"292 401 LINE",
"292 317 LINE",
"172 317 LINE",
"172 401 LINE",
"20 401 LINE"
);
},
{
closed = 1;
nodes = (
"172 478 LINE",
"172 576 LINE",
"102 478 LINE"
);
}
);
width = 364;
}
);
unicode = 2074;
},
{
glyphname = fraction;
layers = (
{
hints = (
{
horizontal = 1;
place = "{0, 21}";
target = up;
type = BottomGhost;
},
{
horizontal = 1;
place = "{688, -20}";
target = down;
type = TopGhost;
}
);
layerId = UUID0;
paths = (
{
closed = 1;
nodes = (
"170 688 LINE",
"270 688 LINE",
"104 0 LINE",
"6 0 LINE"
);
}
);
width = 274;
}
);
unicode = 2044;
},
{
glyphname = asterisk;
layers = (
{
hints = (
{
horizontal = 1;
place = "{231, 21}";
target = up;
type = BottomGhost;
},
{
horizontal = 1;
place = "{688, -20}";
target = down;
type = TopGhost;
}
);
layerId = UUID0;
paths = (
{
closed = 1;
nodes = (
"186 432 LINE",
"32 499 LINE",
"85 605 LINE",
"220 524 LINE",
"209 688 LINE",
"331 688 LINE",
"318 525 LINE",
"449 607 LINE",
"505 499 LINE",
"349 432 LINE",
"463 312 LINE",
"362 231 LINE",
"266 376 LINE",
"172 231 LINE",
"72 313 LINE"
);
}
);
width = 535;
}
);
unicode = 002A;
},
{
glyphname = backslash;
layers = (
{
hints = (
{
horizontal = 1;
place = "{688, -20}";
target = down;
type = TopGhost;
},
{
horizontal = 1;
place = "{0, 21}";
target = up;
type = BottomGhost;
}
);
layerId = UUID0;
paths = (
{
closed = 1;
nodes = (
"292 0 LINE",
"194 0 LINE",
"28 688 LINE",
"127 688 LINE"
);
}
);
width = 320;
}
);
unicode = 005C;
},
{
glyphname = middot;
layers = (
{
hints = (
{
horizontal = 1;
place = "{300, 202}";
}
);
layerId = UUID0;
paths = (
{
closed = 1;
nodes = (
"42 400 LINE",
"42 422 LINE",
"61 459 LINE",
"92 486 LINE",
"132 502 LINE",
"154 502 LINE",
"178 502 LINE",
"218 485 LINE",
"249 457 LINE",
"267 420 LINE",
"267 400 LINE",
"267 378 LINE",
"248 341 LINE",
"216 314 LINE",
"176 300 LINE",
"154 300 LINE",
"131 300 LINE",
"90 315 LINE",
"60 342 LINE",
"42 379 LINE"
);
}
);
width = 308;
}
);
unicode = 00B7;
},
{
glyphname = bullet;
layers = (
{
hints = (
{
horizontal = 1;
place = "{56, 21}";
target = up;
type = BottomGhost;
},
{
horizontal = 1;
place = "{462, -20}";
target = down;
type = TopGhost;
}
);
layerId = UUID0;
paths = (
{
closed = 1;
nodes = (
"33 259 LINE",
"33 302 LINE",
"65 376 LINE",
"123 431 LINE",
"204 462 LINE",
"253 462 LINE",
"301 462 LINE",
"382 432 LINE",
"440 378 LINE",
"473 304 LINE",
"473 259 LINE",
"473 210 LINE",
"438 135 LINE",
"377 83 LINE",
"297 56 LINE",
"252 56 LINE",
"205 56 LINE",
"125 85 LINE",
"66 139 LINE",
"33 214 LINE"
);
}
);
width = 506;
}
);
unicode = 2022;
},
{
glyphname = colon;
layers = (
{
hints = (
{
horizontal = 1;
place = "{0, 202}";
},
{
horizontal = 1;
place = "{300, 202}";
}
);
layerId = UUID0;
paths = (
{
closed = 1;
nodes = (
"42 101 LINE",
"42 123 LINE",
"62 160 LINE",
"93 187 LINE",
"134 202 LINE",
"156 202 LINE",
"179 202 LINE",
"220 185 LINE",
"250 157 LINE",
"267 120 LINE",
"267 101 LINE",
"267 79 LINE",
"249 42 LINE",
"218 15 LINE",
"177 0 LINE",
"156 0 LINE",
"132 0 LINE",
"91 16 LINE",
"60 43 LINE",
"42 80 LINE"
);
},
{
closed = 1;
nodes = (
"42 400 LINE",
"42 422 LINE",
"62 460 LINE",
"93 487 LINE",
"134 502 LINE",
"156 502 LINE",
"179 502 LINE",
"220 485 LINE",
"250 457 LINE",
"267 420 LINE",
"267 400 LINE",
"267 378 LINE",
"249 341 LINE",
"218 315 LINE",
"177 300 LINE",
"156 300 LINE",
"132 300 LINE",
"91 315 LINE",
"60 343 LINE",
"42 379 LINE"
);
}
);
width = 310;
}
);
unicode = 003A;
},
{
glyphname = comma;
layers = (
{
hints = (
{
horizontal = 1;
place = "{-169, 117}";
},
{
horizontal = 1;
place = "{0, 187}";
}
);
layerId = UUID0;
paths = (
{
closed = 1;
nodes = (
"46 -52 LINE",
"80 -52 LINE",
"117 -51 LINE",
"135 -41 LINE",
"139 -20 LINE",
"139 0 LINE",
"46 0 LINE",
"46 187 LINE",
"251 187 LINE",
"249 85 LINE",
"248 31 LINE",
"242 -48 LINE",
"228 -105 LINE",
"201 -141 LINE",
"157 -161 LINE",
"91 -169 LINE",
"46 -169 LINE"
);
}
);
width = 295;
}
);
unicode = 002C;
},
{
glyphname = ellipsis;
layers = (
{
hints = (
{
horizontal = 1;
place = "{-16, 202}";
}
);
layerId = UUID0;
paths = (
{
closed = 1;
nodes = (
"28 86 LINE",
"28 108 LINE",
"47 145 LINE",
"79 171 LINE",
"119 187 LINE",
"141 187 LINE",
"163 187 LINE",
"204 170 LINE",
"235 143 LINE",
"253 106 LINE",
"253 86 LINE",
"253 63 LINE",
"234 26 LINE",
"203 -1 LINE",
"162 -16 LINE",
"141 -16 LINE",
"117 -16 LINE",
"76 0 LINE",
"46 27 LINE",
"28 64 LINE"
);
},
{
closed = 1;
nodes = (
"336 86 LINE",
"336 108 LINE",
"355 145 LINE",
"387 172 LINE",
"427 187 LINE",
"449 187 LINE",
"472 187 LINE",
"513 170 LINE",
"543 143 LINE",
"562 106 LINE",
"562 86 LINE",
"562 63 LINE",
"542 26 LINE",
"511 -1 LINE",
"471 -16 LINE",
"449 -16 LINE",
"425 -16 LINE",
"384 0 LINE",
"354 27 LINE",
"336 64 LINE"
);
},
{
closed = 1;
nodes = (
"645 86 LINE",
"645 108 LINE",
"663 145 LINE",
"694 172 LINE",
"735 187 LINE",
"757 187 LINE",
"779 187 LINE",
"820 170 LINE",
"851 143 LINE",
"869 106 LINE",
"869 86 LINE",
"869 63 LINE",
"851 26 LINE",
"819 -1 LINE",
"779 -16 LINE",
"757 -16 LINE",
"733 -16 LINE",
"692 0 LINE",
"662 27 LINE",
"645 64 LINE"
);
}
);
width = 897;
}
);
leftKerningGroup = period;
unicode = 2026;
},
{
glyphname = exclam;
layers = (
{
hints = (
{
horizontal = 1;
place = "{-16, 202}";
},
{
horizontal = 1;
place = "{690, -20}";
target = down;
type = TopGhost;
}
);
layerId = UUID0;
paths = (
{
closed = 1;
nodes = (
"46 535 LINE",
"46 690 LINE",
"257 690 LINE",
"257 535 LINE",
"218 252 LINE",
"86 252 LINE"
);
},
{
closed = 1;
nodes = (
"42 86 LINE",
"42 108 LINE",
"61 146 LINE",
"92 172 LINE",
"133 187 LINE",
"155 187 LINE",
"178 187 LINE",
"219 171 LINE",
"250 144 LINE",
"268 107 LINE",
"268 86 LINE",
"268 64 LINE",
"249 26 LINE",
"217 0 LINE",
"177 -16 LINE",
"155 -16 LINE",
"132 -16 LINE",
"90 0 LINE",
"60 28 LINE",
"42 64 LINE"
);
}
);
width = 305;
}
);
unicode = 0021;
},
{
glyphname = numbersign;
layers = (
{
hints = (
{
horizontal = 1;
place = "{245, 60}";
},
{
horizontal = 1;
place = "{379, 62}";
},
{
horizontal = 1;
place = "{0, 21}";
target = up;
type = BottomGhost;
},
{
horizontal = 1;
place = "{672, -20}";
target = down;
type = TopGhost;
}
);
layerId = UUID0;
paths = (
{
closed = 1;
nodes = (
"104 245 LINE",
"27 245 LINE",
"35 305 LINE",
"117 305 LINE",
"136 379 LINE",
"46 379 LINE",
"54 440 LINE",
"150 440 LINE",
"208 672 LINE",
"297 672 LINE",
"239 440 LINE",
"334 440 LINE",
"391 672 LINE",
"479 672 LINE",
"423 440 LINE",
"494 440 LINE",
"486 379 LINE",
"406 379 LINE",
"389 305 LINE",
"476 305 LINE",
"468 245 LINE",
"373 245 LINE",
"313 0 LINE",
"227 0 LINE",
"286 245 LINE",
"190 245 LINE",
"131 0 LINE",
"44 0 LINE"
);
},
{
closed = 1;
nodes = (
"301 305 LINE",
"318 379 LINE",
"224 379 LINE",
"205 305 LINE"
);
}
);
width = 521;
}
);
unicode = 0023;
},
{
glyphname = period;
layers = (
{
hints = (
{
horizontal = 1;
place = "{-16, 202}";
}
);
layerId = UUID0;
paths = (
{
closed = 1;
nodes = (
"28 86 LINE",
"28 108 LINE",
"47 145 LINE",
"79 171 LINE",
"119 187 LINE",
"141 187 LINE",
"163 187 LINE",
"204 170 LINE",
"235 143 LINE",
"253 106 LINE",
"253 86 LINE",
"253 63 LINE",
"234 26 LINE",
"203 -1 LINE",
"162 -16 LINE",
"141 -16 LINE",
"117 -16 LINE",
"76 0 LINE",
"46 27 LINE",
"28 64 LINE"
);
}
);
width = 280;
}
);
leftKerningGroup = period;
unicode = 002E;
},
{
glyphname = question;
layers = (
{
hints = (
{
horizontal = 1;
place = "{-16, 202}";
},
{
horizontal = 1;
place = "{533, 170}";
}
);
layerId = UUID0;
paths = (
{
closed = 1;
nodes = (
"261 501 LINE",
"261 533 LINE",
"182 533 LINE",
"104 533 LINE",
"52 507 LINE",
"38 659 LINE",
"145 703 LINE",
"239 703 LINE",
"291 703 LINE",
"379 677 LINE",
"444 629 LINE",
"481 560 LINE",
"481 517 LINE",
"481 486 LINE",
"464 439 LINE",
"434 403 LINE",
"393 375 LINE",
"370 364 LINE",
"357 358 LINE",
"328 344 LINE",
"298 330 LINE",
"274 316 LINE",
"268 309 LINE",
"259 300 LINE",
"257 279 LINE",
"257 267 LINE",
"257 254 LINE",
"117 254 LINE",
"105 292 LINE",
"104 299 LINE",
"100 322 LINE",
"100 332 LINE",
"100 351 LINE",
"107 379 LINE",
"122 403 LINE",
"141 421 LINE",
"153 429 LINE",
"167 439 LINE",
"205 457 LINE",
"238 475 LINE",
"261 492 LINE"
);
},
{
closed = 1;
nodes = (
"72 86 LINE",
"72 108 LINE",
"91 145 LINE",
"123 171 LINE",
"164 187 LINE",
"186 187 LINE",
"208 187 LINE",
"249 170 LINE",
"280 143 LINE",
"298 106 LINE",
"298 86 LINE",
"298 63 LINE",
"279 26 LINE",
"248 -1 LINE",
"207 -16 LINE",
"186 -16 LINE",
"162 -16 LINE",
"121 0 LINE",
"90 27 LINE",
"72 64 LINE"
);
}
);
width = 505;
}
);
unicode = 003F;
},
{
glyphname = questiondown;
layers = (
{
hints = (
{
horizontal = 1;
place = "{-16, 170}";
},
{
horizontal = 1;
place = "{501, 202}";
}
);
layerId = UUID0;
paths = (
{
closed = 1;
nodes = (
"245 187 LINE",
"245 154 LINE",
"324 154 LINE",
"401 154 LINE",
"454 181 LINE",
"467 28 LINE",
"360 -16 LINE",
"266 -16 LINE",
"215 -16 LINE",
"127 10 LINE",
"62 58 LINE",
"24 127 LINE",
"24 171 LINE",
"24 201 LINE",
"42 249 LINE",
"71 285 LINE",
"108 311 LINE",
"128 321 LINE",
"168 340 LINE",
"216 362 LINE",
"241 380 LINE",
"249 401 LINE",
"249 421 LINE",
"249 434 LINE",
"388 434 LINE",
"399 396 LINE",
"402 388 LINE",
"406 366 LINE",
"406 355 LINE",
"405 337 LINE",
"397 308 LINE",
"383 285 LINE",
"364 266 LINE",
"353 258 LINE",
"338 249 LINE",
"301 231 LINE",
"268 213 LINE",
"245 195 LINE"
);
},
{
closed = 1;
nodes = (
"433 602 LINE",
"433 580 LINE",
"414 542 LINE",
"382 516 LINE",
"341 501 LINE",
"320 501 LINE",
"297 501 LINE",
"256 517 LINE",
"226 545 LINE",
"208 581 LINE",
"208 602 LINE",
"208 624 LINE",
"226 661 LINE",
"257 688 LINE",
"298 703 LINE",
"320 703 LINE",
"343 703 LINE",
"384 687 LINE",
"415 659 LINE",
"433 623 LINE"
);
}
);
width = 506;
}
);
unicode = 00BF;
},
{
glyphname = quotedbl;
layers = (
{
hints = (
{
horizontal = 1;
place = "{501, 248}";
}
);
layerId = UUID0;
paths = (
{
closed = 1;
nodes = (
"218 749 LINE",
"362 749 LINE",
"334 501 LINE",
"238 501 LINE"
);
},
{
closed = 1;
nodes = (
"29 749 LINE",
"173 749 LINE",
"145 501 LINE",
"49 501 LINE"
);
}
);
width = 387;
}
);
leftKerningGroup = quotedbl;
rightKerningGroup = quotedbl;
unicode = 0022;
},
{
glyphname = quotesingle;
layers = (
{
hints = (
{
horizontal = 1;
place = "{501, 248}";
}
);
layerId = UUID0;
paths = (
{
closed = 1;
nodes = (
"29 749 LINE",
"174 749 LINE",
"146 501 LINE",
"50 501 LINE"
);
}
);
width = 198;
}
);
leftKerningGroup = quotedbl;
rightKerningGroup = quotedbl;
unicode = 0027;
},
{
glyphname = semicolon;
layers = (
{
hints = (
{
horizontal = 1;
place = "{-169, 117}";
},
{
horizontal = 1;
place = "{0, 187}";
},
{
horizontal = 1;
place = "{300, 202}";
}
);
layerId = UUID0;
paths = (
{
closed = 1;
nodes = (
"51 -52 LINE",
"84 -52 LINE",
"122 -51 LINE",
"140 -41 LINE",
"145 -20 LINE",
"145 0 LINE",
"51 0 LINE",
"51 187 LINE",
"256 187 LINE",
"254 125 LINE",
"253 61 LINE",
"249 -33 LINE",
"236 -98 LINE",
"210 -139 LINE",
"166 -161 LINE",
"99 -169 LINE",
"51 -169 LINE"
);
},
{
closed = 1;
nodes = (
"38 400 LINE",
"38 423 LINE",
"58 460 LINE",
"89 487 LINE",
"130 502 LINE",
"151 502 LINE",
"174 502 LINE",
"215 485 LINE",
"245 458 LINE",
"263 420 LINE",
"263 400 LINE",
"263 378 LINE",
"244 341 LINE",
"213 315 LINE",
"173 300 LINE",
"151 300 LINE",
"128 300 LINE",
"86 315 LINE",
"56 342 LINE",
"38 379 LINE"
);
}
);
width = 299;
}
);
unicode = 003B;
},
{
glyphname = slash;
layers = (
{
hints = (
{
horizontal = 1;
place = "{0, 21}";
target = up;
type = BottomGhost;
},
{
horizontal = 1;
place = "{688, -20}";
target = down;
type = TopGhost;
}
);
layerId = UUID0;
paths = (
{
closed = 1;
nodes = (
"193 688 LINE",
"293 688 LINE",
"127 0 LINE",
"29 0 LINE"
);
}
);
width = 321;
}
);
unicode = 002F;
},
{
glyphname = underscore;
layers = (
{
hints = (
{
horizontal = 1;
place = "{-16, 85}";
}
);
layerId = UUID0;
paths = (
{
closed = 1;
nodes = (
"40 69 LINE",
"372 69 LINE",
"372 -16 LINE",
"40 -16 LINE"
);
}
);
width = 412;
}
);
unicode = 005F;
},
{
glyphname = braceleft;
layers = (
{
hints = (
{
horizontal = 1;
place = "{-36, 21}";
target = up;
type = BottomGhost;
},
{
horizontal = 1;
place = "{712, -20}";
target = down;
type = TopGhost;
}
);
layerId = UUID0;
paths = (
{
closed = 1;
nodes = (
"67 238 LINE",
"67 266 LINE",
"34 296 LINE",
"6 299 LINE",
"6 377 LINE",
"34 380 LINE",
"67 409 LINE",
"67 437 LINE",
"67 498 LINE",
"104 595 LINE",
"170 666 LINE",
"264 707 LINE",
"322 712 LINE",
"322 625 LINE",
"289 613 LINE",
"261 515 LINE",
"261 437 LINE",
"261 402 LINE",
"220 356 LINE",
"185 338 LINE",
"220 319 LINE",
"261 273 LINE",
"261 238 LINE",
"261 157 LINE",
"292 63 LINE",
"322 51 LINE",
"322 -36 LINE",
"263 -32 LINE",
"168 11 LINE",
"103 82 LINE",
"67 179 LINE"
);
}
);
width = 355;
}
);
unicode = 007B;
},
{
glyphname = braceright;
layers = (
{
hints = (
{
horizontal = 1;
place = "{712, -20}";
target = down;
type = TopGhost;
},
{
horizontal = 1;
place = "{-36, 21}";
target = up;
type = BottomGhost;
}
);
layerId = UUID0;
paths = (
{
closed = 1;
nodes = (
"350 299 LINE",
"322 296 LINE",
"288 266 LINE",
"288 238 LINE",
"288 177 LINE",
"252 80 LINE",
"186 10 LINE",
"92 -31 LINE",
"33 -36 LINE",
"33 51 LINE",
"66 63 LINE",
"95 160 LINE",
"95 238 LINE",
"95 273 LINE",
"135 319 LINE",
"171 338 LINE",
"136 356 LINE",
"95 402 LINE",
"95 437 LINE",
"95 601 LINE",
"33 625 LINE",
"33 712 LINE",
"93 707 LINE",
"188 664 LINE",
"253 593 LINE",
"288 496 LINE",
"288 437 LINE",
"288 409 LINE",
"322 380 LINE",
"350 377 LINE"
);
}
);
width = 355;
}
);
unicode = 007D;
},
{
glyphname = bracketleft;
layers = (
{
hints = (
{
horizontal = 1;
place = "{0, 147}";
},
{
horizontal = 1;
place = "{539, 148}";
}
);
layerId = UUID0;
paths = (
{
closed = 1;
nodes = (
"58 688 LINE",
"413 688 LINE",
"413 539 LINE",
"273 539 LINE",
"273 147 LINE",
"413 147 LINE",
"413 0 LINE",
"58 0 LINE"
);
}
);
width = 447;
}
);
unicode = 005B;
},
{
glyphname = bracketright;
layers = (
{
hints = (
{
horizontal = 1;
place = "{0, 147}";
},
{
horizontal = 1;
place = "{539, 148}";
}
);
layerId = UUID0;
paths = (
{
closed = 1;
nodes = (
"34 147 LINE",
"174 147 LINE",
"174 539 LINE",
"34 539 LINE",
"34 688 LINE",
"389 688 LINE",
"389 0 LINE",
"34 0 LINE"
);
}
);
width = 447;
}
);
unicode = 005D;
},
{
glyphname = parenleft;
layers = (
{
hints = (
{
horizontal = 1;
place = "{772, -20}";
target = down;
type = TopGhost;
},
{
horizontal = 1;
place = "{-129, 21}";
target = up;
type = BottomGhost;
}
);
layerId = UUID0;
paths = (
{
closed = 1;
nodes = (
"395 -129 LINE",
"304 -121 LINE",
"164 -47 LINE",
"69 73 LINE",
"20 232 LINE",
"20 326 LINE",
"20 425 LINE",
"72 583 LINE",
"170 696 LINE",
"309 764 LINE",
"395 772 LINE",
"395 646 LINE",
"360 640 LINE",
"304 593 LINE",
"264 513 LINE",
"243 399 LINE",
"243 326 LINE",
"243 260 LINE",
"259 146 LINE",
"296 60 LINE",
"354 5 LINE",
"395 -2 LINE"
);
}
);
width = 417;
}
);
unicode = 0028;
},
{
glyphname = parenright;
layers = (
{
hints = (
{
horizontal = 1;
place = "{-129, 21}";
target = up;
type = BottomGhost;
},
{
horizontal = 1;
place = "{772, -20}";
target = down;
type = TopGhost;
}
);
layerId = UUID0;
paths = (
{
closed = 1;
nodes = (
"22 -2 LINE",
"58 4 LINE",
"114 51 LINE",
"153 134 LINE",
"175 250 LINE",
"175 326 LINE",
"175 396 LINE",
"155 508 LINE",
"116 590 LINE",
"60 640 LINE",
"22 646 LINE",
"22 772 LINE",
"115 763 LINE",
"256 689 LINE",
"350 572 LINE",
"397 417 LINE",
"397 326 LINE",
"397 229 LINE",
"347 69 LINE",
"250 -49 LINE",
"111 -121 LINE",
"22 -129 LINE"
);
}
);
width = 417;
}
);
unicode = 0029;
},
{
glyphname = emdash;
layers = (
{
hints = (
{
horizontal = 1;
place = "{147, 85}";
}
);
layerId = UUID0;
paths = (
{
closed = 1;
nodes = (
"47 232 LINE",
"560 232 LINE",
"560 147 LINE",
"47 147 LINE"
);
}
);
width = 607;
}
);
leftKerningGroup = hyphen;
rightKerningGroup = hyphen;
unicode = 2014;
},
{
glyphname = endash;
layers = (
{
hints = (
{
horizontal = 1;
place = "{147, 85}";
}
);
layerId = UUID0;
paths = (
{
closed = 1;
nodes = (
"47 232 LINE",
"428 232 LINE",
"428 147 LINE",
"47 147 LINE"
);
}
);
width = 475;
}
);
leftKerningGroup = hyphen;
rightKerningGroup = hyphen;
unicode = 2013;
},
{
glyphname = hyphen;
layers = (
{
hints = (
{
horizontal = 1;
place = "{199, 118}";
}
);
layerId = UUID0;
paths = (
{
closed = 1;
nodes = (
"46 317 LINE",
"315 317 LINE",
"315 199 LINE",
"46 199 LINE"
);
}
);
width = 361;
}
);
leftKerningGroup = hyphen;
rightKerningGroup = hyphen;
unicode = 002D;
},
{
glyphname = guillemotleft;
layers = (
{
hints = (
{
horizontal = 1;
place = "{63, 21}";
target = up;
type = BottomGhost;
},
{
horizontal = 1;
place = "{545, -20}";
target = down;
type = TopGhost;
}
);
layerId = UUID0;
paths = (
{
closed = 1;
nodes = (
"286 396 LINE",
"496 545 LINE",
"496 363 LINE",
"399 306 LINE",
"496 245 LINE",
"496 63 LINE",
"286 216 LINE"
);
},
{
closed = 1;
nodes = (
"26 396 LINE",
"236 545 LINE",
"236 363 LINE",
"140 306 LINE",
"236 245 LINE",
"236 63 LINE",
"26 216 LINE"
);
}
);
width = 542;
}
);
leftKerningGroup = guillemotleft;
rightKerningGroup = guillemotleft;
unicode = 00AB;
},
{
glyphname = guillemotright;
layers = (
{
hints = (
{
horizontal = 1;
place = "{63, 21}";
target = up;
type = BottomGhost;
},
{
horizontal = 1;
place = "{545, -20}";
target = down;
type = TopGhost;
}
);
layerId = UUID0;
paths = (
{
closed = 1;
nodes = (
"305 245 LINE",
"400 306 LINE",
"305 363 LINE",
"305 545 LINE",
"515 396 LINE",
"515 216 LINE",
"305 63 LINE"
);
},
{
closed = 1;
nodes = (
"46 245 LINE",
"142 306 LINE",
"46 363 LINE",
"46 545 LINE",
"256 396 LINE",
"256 216 LINE",
"46 63 LINE"
);
}
);
width = 541;
}
);
leftKerningGroup = guillemotright;
rightKerningGroup = guillemotright;
unicode = 00BB;
},
{
glyphname = guilsinglleft;
layers = (
{
hints = (
{
horizontal = 1;
place = "{63, 21}";
target = up;
type = BottomGhost;
},
{
horizontal = 1;
place = "{545, -20}";
target = down;
type = TopGhost;
}
);
layerId = UUID0;
paths = (
{
closed = 1;
nodes = (
"26 396 LINE",
"236 545 LINE",
"236 363 LINE",
"139 306 LINE",
"236 245 LINE",
"236 63 LINE",
"26 216 LINE"
);
}
);
width = 282;
}
);
leftKerningGroup = guillemotleft;
rightKerningGroup = guillemotleft;
unicode = 2039;
},
{
glyphname = guilsinglright;
layers = (
{
hints = (
{
horizontal = 1;
place = "{63, 21}";
target = up;
type = BottomGhost;
},
{
horizontal = 1;
place = "{545, -20}";
target = down;
type = TopGhost;
}
);
layerId = UUID0;
paths = (
{
closed = 1;
nodes = (
"46 245 LINE",
"142 306 LINE",
"46 363 LINE",
"46 545 LINE",
"256 396 LINE",
"256 216 LINE",
"46 63 LINE"
);
}
);
width = 282;
}
);
leftKerningGroup = guillemotright;
rightKerningGroup = guillemotright;
unicode = 203A;
},
{
glyphname = quotedblbase;
layers = (
{
hints = (
{
horizontal = 1;
place = "{-102, 248}";
}
);
layerId = UUID0;
paths = (
{
closed = 1;
nodes = (
"228 146 LINE",
"372 146 LINE",
"344 -102 LINE",
"248 -102 LINE"
);
},
{
closed = 1;
nodes = (
"39 146 LINE",
"183 146 LINE",
"154 -102 LINE",
"59 -102 LINE"
);
}
);
width = 409;
}
);
leftKerningGroup = quotesinglbase;
rightKerningGroup = quotesinglbase;
unicode = 201E;
},
{
glyphname = quotedblleft;
layers = (
{
hints = (
{
horizontal = 1;
place = "{347, 188}";
},
{
horizontal = 1;
place = "{586, 117}";
}
);
layerId = UUID0;
paths = (
{
closed = 1;
nodes = (
"246 586 LINE",
"212 586 LINE",
"193 586 LINE",
"170 583 LINE",
"157 573 LINE",
"153 552 LINE",
"153 534 LINE",
"246 534 LINE",
"246 347 LINE",
"41 347 LINE",
"42 356 LINE",
"42 387 LINE",
"42 409 LINE",
"43 473 LINE",
"45 521 LINE",
"51 592 LINE",
"66 644 LINE",
"93 677 LINE",
"137 696 LINE",
"201 703 LINE",
"246 703 LINE"
);
},
{
closed = 1;
nodes = (
"521 586 LINE",
"487 586 LINE",
"468 586 LINE",
"444 583 LINE",
"431 573 LINE",
"427 552 LINE",
"427 534 LINE",
"521 534 LINE",
"521 347 LINE",
"315 347 LINE",
"316 356 LINE",
"316 387 LINE",
"316 409 LINE",
"318 473 LINE",
"319 524 LINE",
"326 597 LINE",
"343 648 LINE",
"371 680 LINE",
"416 697 LINE",
"478 703 LINE",
"521 703 LINE"
);
}
);
width = 567;
}
);
leftKerningGroup = quoteleft;
rightKerningGroup = quoteleft;
unicode = 201C;
},
{
glyphname = quotedblright;
layers = (
{
hints = (
{
horizontal = 1;
place = "{331, 117}";
},
{
horizontal = 1;
place = "{500, 188}";
}
);
layerId = UUID0;
paths = (
{
closed = 1;
nodes = (
"49 448 LINE",
"82 448 LINE",
"120 449 LINE",
"138 459 LINE",
"143 480 LINE",
"143 500 LINE",
"49 500 LINE",
"49 688 LINE",
"254 688 LINE",
"252 625 LINE",
"251 563 LINE",
"248 471 LINE",
"235 406 LINE",
"211 364 LINE",
"166 340 LINE",
"98 331 LINE",
"49 331 LINE"
);
},
{
closed = 1;
nodes = (
"323 448 LINE",
"357 448 LINE",
"394 449 LINE",
"412 459 LINE",
"416 480 LINE",
"416 500 LINE",
"323 500 LINE",
"323 688 LINE",
"528 688 LINE",
"527 625 LINE",
"526 563 LINE",
"522 471 LINE",
"510 406 LINE",
"485 364 LINE",
"440 340 LINE",
"373 331 LINE",
"323 331 LINE"
);
}
);
width = 563;
}
);
leftKerningGroup = quoteright;
rightKerningGroup = quoteright;
unicode = 201D;
},
{
glyphname = quoteleft;
layers = (
{
hints = (
{
horizontal = 1;
place = "{347, 188}";
},
{
horizontal = 1;
place = "{586, 117}";
}
);
layerId = UUID0;
paths = (
{
closed = 1;
nodes = (
"246 586 LINE",
"212 586 LINE",
"193 586 LINE",
"170 583 LINE",
"157 573 LINE",
"153 552 LINE",
"153 534 LINE",
"246 534 LINE",
"246 347 LINE",
"41 347 LINE",
"42 356 LINE",
"42 387 LINE",
"42 409 LINE",
"43 473 LINE",
"45 521 LINE",
"51 592 LINE",
"66 644 LINE",
"93 677 LINE",
"137 696 LINE",
"201 703 LINE",
"246 703 LINE"
);
}
);
width = 293;
}
);
leftKerningGroup = quoteleft;
rightKerningGroup = quoteleft;
unicode = 2018;
},
{
glyphname = quoteright;
layers = (
{
hints = (
{
horizontal = 1;
place = "{331, 117}";
},
{
horizontal = 1;
place = "{500, 188}";
}
);
layerId = UUID0;
paths = (
{
closed = 1;
nodes = (
"49 448 LINE",
"82 448 LINE",
"120 449 LINE",
"138 459 LINE",
"143 480 LINE",
"143 500 LINE",
"49 500 LINE",
"49 688 LINE",
"254 688 LINE",
"252 625 LINE",
"251 563 LINE",
"248 471 LINE",
"235 406 LINE",
"211 364 LINE",
"166 340 LINE",
"98 331 LINE",
"49 331 LINE"
);
}
);
width = 288;
}
);
leftKerningGroup = quoteright;
rightKerningGroup = quoteright;
unicode = 2019;
},
{
glyphname = quotesinglbase;
layers = (
{
hints = (
{
horizontal = 1;
place = "{-125, 248}";
}
);
layerId = UUID0;
paths = (
{
closed = 1;
nodes = (
"40 124 LINE",
"185 124 LINE",
"156 -125 LINE",
"61 -125 LINE"
);
}
);
width = 224;
}
);
leftKerningGroup = quotesinglbase;
rightKerningGroup = quotesinglbase;
unicode = 201A;
},
{
glyphname = .notdef;
layers = (
{
hints = (
{
horizontal = 1;
place = "{0, 33}";
},
{
horizontal = 1;
place = "{633, 33}";
}
);
layerId = UUID0;
paths = (
{
closed = 1;
nodes = (
"33 0 LINE",
"33 667 LINE",
"299 667 LINE",
"299 0 LINE"
);
},
{
closed = 1;
nodes = (
"66 33 LINE",
"266 33 LINE",
"266 633 LINE",
"66 633 LINE"
);
}
);
width = 365;
}
);
},
{
glyphname = Euro;
layers = (
{
hints = (
{
horizontal = 1;
place = "{-16, 181}";
},
{
horizontal = 1;
place = "{240, 60}";
},
{
horizontal = 1;
place = "{374, 62}";
},
{
horizontal = 1;
place = "{510, 181}";
}
);
layerId = UUID0;
paths = (
{
closed = 1;
nodes = (
"478 165 LINE",
"495 165 LINE",
"524 168 LINE",
"553 175 LINE",
"583 186 LINE",
"602 193 LINE",
"627 36 LINE",
"537 -16 LINE",
"439 -16 LINE",
"375 -16 LINE",
"263 22 LINE",
"172 90 LINE",
"109 185 LINE",
"94 240 LINE",
"26 240 LINE",
"26 300 LINE",
"83 300 LINE",
"82 310 LINE",
"81 329 LINE",
"81 339 LINE",
"81 356 LINE",
"83 374 LINE",
"26 374 LINE",
"26 436 LINE",
"93 436 LINE",
"108 492 LINE",
"172 585 LINE",
"262 653 LINE",
"372 690 LINE",
"434 690 LINE",
"536 690 LINE",
"628 638 LINE",
"602 482 LINE",
"528 510 LINE",
"472 510 LINE",
"368 510 LINE",
"327 436 LINE",
"472 436 LINE",
"472 374 LINE",
"308 374 LINE",
"307 366 LINE",
"306 349 LINE",
"306 340 LINE",
"306 318 LINE",
"309 300 LINE",
"472 300 LINE",
"472 240 LINE",
"330 240 LINE",
"373 165 LINE"
);
}
);
width = 664;
}
);
unicode = 20AC;
},
{
glyphname = cent;
layers = (
{
hints = (
{
horizontal = 1;
place = "{581, -20}";
target = down;
type = TopGhost;
},
{
horizontal = 1;
place = "{-16, 21}";
target = up;
type = BottomGhost;
},
{
horizontal = 1;
place = "{-91, 21}";
target = up;
type = BottomGhost;
}
);
layerId = UUID0;
paths = (
{
closed = 1;
nodes = (
"448 24 LINE",
"433 18 LINE",
"395 2 LINE",
"370 -6 LINE",
"370 -91 LINE",
"305 -91 LINE",
"305 -16 LINE",
"296 -16 LINE",
"237 -16 LINE",
"138 24 LINE",
"66 94 LINE",
"25 192 LINE",
"25 250 LINE",
"25 308 LINE",
"67 405 LINE",
"140 476 LINE",
"238 516 LINE",
"296 516 LINE",
"305 516 LINE",
"305 581 LINE",
"370 581 LINE",
"370 505 LINE",
"415 490 LINE",
"450 468 LINE",
"430 335 LINE",
"413 340 LINE",
"383 347 LINE",
"370 349 LINE",
"370 150 LINE",
"399 153 LINE",
"428 164 LINE"
);
},
{
closed = 1;
nodes = (
"305 349 LINE",
"272 341 LINE",
"233 288 LINE",
"233 250 LINE",
"233 231 LINE",
"244 198 LINE",
"263 172 LINE",
"289 155 LINE",
"305 151 LINE"
);
}
);
width = 492;
}
);
unicode = 00A2;
},
{
glyphname = currency;
layers = (
{
hints = (
{
horizontal = 1;
place = "{116, 114}";
},
{
horizontal = 1;
place = "{399, 117}";
},
{
horizontal = 1;
place = "{69, 21}";
target = up;
type = BottomGhost;
},
{
horizontal = 1;
place = "{556, -20}";
target = down;
type = TopGhost;
}
);
layerId = UUID0;
paths = (
{
closed = 1;
nodes = (
"107 185 LINE",
"59 240 LINE",
"59 314 LINE",
"59 352 LINE",
"83 416 LINE",
"105 442 LINE",
"36 511 LINE",
"81 556 LINE",
"154 483 LINE",
"208 516 LINE",
"277 516 LINE",
"345 516 LINE",
"403 481 LINE",
"478 556 LINE",
"523 511 LINE",
"452 440 LINE",
"498 389 LINE",
"498 314 LINE",
"498 240 LINE",
"450 187 LINE",
"523 114 LINE",
"479 69 LINE",
"400 147 LINE",
"345 116 LINE",
"276 116 LINE",
"209 116 LINE",
"157 146 LINE",
"81 69 LINE",
"36 114 LINE"
);
},
{
closed = 1;
nodes = (
"218 253 LINE",
"241 230 LINE",
"278 230 LINE",
"296 230 LINE",
"327 243 LINE",
"349 265 LINE",
"360 296 LINE",
"360 314 LINE",
"360 333 LINE",
"349 364 LINE",
"327 386 LINE",
"297 399 LINE",
"278 399 LINE",
"260 399 LINE",
"229 387 LINE",
"208 365 LINE",
"195 333 LINE",
"195 314 LINE",
"195 275 LINE"
);
}
);
width = 559;
}
);
unicode = 00A4;
},
{
glyphname = dollar;
layers = (
{
hints = (
{
horizontal = 1;
place = "{-91, 21}";
target = up;
type = BottomGhost;
},
{
horizontal = 1;
place = "{770, -20}";
target = down;
type = TopGhost;
}
);
layerId = UUID0;
paths = (
{
closed = 1;
nodes = (
"31 477 LINE",
"31 524 LINE",
"59 597 LINE",
"110 649 LINE",
"184 680 LINE",
"229 686 LINE",
"229 770 LINE",
"330 770 LINE",
"330 688 LINE",
"420 681 LINE",
"502 630 LINE",
"451 516 LINE",
"396 533 LINE",
"379 539 LINE",
"346 546 LINE",
"330 549 LINE",
"330 408 LINE",
"380 391 LINE",
"458 349 LINE",
"513 295 LINE",
"541 227 LINE",
"541 183 LINE",
"541 148 LINE",
"511 82 LINE",
"456 28 LINE",
"377 -7 LINE",
"330 -10 LINE",
"330 -91 LINE",
"229 -91 LINE",
"229 -15 LINE",
"113 -4 LINE",
"41 43 LINE",
"91 163 LINE",
"134 149 LINE",
"203 133 LINE",
"229 132 LINE",
"229 264 LINE",
"188 274 LINE",
"116 305 LINE",
"63 355 LINE",
"32 426 LINE"
);
},
{
closed = 1;
nodes = (
"229 538 LINE",
"211 529 LINE",
"190 506 LINE",
"190 487 LINE",
"190 467 LINE",
"209 445 LINE",
"229 437 LINE"
);
},
{
closed = 1;
nodes = (
"330 142 LINE",
"340 146 LINE",
"357 153 LINE",
"369 164 LINE",
"375 178 LINE",
"375 188 LINE",
"375 204 LINE",
"348 227 LINE",
"330 231 LINE"
);
}
);
width = 566;
}
);
unicode = 0024;
},
{
glyphname = florin;
layers = (
{
hints = (
{
horizontal = 1;
place = "{377, 124}";
},
{
horizontal = 1;
place = "{608, 159}";
},
{
horizontal = 1;
place = "{0, 21}";
target = up;
type = BottomGhost;
}
);
layerId = UUID0;
paths = (
{
closed = 1;
nodes = (
"356 608 LINE",
"299 608 LINE",
"299 548 LINE",
"299 501 LINE",
"425 501 LINE",
"425 377 LINE",
"299 377 LINE",
"299 0 LINE",
"87 0 LINE",
"87 377 LINE",
"26 377 LINE",
"26 501 LINE",
"87 501 LINE",
"87 555 LINE",
"87 605 LINE",
"110 685 LINE",
"156 739 LINE",
"225 768 LINE",
"271 768 LINE",
"344 768 LINE",
"434 729 LINE",
"427 594 LINE",
"383 608 LINE"
);
}
);
width = 435;
}
);
unicode = 0192;
},
{
glyphname = sterling;
layers = (
{
hints = (
{
horizontal = 1;
place = "{0, 146}";
},
{
horizontal = 1;
place = "{301, 85}";
},
{
horizontal = 1;
place = "{553, 150}";
}
);
layerId = UUID0;
paths = (
{
closed = 1;
nodes = (
"376 553 LINE",
"347 553 LINE",
"314 524 LINE",
"314 496 LINE",
"314 386 LINE",
"439 386 LINE",
"439 301 LINE",
"314 301 LINE",
"314 146 LINE",
"482 146 LINE",
"482 0 LINE",
"36 0 LINE",
"36 63 LINE",
"67 64 LINE",
"100 109 LINE",
"100 146 LINE",
"100 301 LINE",
"36 301 LINE",
"36 386 LINE",
"100 386 LINE",
"100 437 LINE",
"100 500 LINE",
"120 599 LINE",
"170 667 LINE",
"254 703 LINE",
"317 703 LINE",
"399 703 LINE",
"490 665 LINE",
"473 529 LINE",
"416 553 LINE"
);
}
);
width = 524;
}
);
unicode = 00A3;
},
{
glyphname = yen;
layers = (
{
hints = (
{
horizontal = 1;
place = "{189, 63}";
},
{
horizontal = 1;
place = "{86, 60}";
},
{
horizontal = 1;
place = "{0, 21}";
target = up;
type = BottomGhost;
},
{
horizontal = 1;
place = "{672, -20}";
target = down;
type = TopGhost;
}
);
layerId = UUID0;
paths = (
{
closed = 1;
nodes = (
"77 146 LINE",
"228 146 LINE",
"228 189 LINE",
"77 189 LINE",
"77 252 LINE",
"202 252 LINE",
"23 672 LINE",
"154 672 LINE",
"286 309 LINE",
"416 672 LINE",
"547 672 LINE",
"369 252 LINE",
"502 252 LINE",
"502 189 LINE",
"343 189 LINE",
"343 146 LINE",
"502 146 LINE",
"502 86 LINE",
"343 86 LINE",
"343 0 LINE",
"228 0 LINE",
"228 86 LINE",
"77 86 LINE"
);
}
);
width = 572;
}
);
unicode = 00A5;
},
{
glyphname = plus;
layers = (
{
hints = (
{
horizontal = 1;
place = "{224, 56}";
},
{
horizontal = 1;
place = "{0, 21}";
target = up;
type = BottomGhost;
},
{
horizontal = 1;
place = "{501, -20}";
target = down;
type = TopGhost;
}
);
layerId = UUID0;
paths = (
{
closed = 1;
nodes = (
"238 224 LINE",
"23 224 LINE",
"23 279 LINE",
"238 279 LINE",
"238 501 LINE",
"297 501 LINE",
"297 279 LINE",
"510 279 LINE",
"510 224 LINE",
"297 224 LINE",
"297 0 LINE",
"238 0 LINE"
);
}
);
width = 533;
}
);
unicode = 002B;
},
{
glyphname = minus;
layers = (
{
hints = (
{
horizontal = 1;
place = "{0, 56}";
}
);
layerId = UUID0;
paths = (
{
closed = 1;
nodes = (
"50 56 LINE",
"453 56 LINE",
"453 0 LINE",
"50 0 LINE"
);
}
);
width = 503;
}
);
unicode = 2212;
},
{
glyphname = multiply;
layers = (
{
hints = (
{
horizontal = 1;
place = "{60, 21}";
target = up;
type = BottomGhost;
},
{
horizontal = 1;
place = "{449, -20}";
target = down;
type = TopGhost;
}
);
layerId = UUID0;
paths = (
{
closed = 1;
nodes = (
"188 251 LINE",
"32 408 LINE",
"73 449 LINE",
"230 293 LINE",
"387 449 LINE",
"428 408 LINE",
"272 251 LINE",
"424 99 LINE",
"384 60 LINE",
"230 212 LINE",
"76 60 LINE",
"36 99 LINE"
);
}
);
width = 459;
}
);
unicode = 00D7;
},
{
glyphname = divide;
layers = (
{
hints = (
{
horizontal = 1;
place = "{10, 177}";
},
{
horizontal = 1;
place = "{228, 56}";
},
{
horizontal = 1;
place = "{325, 177}";
}
);
layerId = UUID0;
paths = (
{
closed = 1;
nodes = (
"24 283 LINE",
"428 283 LINE",
"428 228 LINE",
"24 228 LINE"
);
},
{
closed = 1;
nodes = (
"126 98 LINE",
"126 117 LINE",
"143 150 LINE",
"170 173 LINE",
"207 187 LINE",
"226 187 LINE",
"246 187 LINE",
"281 172 LINE",
"308 148 LINE",
"323 116 LINE",
"323 98 LINE",
"323 79 LINE",
"308 46 LINE",
"281 23 LINE",
"245 10 LINE",
"226 10 LINE",
"205 10 LINE",
"169 23 LINE",
"142 47 LINE",
"126 79 LINE"
);
},
{
closed = 1;
nodes = (
"126 413 LINE",
"126 432 LINE",
"143 465 LINE",
"171 488 LINE",
"207 502 LINE",
"226 502 LINE",
"246 502 LINE",
"281 487 LINE",
"308 463 LINE",
"323 431 LINE",
"323 413 LINE",
"323 394 LINE",
"308 362 LINE",
"281 338 LINE",
"245 325 LINE",
"226 325 LINE",
"204 325 LINE",
"168 339 LINE",
"142 363 LINE",
"126 395 LINE"
);
}
);
width = 452;
}
);
unicode = 00F7;
},
{
glyphname = equal;
layers = (
{
hints = (
{
horizontal = 1;
place = "{155, 61}";
},
{
horizontal = 1;
place = "{290, 62}";
}
);
layerId = UUID0;
paths = (
{
closed = 1;
nodes = (
"52 216 LINE",
"357 216 LINE",
"357 155 LINE",
"52 155 LINE"
);
},
{
closed = 1;
nodes = (
"52 352 LINE",
"357 352 LINE",
"357 290 LINE",
"52 290 LINE"
);
}
);
width = 409;
}
);
unicode = 003D;
},
{
glyphname = notequal;
layers = (
{
hints = (
{
horizontal = 1;
place = "{0, 216}";
},
{
horizontal = 1;
place = "{155, 61}";
},
{
horizontal = 1;
place = "{290, 62}";
},
{
horizontal = 1;
place = "{290, 211}";
}
);
layerId = UUID0;
paths = (
{
closed = 1;
nodes = (
"33 216 LINE",
"142 216 LINE",
"161 290 LINE",
"33 290 LINE",
"33 352 LINE",
"177 352 LINE",
"217 501 LINE",
"286 501 LINE",
"246 352 LINE",
"338 352 LINE",
"338 290 LINE",
"229 290 LINE",
"210 216 LINE",
"338 216 LINE",
"338 155 LINE",
"194 155 LINE",
"152 0 LINE",
"85 0 LINE",
"125 155 LINE",
"33 155 LINE"
);
}
);
width = 371;
}
);
unicode = 2260;
},
{
glyphname = greater;
layers = (
{
hints = (
{
horizontal = 1;
place = "{0, 21}";
target = up;
type = BottomGhost;
},
{
horizontal = 1;
place = "{602, -20}";
target = down;
type = TopGhost;
}
);
layerId = UUID0;
paths = (
{
closed = 1;
nodes = (
"50 162 LINE",
"347 303 LINE",
"50 451 LINE",
"50 602 LINE",
"431 393 LINE",
"431 223 LINE",
"50 0 LINE"
);
}
);
width = 458;
}
);
unicode = 003E;
},
{
glyphname = less;
layers = (
{
hints = (
{
horizontal = 1;
place = "{0, 21}";
target = up;
type = BottomGhost;
},
{
horizontal = 1;
place = "{602, -20}";
target = down;
type = TopGhost;
}
);
layerId = UUID0;
paths = (
{
closed = 1;
nodes = (
"27 393 LINE",
"408 602 LINE",
"408 451 LINE",
"111 303 LINE",
"408 162 LINE",
"408 0 LINE",
"27 223 LINE"
);
}
);
width = 458;
}
);
unicode = 003C;
},
{
glyphname = greaterequal;
layers = (
{
hints = (
{
horizontal = 1;
place = "{0, 56}";
},
{
horizontal = 1;
place = "{772, -20}";
target = down;
type = TopGhost;
}
);
layerId = UUID0;
paths = (
{
closed = 1;
nodes = (
"56 333 LINE",
"353 474 LINE",
"56 622 LINE",
"56 772 LINE",
"437 563 LINE",
"437 394 LINE",
"56 171 LINE"
);
},
{
closed = 1;
nodes = (
"44 56 LINE",
"447 56 LINE",
"447 0 LINE",
"44 0 LINE"
);
}
);
width = 481;
}
);
unicode = 2265;
},
{
glyphname = lessequal;
layers = (
{
hints = (
{
horizontal = 1;
place = "{0, 56}";
},
{
horizontal = 1;
place = "{772, -20}";
target = down;
type = TopGhost;
}
);
layerId = UUID0;
paths = (
{
closed = 1;
nodes = (
"45 563 LINE",
"426 772 LINE",
"426 622 LINE",
"129 474 LINE",
"426 333 LINE",
"426 171 LINE",
"45 394 LINE"
);
},
{
closed = 1;
nodes = (
"33 56 LINE",
"437 56 LINE",
"437 0 LINE",
"33 0 LINE"
);
}
);
width = 481;
}
);
unicode = 2264;
},
{
glyphname = plusminus;
layers = (
{
hints = (
{
horizontal = 1;
place = "{0, 56}";
},
{
horizontal = 1;
place = "{314, 57}";
},
{
horizontal = 1;
place = "{592, -20}";
target = down;
type = TopGhost;
}
);
layerId = UUID0;
paths = (
{
closed = 1;
nodes = (
"250 314 LINE",
"35 314 LINE",
"35 371 LINE",
"250 371 LINE",
"250 592 LINE",
"309 592 LINE",
"309 371 LINE",
"521 371 LINE",
"521 314 LINE",
"309 314 LINE",
"309 91 LINE",
"250 91 LINE"
);
},
{
closed = 1;
nodes = (
"35 56 LINE",
"521 56 LINE",
"521 0 LINE",
"35 0 LINE"
);
}
);
width = 557;
}
);
unicode = 00B1;
},
{
glyphname = asciitilde;
layers = (
{
hints = (
{
horizontal = 1;
place = "{292, 169}";
},
{
horizontal = 1;
place = "{347, 169}";
}
);
layerId = UUID0;
paths = (
{
closed = 1;
nodes = (
"190 347 LINE",
"180 347 LINE",
"164 338 LINE",
"152 324 LINE",
"143 305 LINE",
"139 295 LINE",
"21 343 LINE",
"35 384 LINE",
"72 448 LINE",
"117 492 LINE",
"166 516 LINE",
"191 516 LINE",
"214 516 LINE",
"261 505 LINE",
"275 500 LINE",
"303 489 LINE",
"337 474 LINE",
"362 465 LINE",
"383 461 LINE",
"397 461 LINE",
"418 461 LINE",
"440 485 LINE",
"448 506 LINE",
"564 458 LINE",
"537 375 LINE",
"456 292 LINE",
"401 292 LINE",
"384 292 LINE",
"354 296 LINE",
"326 302 LINE",
"300 312 LINE",
"286 317 LINE",
"237 338 LINE",
"216 347 LINE"
);
}
);
width = 580;
}
);
unicode = 007E;
},
{
glyphname = logicalnot;
layers = (
{
hints = (
{
horizontal = 1;
place = "{259, 157}";
},
{
horizontal = 1;
place = "{85, 21}";
target = up;
type = BottomGhost;
}
);
layerId = UUID0;
paths = (
{
closed = 1;
nodes = (
"479 416 LINE",
"479 85 LINE",
"372 85 LINE",
"372 259 LINE",
"39 259 LINE",
"39 416 LINE"
);
}
);
width = 534;
}
);
unicode = 00AC;
},
{
glyphname = increment;
layers = (
{
hints = (
{
horizontal = 1;
place = "{0, 112}";
},
{
horizontal = 1;
place = "{672, -20}";
target = down;
type = TopGhost;
}
);
layerId = UUID0;
paths = (
{
closed = 1;
nodes = (
"206 672 LINE",
"383 672 LINE",
"567 0 LINE",
"25 0 LINE"
);
},
{
closed = 1;
nodes = (
"390 112 LINE",
"295 518 LINE",
"204 112 LINE"
);
}
);
width = 591;
}
);
unicode = 0394;
},
{
glyphname = percent;
layers = (
{
hints = (
{
horizontal = 1;
place = "{-16, 100}";
},
{
horizontal = 1;
place = "{274, 102}";
},
{
horizontal = 1;
place = "{300, 99}";
},
{
horizontal = 1;
place = "{590, 101}";
},
{
horizontal = 1;
place = "{0, 21}";
target = up;
type = BottomGhost;
}
);
layerId = UUID0;
paths = (
{
closed = 1;
nodes = (
"487 672 LINE",
"557 672 LINE",
"391 0 LINE",
"323 0 LINE"
);
},
{
closed = 1;
nodes = (
"682 -16 LINE",
"639 -16 LINE",
"572 14 LINE",
"525 67 LINE",
"500 138 LINE",
"500 180 LINE",
"500 222 LINE",
"527 294 LINE",
"575 347 LINE",
"642 376 LINE",
"682 376 LINE",
"724 376 LINE",
"792 344 LINE",
"838 290 LINE",
"863 218 LINE",
"863 180 LINE",
"863 137 LINE",
"837 65 LINE",
"789 14 LINE",
"722 -16 LINE"
);
},
{
closed = 1;
nodes = (
"682 84 LINE",
"697 84 LINE",
"719 102 LINE",
"733 130 LINE",
"739 164 LINE",
"739 180 LINE",
"739 198 LINE",
"731 232 LINE",
"717 259 LINE",
"695 274 LINE",
"682 274 LINE",
"667 274 LINE",
"645 258 LINE",
"631 232 LINE",
"624 198 LINE",
"624 180 LINE",
"624 161 LINE",
"631 126 LINE",
"646 100 LINE",
"667 84 LINE"
);
},
{
closed = 1;
nodes = (
"205 300 LINE",
"161 300 LINE",
"94 332 LINE",
"48 385 LINE",
"24 456 LINE",
"24 495 LINE",
"24 538 LINE",
"51 610 LINE",
"100 662 LINE",
"167 690 LINE",
"208 690 LINE",
"252 690 LINE",
"320 656 LINE",
"365 601 LINE",
"388 531 LINE",
"388 495 LINE",
"388 452 LINE",
"361 380 LINE",
"313 329 LINE",
"245 300 LINE"
);
},
{
closed = 1;
nodes = (
"205 398 LINE",
"221 398 LINE",
"243 417 LINE",
"257 445 LINE",
"264 479 LINE",
"264 495 LINE",
"264 514 LINE",
"256 548 LINE",
"241 574 LINE",
"219 590 LINE",
"205 590 LINE",
"189 590 LINE",
"167 573 LINE",
"154 545 LINE",
"148 512 LINE",
"148 495 LINE",
"148 476 LINE",
"156 441 LINE",
"170 415 LINE",
"191 398 LINE"
);
}
);
width = 888;
}
);
unicode = 0025;
},
{
glyphname = perthousand;
layers = (
{
hints = (
{
horizontal = 1;
place = "{-16, 100}";
},
{
horizontal = 1;
place = "{274, 102}";
},
{
horizontal = 1;
place = "{300, 99}";
},
{
horizontal = 1;
place = "{590, 101}";
},
{
horizontal = 1;
place = "{0, 21}";
target = up;
type = BottomGhost;
}
);
layerId = UUID0;
paths = (
{
closed = 1;
nodes = (
"487 672 LINE",
"557 672 LINE",
"391 0 LINE",
"323 0 LINE"
);
},
{
closed = 1;
nodes = (
"682 -16 LINE",
"638 -16 LINE",
"571 16 LINE",
"525 70 LINE",
"501 141 LINE",
"501 180 LINE",
"501 222 LINE",
"528 294 LINE",
"576 347 LINE",
"642 376 LINE",
"682 376 LINE",
"725 376 LINE",
"792 344 LINE",
"839 290 LINE",
"863 218 LINE",
"863 180 LINE",
"863 137 LINE",
"837 65 LINE",
"789 13 LINE",
"722 -16 LINE"
);
},
{
closed = 1;
nodes = (
"682 84 LINE",
"697 84 LINE",
"719 101 LINE",
"732 127 LINE",
"739 162 LINE",
"739 180 LINE",
"739 198 LINE",
"732 232 LINE",
"717 259 LINE",
"696 274 LINE",
"682 274 LINE",
"666 274 LINE",
"644 257 LINE",
"631 230 LINE",
"625 196 LINE",
"625 180 LINE",
"625 161 LINE",
"632 126 LINE",
"647 100 LINE",
"668 84 LINE"
);
},
{
closed = 1;
nodes = (
"205 300 LINE",
"161 300 LINE",
"94 332 LINE",
"48 386 LINE",
"24 456 LINE",
"24 495 LINE",
"24 541 LINE",
"53 613 LINE",
"103 664 LINE",
"169 690 LINE",
"208 690 LINE",
"252 690 LINE",
"320 657 LINE",
"365 602 LINE",
"388 532 LINE",
"388 495 LINE",
"388 452 LINE",
"361 380 LINE",
"313 329 LINE",
"246 300 LINE"
);
},
{
closed = 1;
nodes = (
"205 398 LINE",
"221 398 LINE",
"244 417 LINE",
"258 444 LINE",
"264 479 LINE",
"264 495 LINE",
"264 513 LINE",
"256 547 LINE",
"242 574 LINE",
"220 590 LINE",
"205 590 LINE",
"190 590 LINE",
"169 574 LINE",
"155 547 LINE",
"148 513 LINE",
"148 495 LINE",
"148 476 LINE",
"156 441 LINE",
"170 415 LINE",
"191 398 LINE"
);
},
{
closed = 1;
nodes = (
"1093 -16 LINE",
"1049 -16 LINE",
"982 16 LINE",
"936 70 LINE",
"911 141 LINE",
"911 180 LINE",
"911 222 LINE",
"938 294 LINE",
"986 347 LINE",
"1053 376 LINE",
"1093 376 LINE",
"1135 376 LINE",
"1203 344 LINE",
"1250 290 LINE",
"1274 218 LINE",
"1274 180 LINE",
"1274 137 LINE",
"1248 65 LINE",
"1200 13 LINE",
"1133 -16 LINE"
);
},
{
closed = 1;
nodes = (
"1093 84 LINE",
"1108 84 LINE",
"1130 101 LINE",
"1144 127 LINE",
"1150 162 LINE",
"1150 180 LINE",
"1150 198 LINE",
"1143 232 LINE",
"1128 259 LINE",
"1107 274 LINE",
"1093 274 LINE",
"1078 274 LINE",
"1056 258 LINE",
"1042 232 LINE",
"1035 198 LINE",
"1035 180 LINE",
"1035 161 LINE",
"1042 126 LINE",
"1057 100 LINE",
"1079 84 LINE"
);
}
);
width = 1299;
}
);
unicode = 2030;
},
{
glyphname = lozenge;
layers = (
{
hints = (
{
horizontal = 1;
place = "{0, 21}";
target = up;
type = BottomGhost;
},
{
horizontal = 1;
place = "{688, -20}";
target = down;
type = TopGhost;
}
);
layerId = UUID0;
paths = (
{
closed = 1;
nodes = (
"335 347 LINE",
"253 604 LINE",
"163 347 LINE",
"253 84 LINE"
);
},
{
closed = 1;
nodes = (
"27 347 LINE",
"153 688 LINE",
"348 688 LINE",
"482 347 LINE",
"335 0 LINE",
"153 0 LINE"
);
}
);
width = 509;
}
);
unicode = 25CA;
},
{
glyphname = at;
layers = (
{
hints = (
{
horizontal = 1;
place = "{-16, 120}";
},
{
horizontal = 1;
place = "{185, 99}";
},
{
horizontal = 1;
place = "{440, 102}";
},
{
horizontal = 1;
place = "{624, 117}";
},
{
horizontal = 1;
place = "{185, 111}";
}
);
layerId = UUID0;
paths = (
{
closed = 1;
nodes = (
"665 184 LINE",
"559 184 LINE",
"514 258 LINE",
"496 224 LINE",
"436 185 LINE",
"393 185 LINE",
"352 185 LINE",
"291 218 LINE",
"249 271 LINE",
"228 335 LINE",
"228 366 LINE",
"228 404 LINE",
"256 468 LINE",
"302 516 LINE",
"361 542 LINE",
"394 542 LINE",
"447 542 LINE",
"557 538 LINE",
"616 533 LINE",
"616 304 LINE",
"635 284 LINE",
"652 284 LINE",
"670 284 LINE",
"693 308 LINE",
"706 344 LINE",
"711 388 LINE",
"711 408 LINE",
"711 624 LINE",
"444 624 LINE",
"381 624 LINE",
"275 584 LINE",
"199 514 LINE",
"157 417 LINE",
"157 360 LINE",
"157 295 LINE",
"204 200 LINE",
"283 136 LINE",
"385 104 LINE",
"439 104 LINE",
"550 104 LINE",
"640 150 LINE",
"698 50 LINE",
"669 33 LINE",
"611 8 LINE",
"549 -8 LINE",
"479 -16 LINE",
"439 -16 LINE",
"347 -16 LINE",
"197 41 LINE",
"89 140 LINE",
"31 278 LINE",
"31 359 LINE",
"31 436 LINE",
"86 574 LINE",
"192 679 LINE",
"346 740 LINE",
"443 740 LINE",
"533 740 LINE",
"678 696 LINE",
"781 612 LINE",
"838 489 LINE",
"838 410 LINE",
"838 359 LINE",
"816 276 LINE",
"772 216 LINE",
"708 184 LINE"
);
},
{
closed = 1;
nodes = (
"494 440 LINE",
"428 440 LINE",
"413 440 LINE",
"388 428 LINE",
"370 407 LINE",
"360 379 LINE",
"360 364 LINE",
"360 350 LINE",
"370 325 LINE",
"389 307 LINE",
"413 296 LINE",
"428 296 LINE",
"441 296 LINE",
"466 307 LINE",
"484 325 LINE",
"494 348 LINE",
"494 361 LINE"
);
}
);
width = 864;
}
);
unicode = 0040;
},
{
glyphname = ampersand;
layers = (
{
hints = (
{
horizontal = 1;
place = "{-16, 147}";
},
{
horizontal = 1;
place = "{560, 131}";
},
{
horizontal = 1;
place = "{0, 21}";
target = up;
type = BottomGhost;
}
);
layerId = UUID0;
paths = (
{
closed = 1;
nodes = (
"637 246 LINE",
"602 177 LINE",
"553 136 LINE",
"671 0 LINE",
"470 0 LINE",
"427 50 LINE",
"390 21 LINE",
"303 -16 LINE",
"256 -16 LINE",
"205 -16 LINE",
"121 13 LINE",
"61 65 LINE",
"28 141 LINE",
"28 188 LINE",
"28 226 LINE",
"49 282 LINE",
"86 325 LINE",
"137 357 LINE",
"167 371 LINE",
"97 448 LINE",
"97 516 LINE",
"97 548 LINE",
"129 611 LINE",
"188 660 LINE",
"272 690 LINE",
"326 690 LINE",
"371 690 LINE",
"446 666 LINE",
"500 621 LINE",
"531 557 LINE",
"531 518 LINE",
"531 491 LINE",
"514 439 LINE",
"481 392 LINE",
"433 352 LINE",
"400 338 LINE",
"405 332 LINE",
"423 310 LINE",
"443 285 LINE",
"462 262 LINE",
"467 256 LINE",
"547 342 LINE"
);
},
{
closed = 1;
nodes = (
"206 194 LINE",
"206 167 LINE",
"237 132 LINE",
"265 132 LINE",
"304 132 LINE",
"326 153 LINE",
"244 258 LINE",
"206 236 LINE"
);
},
{
closed = 1;
nodes = (
"327 560 LINE",
"275 560 LINE",
"275 514 LINE",
"275 495 LINE",
"300 461 LINE",
"324 442 LINE",
"337 448 LINE",
"356 461 LINE",
"368 478 LINE",
"374 499 LINE",
"374 514 LINE",
"374 535 LINE",
"349 560 LINE"
);
}
);
width = 671;
}
);
unicode = 0026;
},
{
glyphname = paragraph;
layers = (
{
hints = (
{
horizontal = 1;
place = "{612, 75}";
},
{
horizontal = 1;
place = "{0, 21}";
target = up;
type = BottomGhost;
}
);
layerId = UUID0;
paths = (
{
closed = 1;
nodes = (
"258 355 LINE",
"216 355 LINE",
"174 355 LINE",
"104 380 LINE",
"52 424 LINE",
"23 485 LINE",
"23 521 LINE",
"23 558 LINE",
"56 619 LINE",
"118 663 LINE",
"205 688 LINE",
"258 688 LINE",
"482 688 LINE",
"482 0 LINE",
"402 0 LINE",
"402 612 LINE",
"339 612 LINE",
"339 0 LINE",
"258 0 LINE"
);
}
);
width = 556;
}
);
unicode = 00B6;
},
{
glyphname = section;
layers = (
{
hints = (
{
horizontal = 1;
place = "{-16, 129}";
},
{
horizontal = 1;
place = "{578, 125}";
}
);
layerId = UUID0;
paths = (
{
closed = 1;
nodes = (
"431 252 LINE",
"492 212 LINE",
"492 138 LINE",
"492 107 LINE",
"471 61 LINE",
"437 27 LINE",
"391 4 LINE",
"340 -10 LINE",
"287 -16 LINE",
"262 -16 LINE",
"154 -16 LINE",
"54 21 LINE",
"76 143 LINE",
"92 137 LINE",
"132 127 LINE",
"176 119 LINE",
"220 113 LINE",
"242 113 LINE",
"288 113 LINE",
"288 136 LINE",
"288 142 LINE",
"281 150 LINE",
"264 158 LINE",
"234 168 LINE",
"211 177 LINE",
"172 191 LINE",
"156 197 LINE",
"111 217 LINE",
"70 249 LINE",
"42 295 LINE",
"42 327 LINE",
"42 403 LINE",
"102 447 LINE",
"42 486 LINE",
"42 563 LINE",
"43 603 LINE",
"83 657 LINE",
"146 689 LINE",
"225 703 LINE",
"267 703 LINE",
"384 703 LINE",
"463 666 LINE",
"442 555 LINE",
"432 558 LINE",
"399 566 LINE",
"358 573 LINE",
"311 578 LINE",
"287 578 LINE",
"240 578 LINE",
"240 559 LINE",
"240 548 LINE",
"277 531 LINE",
"334 511 LINE",
"399 486 LINE",
"456 452 LINE",
"494 405 LINE",
"494 373 LINE",
"494 332 LINE",
"460 270 LINE"
);
},
{
closed = 1;
nodes = (
"240 393 LINE",
"220 391 LINE",
"197 368 LINE",
"197 348 LINE",
"197 342 LINE",
"209 328 LINE",
"231 314 LINE",
"262 301 LINE",
"281 296 LINE",
"303 296 LINE",
"331 318 LINE",
"331 339 LINE",
"331 354 LINE",
"284 380 LINE"
);
}
);
width = 533;
}
);
unicode = 00A7;
},
{
glyphname = copyright;
layers = (
{
hints = (
{
horizontal = 1;
place = "{-16, 60}";
},
{
horizontal = 1;
place = "{112, 63}";
},
{
horizontal = 1;
place = "{421, 63}";
},
{
horizontal = 1;
place = "{554, 58}";
}
);
layerId = UUID0;
paths = (
{
closed = 1;
nodes = (
"347 44 LINE",
"397 44 LINE",
"487 84 LINE",
"554 154 LINE",
"592 247 LINE",
"592 299 LINE",
"592 355 LINE",
"551 449 LINE",
"482 517 LINE",
"394 554 LINE",
"347 554 LINE",
"296 554 LINE",
"207 514 LINE",
"140 445 LINE",
"102 352 LINE",
"102 299 LINE",
"102 245 LINE",
"140 152 LINE",
"207 83 LINE",
"296 44 LINE"
);
},
{
closed = 1;
nodes = (
"347 -16 LINE",
"217 -16 LINE",
"125 78 LINE",
"35 171 LINE",
"35 302 LINE",
"35 371 LINE",
"85 480 LINE",
"128 521 LINE",
"147 540 LINE",
"194 573 LINE",
"250 597 LINE",
"314 611 LINE",
"351 611 LINE",
"478 611 LINE",
"570 519 LINE",
"662 427 LINE",
"662 299 LINE",
"662 169 LINE",
"569 77 LINE",
"478 -16 LINE"
);
},
{
closed = 1;
nodes = (
"247 298 LINE",
"247 240 LINE",
"308 176 LINE",
"366 176 LINE",
"406 176 LINE",
"458 196 LINE",
"468 138 LINE",
"418 112 LINE",
"359 112 LINE",
"316 113 LINE",
"246 139 LINE",
"196 188 LINE",
"168 255 LINE",
"167 298 LINE",
"167 341 LINE",
"199 410 LINE",
"250 458 LINE",
"319 483 LINE",
"356 483 LINE",
"420 483 LINE",
"469 453 LINE",
"460 397 LINE",
"414 421 LINE",
"367 421 LINE",
"309 421 LINE",
"247 355 LINE"
);
}
);
width = 696;
}
);
unicode = 00A9;
},
{
glyphname = registered;
layers = (
{
hints = (
{
horizontal = 1;
place = "{-16, 60}";
},
{
horizontal = 1;
place = "{125, 47}";
},
{
horizontal = 1;
place = "{291, 46}";
},
{
horizontal = 1;
place = "{438, 47}";
},
{
horizontal = 1;
place = "{554, 58}";
}
);
layerId = UUID0;
paths = (
{
closed = 1;
nodes = (
"406 276 LINE",
"411 256 LINE",
"420 219 LINE",
"438 190 LINE",
"469 172 LINE",
"494 172 LINE",
"499 172 LINE",
"506 175 LINE",
"494 125 LINE",
"464 125 LINE",
"421 138 LINE",
"392 162 LINE",
"374 197 LINE",
"367 221 LINE",
"349 291 LINE",
"285 291 LINE",
"285 133 LINE",
"228 133 LINE",
"228 485 LINE",
"353 485 LINE",
"490 485 LINE",
"490 389 LINE",
"490 305 LINE",
"403 294 LINE"
);
},
{
closed = 1;
nodes = (
"428 389 LINE",
"428 404 LINE",
"418 423 LINE",
"399 435 LINE",
"369 438 LINE",
"348 438 LINE",
"285 438 LINE",
"285 337 LINE",
"362 337 LINE",
"378 338 LINE",
"403 341 LINE",
"420 352 LINE",
"428 372 LINE"
);
},
{
closed = 1;
nodes = (
"347 44 LINE",
"397 44 LINE",
"487 84 LINE",
"554 154 LINE",
"592 247 LINE",
"592 299 LINE",
"592 355 LINE",
"551 449 LINE",
"482 517 LINE",
"394 554 LINE",
"347 554 LINE",
"296 554 LINE",
"207 514 LINE",
"140 445 LINE",
"102 352 LINE",
"102 299 LINE",
"102 245 LINE",
"140 152 LINE",
"207 83 LINE",
"296 44 LINE"
);
},
{
closed = 1;
nodes = (
"347 -16 LINE",
"217 -16 LINE",
"125 78 LINE",
"35 171 LINE",
"35 302 LINE",
"35 371 LINE",
"85 480 LINE",
"128 521 LINE",
"147 540 LINE",
"194 573 LINE",
"250 597 LINE",
"314 611 LINE",
"351 611 LINE",
"478 611 LINE",
"570 519 LINE",
"662 427 LINE",
"662 299 LINE",
"662 169 LINE",
"569 77 LINE",
"478 -16 LINE"
);
}
);
width = 696;
}
);
unicode = 00AE;
},
{
glyphname = trademark;
layers = (
{
hints = (
{
horizontal = 1;
place = "{567, 104}";
},
{
horizontal = 1;
place = "{300, 21}";
target = up;
type = BottomGhost;
}
);
layerId = UUID0;
paths = (
{
closed = 1;
nodes = (
"134 567 LINE",
"47 567 LINE",
"47 672 LINE",
"376 672 LINE",
"376 567 LINE",
"290 567 LINE",
"290 300 LINE",
"134 300 LINE"
);
},
{
closed = 1;
nodes = (
"434 672 LINE",
"588 672 LINE",
"674 522 LINE",
"759 672 LINE",
"913 672 LINE",
"913 300 LINE",
"759 300 LINE",
"759 497 LINE",
"704 390 LINE",
"643 390 LINE",
"588 497 LINE",
"588 300 LINE",
"434 300 LINE"
);
}
);
width = 971;
}
);
unicode = 2122;
},
{
glyphname = degree;
layers = (
{
hints = (
{
horizontal = 1;
place = "{162, 126}";
},
{
horizontal = 1;
place = "{569, 125}";
}
);
layerId = UUID0;
paths = (
{
closed = 1;
nodes = (
"444 429 LINE",
"444 461 LINE",
"423 514 LINE",
"388 550 LINE",
"340 569 LINE",
"313 569 LINE",
"283 569 LINE",
"234 548 LINE",
"200 510 LINE",
"182 458 LINE",
"182 429 LINE",
"182 397 LINE",
"201 345 LINE",
"236 308 LINE",
"284 288 LINE",
"313 288 LINE",
"342 288 LINE",
"391 309 LINE",
"425 346 LINE",
"444 398 LINE"
);
},
{
closed = 1;
nodes = (
"323 694 LINE",
"384 694 LINE",
"482 654 LINE",
"552 584 LINE",
"590 488 LINE",
"590 432 LINE",
"590 373 LINE",
"550 274 LINE",
"477 202 LINE",
"375 162 LINE",
"312 162 LINE",
"253 162 LINE",
"152 199 LINE",
"77 269 LINE",
"34 367 LINE",
"34 428 LINE",
"34 486 LINE",
"74 584 LINE",
"148 655 LINE",
"250 694 LINE",
"313 694 LINE"
);
}
);
width = 624;
}
);
unicode = 00B0;
},
{
glyphname = bar;
layers = (
{
hints = (
{
horizontal = 1;
place = "{0, 21}";
target = up;
type = BottomGhost;
},
{
horizontal = 1;
place = "{688, -20}";
target = down;
type = TopGhost;
}
);
layerId = UUID0;
paths = (
{
closed = 1;
nodes = (
"58 688 LINE",
"154 688 LINE",
"154 0 LINE",
"58 0 LINE"
);
}
);
width = 212;
}
);
unicode = 007C;
},
{
glyphname = brokenbar;
layers = (
{
hints = (
{
horizontal = 1;
place = "{688, -20}";
target = down;
type = TopGhost;
},
{
horizontal = 1;
place = "{0, 21}";
target = up;
type = BottomGhost;
}
);
layerId = UUID0;
paths = (
{
closed = 1;
nodes = (
"59 270 LINE",
"155 270 LINE",
"155 0 LINE",
"59 0 LINE"
);
},
{
closed = 1;
nodes = (
"59 688 LINE",
"155 688 LINE",
"155 418 LINE",
"59 418 LINE"
);
}
);
width = 214;
}
);
unicode = 00A6;
},
{
glyphname = dagger;
layers = (
{
hints = (
{
horizontal = 1;
place = "{440, 62}";
},
{
horizontal = 1;
place = "{0, 21}";
target = up;
type = BottomGhost;
},
{
horizontal = 1;
place = "{672, -20}";
target = down;
type = TopGhost;
}
);
layerId = UUID0;
paths = (
{
closed = 1;
nodes = (
"23 501 LINE",
"144 501 LINE",
"144 672 LINE",
"208 672 LINE",
"208 501 LINE",
"328 501 LINE",
"328 440 LINE",
"208 440 LINE",
"208 0 LINE",
"144 0 LINE",
"144 440 LINE",
"23 440 LINE"
);
}
);
width = 352;
}
);
unicode = 2020;
},
{
glyphname = daggerdbl;
layers = (
{
hints = (
{
horizontal = 1;
place = "{198, 61}";
},
{
horizontal = 1;
place = "{440, 62}";
},
{
horizontal = 1;
place = "{0, 21}";
target = up;
type = BottomGhost;
},
{
horizontal = 1;
place = "{672, -20}";
target = down;
type = TopGhost;
}
);
layerId = UUID0;
paths = (
{
closed = 1;
nodes = (
"31 259 LINE",
"151 259 LINE",
"151 440 LINE",
"31 440 LINE",
"31 501 LINE",
"151 501 LINE",
"151 672 LINE",
"216 672 LINE",
"216 501 LINE",
"336 501 LINE",
"336 440 LINE",
"216 440 LINE",
"216 259 LINE",
"336 259 LINE",
"336 198 LINE",
"216 198 LINE",
"216 0 LINE",
"151 0 LINE",
"151 198 LINE",
"31 198 LINE"
);
}
);
width = 367;
}
);
unicode = 2021;
},
{
glyphname = asciicircum;
layers = (
{
hints = (
{
horizontal = 1;
place = "{171, 21}";
target = up;
type = BottomGhost;
},
{
horizontal = 1;
place = "{672, -20}";
target = down;
type = TopGhost;
}
);
layerId = UUID0;
paths = (
{
closed = 1;
nodes = (
"204 672 LINE",
"383 672 LINE",
"554 171 LINE",
"405 171 LINE",
"295 578 LINE",
"187 171 LINE",
"35 171 LINE"
);
}
);
width = 588;
}
);
unicode = 005E;
},
{
glyphname = uni030F;
layers = (
{
hints = (
{
horizontal = 1;
place = "{594, 21}";
target = up;
type = BottomGhost;
},
{
horizontal = 1;
place = "{981, -20}";
target = down;
type = TopGhost;
}
);
layerId = UUID0;
paths = (
{
closed = 1;
nodes = (
"313 922 LINE",
"510 979 LINE",
"580 629 LINE",
"461 595 LINE"
);
},
{
closed = 1;
nodes = (
"33 890 LINE",
"216 981 LINE",
"347 648 LINE",
"235 594 LINE"
);
}
);
width = 636;
}
);
unicode = 030F;
},
{
glyphname = uni0311;
layers = (
{
hints = (
{
horizontal = 1;
place = "{577, 186}";
},
{
horizontal = 1;
place = "{639, 124}";
}
);
layerId = UUID0;
paths = (
{
closed = 1;
nodes = (
"268 577 LINE",
"268 590 LINE",
"258 613 LINE",
"242 629 LINE",
"219 639 LINE",
"206 639 LINE",
"193 639 LINE",
"170 629 LINE",
"154 613 LINE",
"145 590 LINE",
"145 577 LINE",
"24 577 LINE",
"24 620 LINE",
"51 688 LINE",
"100 736 LINE",
"166 763 LINE",
"206 763 LINE",
"247 763 LINE",
"314 735 LINE",
"361 686 LINE",
"388 618 LINE",
"388 577 LINE"
);
}
);
width = 411;
}
);
unicode = 0311;
},
{
glyphname = acute;
layers = (
{
hints = (
{
horizontal = 1;
place = "{562, 21}";
target = up;
type = BottomGhost;
},
{
horizontal = 1;
place = "{874, -20}";
target = down;
type = TopGhost;
}
);
layerId = UUID0;
paths = (
{
closed = 1;
nodes = (
"2 669 LINE",
"295 874 LINE",
"396 695 LINE",
"63 562 LINE"
);
}
);
width = 399;
}
);
unicode = 00B4;
},
{
glyphname = breve;
layers = (
{
hints = (
{
horizontal = 1;
place = "{562, 110}";
},
{
horizontal = 1;
place = "{562, 171}";
}
);
layerId = UUID0;
paths = (
{
closed = 1;
nodes = (
"377 732 LINE",
"377 693 LINE",
"352 630 LINE",
"306 586 LINE",
"243 562 LINE",
"206 562 LINE",
"168 562 LINE",
"104 586 LINE",
"59 632 LINE",
"34 695 LINE",
"34 732 LINE",
"145 732 LINE",
"145 706 LINE",
"179 672 LINE",
"206 672 LINE",
"233 672 LINE",
"264 705 LINE",
"264 732 LINE"
);
}
);
width = 411;
}
);
unicode = 02D8;
},
{
glyphname = caron;
layers = (
{
hints = (
{
horizontal = 1;
place = "{552, 249}";
}
);
layerId = UUID0;
paths = (
{
closed = 1;
nodes = (
"23 801 LINE",
"189 801 LINE",
"228 694 LINE",
"238 655 LINE",
"242 668 LINE",
"255 707 LINE",
"270 748 LINE",
"284 787 LINE",
"288 801 LINE",
"454 801 LINE",
"331 552 LINE",
"146 552 LINE"
);
}
);
width = 481;
}
);
unicode = 02C7;
},
{
glyphname = cedilla;
layers = (
{
hints = (
{
horizontal = 1;
place = "{-248, 52}";
},
{
horizontal = 1;
place = "{0, -20}";
target = down;
type = TopGhost;
}
);
layerId = UUID0;
paths = (
{
closed = 1;
nodes = (
"142 -134 LINE",
"142 -110 LINE",
"110 -88 LINE",
"84 -88 LINE",
"82 -88 LINE",
"111 0 LINE",
"167 0 LINE",
"147 -57 LINE",
"196 -62 LINE",
"251 -101 LINE",
"251 -135 LINE",
"251 -165 LINE",
"221 -208 LINE",
"177 -235 LINE",
"126 -248 LINE",
"106 -248 LINE",
"63 -248 LINE",
"19 -227 LINE",
"32 -189 LINE",
"58 -196 LINE",
"77 -196 LINE",
"142 -196 LINE"
);
}
);
width = 273;
}
);
unicode = 00B8;
},
{
glyphname = circumflex;
layers = (
{
hints = (
{
horizontal = 1;
place = "{552, 249}";
}
);
layerId = UUID0;
paths = (
{
closed = 1;
nodes = (
"146 801 LINE",
"331 801 LINE",
"454 552 LINE",
"288 552 LINE",
"250 658 LINE",
"238 696 LINE",
"228 658 LINE",
"189 552 LINE",
"23 552 LINE"
);
}
);
width = 481;
}
);
unicode = 02C6;
},
{
glyphname = dieresis;
layers = (
{
hints = (
{
horizontal = 1;
place = "{548, 202}";
}
);
layerId = UUID0;
paths = (
{
closed = 1;
nodes = (
"343 648 LINE",
"343 671 LINE",
"362 708 LINE",
"394 735 LINE",
"435 750 LINE",
"456 750 LINE",
"481 750 LINE",
"522 732 LINE",
"552 703 LINE",
"567 667 LINE",
"567 648 LINE",
"567 626 LINE",
"549 589 LINE",
"518 563 LINE",
"478 548 LINE",
"456 548 LINE",
"431 548 LINE",
"389 564 LINE",
"359 592 LINE",
"343 628 LINE"
);
},
{
closed = 1;
nodes = (
"41 648 LINE",
"41 670 LINE",
"60 707 LINE",
"91 734 LINE",
"131 750 LINE",
"153 750 LINE",
"177 750 LINE",
"217 733 LINE",
"248 705 LINE",
"266 668 LINE",
"266 648 LINE",
"266 626 LINE",
"247 589 LINE",
"215 563 LINE",
"175 548 LINE",
"153 548 LINE",
"130 548 LINE",
"89 563 LINE",
"59 590 LINE",
"41 627 LINE"
);
}
);
width = 608;
}
);
unicode = 00A8;
},
{
glyphname = dotaccent;
layers = (
{
hints = (
{
horizontal = 1;
place = "{568, 202}";
}
);
layerId = UUID0;
paths = (
{
closed = 1;
nodes = (
"42 670 LINE",
"42 692 LINE",
"61 729 LINE",
"92 755 LINE",
"133 771 LINE",
"154 771 LINE",
"177 771 LINE",
"218 754 LINE",
"249 727 LINE",
"267 690 LINE",
"267 670 LINE",
"267 647 LINE",
"248 610 LINE",
"216 583 LINE",
"176 568 LINE",
"154 568 LINE",
"131 568 LINE",
"90 584 LINE",
"60 611 LINE",
"42 648 LINE"
);
}
);
width = 308;
}
);
unicode = 02D9;
},
{
glyphname = grave;
layers = (
{
hints = (
{
horizontal = 1;
place = "{562, 21}";
target = up;
type = BottomGhost;
},
{
horizontal = 1;
place = "{874, -20}";
target = down;
type = TopGhost;
}
);
layerId = UUID0;
paths = (
{
closed = 1;
nodes = (
"116 874 LINE",
"409 669 LINE",
"348 562 LINE",
"15 695 LINE"
);
}
);
width = 422;
}
);
unicode = 0060;
},
{
glyphname = hungarumlaut;
layers = (
{
hints = (
{
horizontal = 1;
place = "{594, 21}";
target = up;
type = BottomGhost;
},
{
horizontal = 1;
place = "{981, -20}";
target = down;
type = TopGhost;
}
);
layerId = UUID0;
paths = (
{
closed = 1;
nodes = (
"126 979 LINE",
"321 922 LINE",
"175 595 LINE",
"56 629 LINE"
);
},
{
closed = 1;
nodes = (
"420 981 LINE",
"603 890 LINE",
"399 594 LINE",
"289 648 LINE"
);
}
);
width = 636;
}
);
unicode = 02DD;
},
{
glyphname = ogonek;
layers = (
{
hints = (
{
horizontal = 1;
place = "{-248, 52}";
},
{
horizontal = 1;
place = "{0, -20}";
target = down;
type = TopGhost;
}
);
layerId = UUID0;
paths = (
{
closed = 1;
nodes = (
"200 -196 LINE",
"214 -196 LINE",
"247 -189 LINE",
"248 -227 LINE",
"196 -248 LINE",
"151 -248 LINE",
"128 -248 LINE",
"88 -237 LINE",
"59 -216 LINE",
"42 -184 LINE",
"42 -162 LINE",
"42 -145 LINE",
"57 -112 LINE",
"81 -83 LINE",
"109 -57 LINE",
"122 -45 LINE",
"150 -22 LINE",
"160 -14 LINE",
"173 -4 LINE",
"177 0 LINE",
"231 0 LINE",
"216 -33 LINE",
"185 -87 LINE",
"169 -110 LINE",
"159 -125 LINE",
"156 -129 LINE",
"150 -150 LINE",
"150 -160 LINE",
"150 -196 LINE"
);
}
);
width = 313;
}
);
unicode = 02DB;
},
{
glyphname = ring;
layers = (
{
hints = (
{
horizontal = 1;
place = "{562, 110}";
},
{
horizontal = 1;
place = "{795, 110}";
}
);
layerId = UUID0;
paths = (
{
closed = 1;
nodes = (
"204 795 LINE",
"191 795 LINE",
"169 786 LINE",
"153 769 LINE",
"145 746 LINE",
"145 732 LINE",
"145 705 LINE",
"179 672 LINE",
"206 672 LINE",
"234 672 LINE",
"264 705 LINE",
"264 732 LINE",
"264 760 LINE",
"231 795 LINE"
);
},
{
closed = 1;
nodes = (
"34 732 LINE",
"34 772 LINE",
"60 835 LINE",
"106 881 LINE",
"169 905 LINE",
"206 905 LINE",
"247 905 LINE",
"310 878 LINE",
"354 831 LINE",
"377 768 LINE",
"377 732 LINE",
"377 693 LINE",
"352 630 LINE",
"306 586 LINE",
"243 562 LINE",
"206 562 LINE",
"168 562 LINE",
"104 586 LINE",
"59 632 LINE",
"34 695 LINE"
);
}
);
width = 411;
}
);
unicode = 02DA;
},
{
glyphname = tilde;
layers = (
{
hints = (
{
horizontal = 1;
place = "{563, 169}";
},
{
horizontal = 1;
place = "{618, 169}";
}
);
layerId = UUID0;
paths = (
{
closed = 1;
nodes = (
"201 618 LINE",
"190 618 LINE",
"173 609 LINE",
"161 594 LINE",
"152 575 LINE",
"148 565 LINE",
"30 613 LINE",
"45 655 LINE",
"83 719 LINE",
"128 764 LINE",
"177 787 LINE",
"202 787 LINE",
"217 787 LINE",
"248 777 LINE",
"256 773 LINE",
"279 759 LINE",
"280 758 LINE",
"285 755 LINE",
"289 753 LINE",
"310 741 LINE",
"318 736 LINE",
"336 731 LINE",
"348 731 LINE",
"382 731 LINE",
"397 776 LINE",
"515 729 LINE",
"484 642 LINE",
"403 563 LINE",
"352 563 LINE",
"333 563 LINE",
"303 571 LINE",
"277 583 LINE",
"256 598 LINE",
"235 610 LINE",
"213 618 LINE"
);
}
);
width = 543;
}
);
unicode = 02DC;
},
